M48
; DRILL file KiCad 10.0.6 date 2026-09-29T19:15:57
; FORMAT={-:-/ absolute / metric / decimal}
; #@! TF.CreationDate,2026-09-29T19:15:57+05:30
; #@! TF.GenerationSoftware,Kicad,Pcbnew,10.0.6
; #@! TF.FileFunction,Plated,1,2,PTH
FMAT,2
METRIC
; #@! TA.AperFunction,Plated,PTH,ViaDrill
T1C0.300
; #@! TA.AperFunction,Plated,PTH,ComponentDrill
T2C1.000
; #@! TA.AperFunction,Plated,PTH,ComponentDrill
T3C1.520
%
G90
G05
T1
X137.25Y-54.15
X138.07Y-43.53
X138.55Y-46.44
X140.51Y-64.7
X141.1Y-61.12
X142.45Y-56.77
X142.907Y-37.65
X143.66Y-61.12
X143.85Y-78.562
X144.77Y-68.34
X145.45Y-54.84
X145.98Y-66.06
X146.65Y-74.47
X146.73Y-64.882
X147.403Y-62.17
X148.77Y-49.072
X150.04Y-55.102
X150.24Y-58.41
X150.78Y-68.4
X150.89Y-55.102
X151.767Y-79.972
X153.1Y-52.022
X154.73Y-59.35
X155.2Y-66.24
X155.36Y-33.762
X155.62Y-57.67
X156.08Y-59.64
X156.73Y-67.49
X159.98Y-65.75
X162.5Y-65.68
X162.91Y-59.59
T2
X132.59Y-33.703
X132.59Y-36.242
X132.59Y-38.782
X132.59Y-41.322
X132.59Y-43.862
X132.59Y-46.402
X132.59Y-48.942
X160.7Y-33.703
X160.7Y-36.242
X160.7Y-38.782
X160.7Y-41.322
X160.7Y-43.862
X160.7Y-46.402
X160.7Y-48.942
T3
X134.21Y-63.042
X134.21Y-68.123
X134.21Y-73.203
X159.65Y-63.042
X159.65Y-68.123
X159.65Y-73.203
M30
