%TF.GenerationSoftware,KiCad,Pcbnew,10.0.6*%
%TF.CreationDate,2026-09-29T19:15:53+05:30*%
%TF.ProjectId,Home_Automation_v1,486f6d65-5f41-4757-946f-6d6174696f6e,rev?*%
%TF.SameCoordinates,Original*%
%TF.FileFunction,Copper,L2,Bot*%
%TF.FilePolarity,Positive*%
%FSLAX46Y46*%
G04 Gerber Fmt 4.6, Leading zero omitted, Abs format (unit mm)*
G04 Created by KiCad (PCBNEW 10.0.6) date 2026-09-29 19:15:53*
%MOMM*%
%LPD*%
G01*
G04 APERTURE LIST*
G04 Aperture macros list*
%AMRoundRect*
0 Rectangle with rounded corners*
0 $1 Rounding radius*
0 $2 $3 $4 $5 $6 $7 $8 $9 X,Y pos of 4 corners*
0 Add a 4 corners polygon primitive as box body*
4,1,4,$2,$3,$4,$5,$6,$7,$8,$9,$2,$3,0*
0 Add four circle primitives for the rounded corners*
1,1,$1+$1,$2,$3*
1,1,$1+$1,$4,$5*
1,1,$1+$1,$6,$7*
1,1,$1+$1,$8,$9*
0 Add four rect primitives between the rounded corners*
20,1,$1+$1,$2,$3,$4,$5,0*
20,1,$1+$1,$4,$5,$6,$7,0*
20,1,$1+$1,$6,$7,$8,$9,0*
20,1,$1+$1,$8,$9,$2,$3,0*%
G04 Aperture macros list end*
%TA.AperFunction,ComponentPad*%
%ADD10R,1.700000X1.700000*%
%TD*%
%TA.AperFunction,ComponentPad*%
%ADD11C,1.700000*%
%TD*%
%TA.AperFunction,ComponentPad*%
%ADD12R,3.000000X3.000000*%
%TD*%
%TA.AperFunction,ComponentPad*%
%ADD13C,3.000000*%
%TD*%
%TA.AperFunction,SMDPad,CuDef*%
%ADD14RoundRect,0.250000X0.475000X-0.250000X0.475000X0.250000X-0.475000X0.250000X-0.475000X-0.250000X0*%
%TD*%
%TA.AperFunction,SMDPad,CuDef*%
%ADD15C,1.500000*%
%TD*%
%TA.AperFunction,SMDPad,CuDef*%
%ADD16RoundRect,0.250000X0.900000X-1.000000X0.900000X1.000000X-0.900000X1.000000X-0.900000X-1.000000X0*%
%TD*%
%TA.AperFunction,SMDPad,CuDef*%
%ADD17RoundRect,0.225000X0.250000X-0.225000X0.250000X0.225000X-0.250000X0.225000X-0.250000X-0.225000X0*%
%TD*%
%TA.AperFunction,SMDPad,CuDef*%
%ADD18RoundRect,0.150000X-0.150000X0.825000X-0.150000X-0.825000X0.150000X-0.825000X0.150000X0.825000X0*%
%TD*%
%TA.AperFunction,SMDPad,CuDef*%
%ADD19RoundRect,0.200000X0.275000X-0.200000X0.275000X0.200000X-0.275000X0.200000X-0.275000X-0.200000X0*%
%TD*%
%TA.AperFunction,SMDPad,CuDef*%
%ADD20RoundRect,0.225000X0.225000X0.250000X-0.225000X0.250000X-0.225000X-0.250000X0.225000X-0.250000X0*%
%TD*%
%TA.AperFunction,SMDPad,CuDef*%
%ADD21RoundRect,0.200000X-0.275000X0.200000X-0.275000X-0.200000X0.275000X-0.200000X0.275000X0.200000X0*%
%TD*%
%TA.AperFunction,SMDPad,CuDef*%
%ADD22RoundRect,0.250000X0.250000X0.475000X-0.250000X0.475000X-0.250000X-0.475000X0.250000X-0.475000X0*%
%TD*%
%TA.AperFunction,SMDPad,CuDef*%
%ADD23RoundRect,0.200000X0.200000X0.275000X-0.200000X0.275000X-0.200000X-0.275000X0.200000X-0.275000X0*%
%TD*%
%TA.AperFunction,SMDPad,CuDef*%
%ADD24RoundRect,0.150000X0.150000X-0.512500X0.150000X0.512500X-0.150000X0.512500X-0.150000X-0.512500X0*%
%TD*%
%TA.AperFunction,SMDPad,CuDef*%
%ADD25RoundRect,0.112500X-0.112500X0.187500X-0.112500X-0.187500X0.112500X-0.187500X0.112500X0.187500X0*%
%TD*%
%TA.AperFunction,SMDPad,CuDef*%
%ADD26RoundRect,0.112500X0.187500X0.112500X-0.187500X0.112500X-0.187500X-0.112500X0.187500X-0.112500X0*%
%TD*%
%TA.AperFunction,SMDPad,CuDef*%
%ADD27RoundRect,0.225000X-0.225000X-0.250000X0.225000X-0.250000X0.225000X0.250000X-0.225000X0.250000X0*%
%TD*%
%TA.AperFunction,SMDPad,CuDef*%
%ADD28RoundRect,0.225000X-0.250000X0.225000X-0.250000X-0.225000X0.250000X-0.225000X0.250000X0.225000X0*%
%TD*%
%TA.AperFunction,SMDPad,CuDef*%
%ADD29RoundRect,0.249999X-0.956501X-1.464501X0.956501X-1.464501X0.956501X1.464501X-0.956501X1.464501X0*%
%TD*%
%TA.AperFunction,ViaPad*%
%ADD30C,0.600000*%
%TD*%
%TA.AperFunction,Conductor*%
%ADD31C,0.500000*%
%TD*%
%TA.AperFunction,Conductor*%
%ADD32C,0.250000*%
%TD*%
%TA.AperFunction,Conductor*%
%ADD33C,0.200000*%
%TD*%
G04 APERTURE END LIST*
D10*
%TO.P,J4,1,Pin_1_1*%
%TO.N,/D6*%
X132590000Y-48942500D03*
D11*
%TO.P,J4,2,Pin_2_2*%
%TO.N,/RX*%
X132590000Y-46402500D03*
%TO.P,J4,3,Pin_3_3*%
%TO.N,/TX*%
X132590000Y-43862500D03*
%TO.P,J4,4,Pin_4_4*%
%TO.N,/D3*%
X132590000Y-41322500D03*
%TO.P,J4,5,Pin_5_5*%
%TO.N,/D2*%
X132590000Y-38782500D03*
%TO.P,J4,6,Pin_6_6*%
%TO.N,/D1*%
X132590000Y-36242500D03*
%TO.P,J4,7,Pin_7_7*%
%TO.N,/INT*%
X132590000Y-33702500D03*
%TD*%
D12*
%TO.P,J2,1,Pin_1_1*%
%TO.N,/RS485_A*%
X159650000Y-63042500D03*
D13*
%TO.P,J2,2,Pin_2_2*%
%TO.N,/RS485_B*%
X159650000Y-68122500D03*
%TO.P,J2,3,Pin_3_3*%
%TO.N,GND*%
X159650000Y-73202500D03*
%TD*%
D12*
%TO.P,J1,1,Pin_1_1*%
%TO.N,Net-(J1-Pin_1)*%
X134210000Y-63042500D03*
D13*
%TO.P,J1,2,Pin_2_2*%
%TO.N,/EX 5V*%
X134210000Y-68122500D03*
%TO.P,J1,3,Pin_3_3*%
%TO.N,/EX 12V*%
X134210000Y-73202500D03*
%TD*%
D10*
%TO.P,J5,1,Pin_1_1*%
%TO.N,/5V*%
X160700000Y-33702500D03*
D11*
%TO.P,J5,2,Pin_2_2*%
%TO.N,GND*%
X160700000Y-36242500D03*
%TO.P,J5,3,Pin_3_3*%
%TO.N,/3V3*%
X160700000Y-38782500D03*
%TO.P,J5,4,Pin_4_4*%
%TO.N,/D10*%
X160700000Y-41322500D03*
%TO.P,J5,5,Pin_5_5*%
%TO.N,/D9*%
X160700000Y-43862500D03*
%TO.P,J5,6,Pin_6_6*%
%TO.N,/D8*%
X160700000Y-46402500D03*
%TO.P,J5,7,Pin_7_7*%
%TO.N,/D7*%
X160700000Y-48942500D03*
%TD*%
D14*
%TO.P,C8,1*%
%TO.N,/12V*%
X143660000Y-61120000D03*
%TO.P,C8,2*%
%TO.N,GND*%
X143660000Y-59220000D03*
%TD*%
D15*
%TO.P,TP1,1,1_1*%
%TO.N,/3V3*%
X142130000Y-44672397D03*
%TD*%
D16*
%TO.P,D6,1,A1_1*%
%TO.N,GND*%
X141470000Y-73342397D03*
%TO.P,D6,2,A2_2*%
%TO.N,/EX 12V*%
X141470000Y-69042397D03*
%TD*%
D17*
%TO.P,C6,1*%
%TO.N,Net-(C6-Pad1)*%
X147380000Y-57422397D03*
%TO.P,C6,2*%
%TO.N,Net-(U1-FB)*%
X147380000Y-55872397D03*
%TD*%
D15*
%TO.P,TP3,1,1_1*%
%TO.N,/RS485_B*%
X142940000Y-53132397D03*
%TD*%
D18*
%TO.P,U3,1,R_1*%
%TO.N,Net-(U3-R)*%
X144412500Y-41787397D03*
%TO.P,U3,2,RE_2*%
%TO.N,/D5*%
X145682500Y-41787397D03*
%TO.P,U3,3,DE_3*%
X146952500Y-41787397D03*
%TO.P,U3,4,D_4*%
%TO.N,Net-(U3-D)*%
X148222500Y-41787397D03*
%TO.P,U3,5,GND_5*%
%TO.N,GND*%
X148222500Y-46737397D03*
%TO.P,U3,6,A_6*%
%TO.N,Net-(SW1-B)*%
X146952500Y-46737397D03*
%TO.P,U3,7,B_7*%
%TO.N,Net-(U3-B)*%
X145682500Y-46737397D03*
%TO.P,U3,8,Vcc_8*%
%TO.N,/3V3*%
X144412500Y-46737397D03*
%TD*%
D15*
%TO.P,TP2,1,1_1*%
%TO.N,/12V*%
X144280000Y-65592397D03*
%TD*%
%TO.P,TP8,1,1_1*%
%TO.N,/5V*%
X153090000Y-49692397D03*
%TD*%
D19*
%TO.P,R1,1*%
%TO.N,/D5*%
X146477500Y-39299897D03*
%TO.P,R1,2*%
%TO.N,GND*%
X146477500Y-37649897D03*
%TD*%
D20*
%TO.P,C7,1*%
%TO.N,/3V3*%
X142360000Y-46992397D03*
%TO.P,C7,2*%
%TO.N,GND*%
X140810000Y-46992397D03*
%TD*%
D21*
%TO.P,R6,1*%
%TO.N,Net-(SW1-B)*%
X146920000Y-49072397D03*
%TO.P,R6,2*%
%TO.N,/RS485_A*%
X146920000Y-50722397D03*
%TD*%
D22*
%TO.P,C4,1*%
%TO.N,Net-(D1-A)*%
X152850000Y-63940000D03*
%TO.P,C4,2*%
%TO.N,GND*%
X150950000Y-63940000D03*
%TD*%
D23*
%TO.P,R3,1*%
%TO.N,Net-(D1-A)*%
X152980000Y-57672397D03*
%TO.P,R3,2*%
%TO.N,Net-(C6-Pad1)*%
X151330000Y-57672397D03*
%TD*%
D22*
%TO.P,C5,1*%
%TO.N,Net-(D1-A)*%
X152855000Y-61355000D03*
%TO.P,C5,2*%
%TO.N,GND*%
X150955000Y-61355000D03*
%TD*%
D21*
%TO.P,R11,1*%
%TO.N,Net-(SW1-B)*%
X148770000Y-49072397D03*
%TO.P,R11,2*%
%TO.N,/3V3*%
X148770000Y-50722397D03*
%TD*%
D24*
%TO.P,U1,1,GND_1*%
%TO.N,GND*%
X147402500Y-62169897D03*
%TO.P,U1,2,SW_2*%
%TO.N,Net-(U1-SW)*%
X146452500Y-62169897D03*
%TO.P,U1,3,VIN_3*%
%TO.N,/12V*%
X145502500Y-62169897D03*
%TO.P,U1,4,FB_4*%
%TO.N,Net-(U1-FB)*%
X145502500Y-59894897D03*
%TO.P,U1,5,EN_5*%
%TO.N,unconnected-(U1-EN-Pad5)*%
X146452500Y-59894897D03*
%TO.P,U1,6,BOOT_6*%
%TO.N,Net-(U1-BOOT)*%
X147402500Y-59894897D03*
%TD*%
D19*
%TO.P,R13,1*%
%TO.N,Net-(U3-R)*%
X144700000Y-39299897D03*
%TO.P,R13,2*%
%TO.N,/RX*%
X144700000Y-37649897D03*
%TD*%
D21*
%TO.P,R2,1*%
%TO.N,Net-(U3-B)*%
X142940000Y-49057397D03*
%TO.P,R2,2*%
%TO.N,/RS485_B*%
X142940000Y-50707397D03*
%TD*%
D20*
%TO.P,C13,1*%
%TO.N,Net-(D1-A)*%
X152930000Y-59402397D03*
%TO.P,C13,2*%
%TO.N,GND*%
X151380000Y-59402397D03*
%TD*%
D25*
%TO.P,D1,1,K_1*%
%TO.N,/5V*%
X152880000Y-53762397D03*
%TO.P,D1,2,A_2*%
%TO.N,Net-(D1-A)*%
X152880000Y-55862397D03*
%TD*%
D26*
%TO.P,D2,1,K_1*%
%TO.N,/12V*%
X141850000Y-65712397D03*
%TO.P,D2,2,A_2*%
%TO.N,/EX 12V*%
X139750000Y-65712397D03*
%TD*%
D19*
%TO.P,R8,1*%
%TO.N,Net-(SW1-C)*%
X144940000Y-50727397D03*
%TO.P,R8,2*%
%TO.N,Net-(U3-B)*%
X144940000Y-49077397D03*
%TD*%
D27*
%TO.P,C14,1*%
%TO.N,GND*%
X151550000Y-52022397D03*
%TO.P,C14,2*%
%TO.N,/5V*%
X153100000Y-52022397D03*
%TD*%
D19*
%TO.P,R10,1*%
%TO.N,GND*%
X140950000Y-50707397D03*
%TO.P,R10,2*%
%TO.N,Net-(U3-B)*%
X140950000Y-49057397D03*
%TD*%
%TO.P,R12,1*%
%TO.N,Net-(U3-D)*%
X148270000Y-39299897D03*
%TO.P,R12,2*%
%TO.N,/TX*%
X148270000Y-37649897D03*
%TD*%
D21*
%TO.P,R7,1*%
%TO.N,/3V3*%
X142907500Y-37649897D03*
%TO.P,R7,2*%
%TO.N,Net-(U3-R)*%
X142907500Y-39299897D03*
%TD*%
D15*
%TO.P,TP5,1,1_1*%
%TO.N,/RX*%
X144700000Y-34902397D03*
%TD*%
D14*
%TO.P,C1,1*%
%TO.N,/12V*%
X141100000Y-61120000D03*
%TO.P,C1,2*%
%TO.N,GND*%
X141100000Y-59220000D03*
%TD*%
D28*
%TO.P,C2,1*%
%TO.N,/12V*%
X139050000Y-61710000D03*
%TO.P,C2,2*%
%TO.N,GND*%
X139050000Y-63260000D03*
%TD*%
%TO.P,C3,1*%
%TO.N,Net-(U1-BOOT)*%
X149410000Y-60412397D03*
%TO.P,C3,2*%
%TO.N,Net-(U1-SW)*%
X149410000Y-61962397D03*
%TD*%
D21*
%TO.P,R5,1*%
%TO.N,Net-(U1-FB)*%
X145680000Y-55822397D03*
%TO.P,R5,2*%
%TO.N,GND*%
X145680000Y-57472397D03*
%TD*%
D15*
%TO.P,TP6,1,1_1*%
%TO.N,/TX*%
X148270000Y-34902397D03*
%TD*%
%TO.P,TP4,1,1_1*%
%TO.N,/RS485_A*%
X146920000Y-53132397D03*
%TD*%
D19*
%TO.P,R4,1*%
%TO.N,Net-(C6-Pad1)*%
X149080000Y-57482397D03*
%TO.P,R4,2*%
%TO.N,Net-(U1-FB)*%
X149080000Y-55832397D03*
%TD*%
D15*
%TO.P,TP7,1,1_1*%
%TO.N,GND*%
X151470000Y-45732397D03*
%TD*%
D29*
%TO.P,L1,1,1_1*%
%TO.N,Net-(U1-SW)*%
X147778000Y-69570000D03*
%TO.P,L1,2,2_2*%
%TO.N,Net-(D1-A)*%
X153620000Y-69570000D03*
%TD*%
D30*
%TO.N,/5V*%
X155360000Y-33762500D03*
X153100000Y-52022397D03*
%TO.N,GND*%
X150240000Y-58410000D03*
X137250000Y-54150000D03*
X156080000Y-59640000D03*
X162500000Y-65680000D03*
X154730000Y-59350000D03*
X145450000Y-54840000D03*
X162910000Y-59590000D03*
X145980000Y-66060000D03*
X155620000Y-57670000D03*
X159980000Y-65750000D03*
X150780000Y-68400000D03*
X156730000Y-67490000D03*
X155200000Y-66240000D03*
X146650000Y-74470000D03*
X144770000Y-68340000D03*
X147402500Y-62169897D03*
%TO.N,/RX*%
X138550000Y-46440000D03*
%TO.N,/TX*%
X138070000Y-43530000D03*
%TO.N,Net-(Q2-G)*%
X142450000Y-56770000D03*
X146730000Y-64882500D03*
%TO.N,Net-(SW2-B)*%
X140510000Y-64700000D03*
X143850000Y-78562500D03*
%TO.N,Net-(SW1-B)*%
X148770000Y-49072397D03*
%TO.N,Net-(SW1-C)*%
X151767400Y-79972400D03*
%TO.N,/3V3*%
X142907500Y-37649897D03*
%TO.N,/12V*%
X143660000Y-61120000D03*
X141100000Y-61120000D03*
%TO.N,/RS485_B*%
X150039627Y-55102417D03*
%TO.N,/RS485_A*%
X150889627Y-55102417D03*
%TD*%
%TO.N,/5V*%
D31*
X152880000Y-53762397D02*
X152880000Y-52242397D01*
X152880000Y-52242397D02*
X153100000Y-52022397D01*
X153100000Y-49702397D02*
X153090000Y-49692397D01*
X153090000Y-36032500D02*
X155360000Y-33762500D01*
X153100000Y-52022397D02*
X153100000Y-49702397D01*
X153090000Y-49692397D02*
X153090000Y-36032500D01*
%TO.N,GND*%
D32*
X150955000Y-59827397D02*
X151380000Y-59402397D01*
X150955000Y-61355000D02*
X150955000Y-59827397D01*
X151232397Y-59402397D02*
X150240000Y-58410000D01*
X150780000Y-68400000D02*
X150950000Y-68230000D01*
X150950000Y-61360000D02*
X150955000Y-61355000D01*
X151380000Y-59402397D02*
X151232397Y-59402397D01*
X150950000Y-63940000D02*
X150950000Y-61360000D01*
X150950000Y-68230000D02*
X150950000Y-63940000D01*
%TO.N,/RX*%
X144700000Y-37649897D02*
X144700000Y-34902397D01*
X137445000Y-41252997D02*
X142223100Y-36474897D01*
X137445000Y-45335000D02*
X137445000Y-41252997D01*
X138550000Y-46440000D02*
X137445000Y-45335000D01*
X143925000Y-36474897D02*
X144700000Y-37249897D01*
X142223100Y-36474897D02*
X143925000Y-36474897D01*
X144700000Y-37249897D02*
X144700000Y-37649897D01*
%TO.N,/TX*%
X143707500Y-38072901D02*
X144009496Y-38374897D01*
X143707500Y-37226893D02*
X143707500Y-38072901D01*
X138070000Y-41264393D02*
X142409496Y-36924897D01*
X142409496Y-36924897D02*
X143405504Y-36924897D01*
X143405504Y-36924897D02*
X143707500Y-37226893D01*
X148270000Y-37649897D02*
X148270000Y-34902397D01*
X144009496Y-38374897D02*
X147545000Y-38374897D01*
X147545000Y-38374897D02*
X148270000Y-37649897D01*
X138070000Y-43530000D02*
X138070000Y-41264393D01*
%TO.N,Net-(Q2-G)*%
X142450000Y-61455100D02*
X142939900Y-61945000D01*
X142939900Y-61945000D02*
X143185000Y-61945000D01*
X142450000Y-56770000D02*
X142450000Y-61455100D01*
X146122500Y-64882500D02*
X146730000Y-64882500D01*
X143185000Y-61945000D02*
X146122500Y-64882500D01*
%TO.N,Net-(SW2-B)*%
X140510000Y-65362297D02*
X143850000Y-68702297D01*
X143850000Y-68702297D02*
X143850000Y-78562500D01*
X140510000Y-64700000D02*
X140510000Y-65362297D01*
%TO.N,Net-(SW1-B)*%
D33*
X146920000Y-49072397D02*
X148770000Y-49072397D01*
X146952500Y-49039897D02*
X146920000Y-49072397D01*
X146952500Y-46737397D02*
X146952500Y-49039897D01*
%TO.N,Net-(SW1-C)*%
D32*
X151780000Y-79959800D02*
X151767400Y-79972400D01*
X151514627Y-54843533D02*
X151514627Y-55361301D01*
X151780000Y-60634900D02*
X151780000Y-79959800D01*
X152055000Y-55901674D02*
X152055000Y-58170401D01*
X152155000Y-60030000D02*
X151880000Y-60305000D01*
X151880000Y-58643345D02*
X152155000Y-58918345D01*
X147720000Y-51048906D02*
X151514627Y-54843533D01*
X145670000Y-49997397D02*
X147418004Y-49997397D01*
X152155000Y-58918345D02*
X152155000Y-60030000D01*
X151880000Y-60305000D02*
X151450100Y-60305000D01*
X151880000Y-58345401D02*
X151880000Y-58643345D01*
X151514627Y-55361301D02*
X152055000Y-55901674D01*
X151450100Y-60305000D02*
X151780000Y-60634900D01*
X147720000Y-50299393D02*
X147720000Y-51048906D01*
X144940000Y-50727397D02*
X145670000Y-49997397D01*
X152055000Y-58170401D02*
X151880000Y-58345401D01*
X147418004Y-49997397D02*
X147720000Y-50299393D01*
%TO.N,/EX 12V*%
D31*
X134210000Y-73202500D02*
X137309897Y-73202500D01*
X141470000Y-69042397D02*
X141470000Y-67432397D01*
X137309897Y-73202500D02*
X141470000Y-69042397D01*
X141470000Y-67432397D02*
X139750000Y-65712397D01*
%TO.N,/3V3*%
D32*
X148161592Y-48347397D02*
X147577500Y-47763305D01*
D31*
X142615000Y-46737397D02*
X142360000Y-46992397D01*
D32*
X149570000Y-49922397D02*
X149570000Y-48649393D01*
X149268004Y-48347397D02*
X148161592Y-48347397D01*
D31*
X144412500Y-46737397D02*
X142615000Y-46737397D01*
D32*
X149570000Y-48649393D02*
X149268004Y-48347397D01*
D31*
X141380000Y-43922397D02*
X141380000Y-39177397D01*
D32*
X144737501Y-45437397D02*
X144412500Y-45762398D01*
D31*
X142360000Y-46992397D02*
X142360000Y-44902397D01*
D32*
X148770000Y-50722397D02*
X149570000Y-49922397D01*
X147577500Y-45711489D02*
X147303408Y-45437397D01*
X144412500Y-45762398D02*
X144412500Y-46737397D01*
X147303408Y-45437397D02*
X144737501Y-45437397D01*
D31*
X142130000Y-44672397D02*
X141380000Y-43922397D01*
D32*
X147577500Y-47763305D02*
X147577500Y-45711489D01*
D31*
X141380000Y-39177397D02*
X142907500Y-37649897D01*
X142360000Y-44902397D02*
X142130000Y-44672397D01*
%TO.N,/12V*%
X141850000Y-65712397D02*
X144160000Y-65712397D01*
X144280000Y-64300000D02*
X141100000Y-61120000D01*
X139640000Y-61120000D02*
X139050000Y-61710000D01*
X144160000Y-65712397D02*
X144280000Y-65592397D01*
X143660000Y-61120000D02*
X144452603Y-61120000D01*
X144452603Y-61120000D02*
X145502500Y-62169897D01*
X141100000Y-61120000D02*
X139640000Y-61120000D01*
X144280000Y-65592397D02*
X144280000Y-64300000D01*
%TO.N,Net-(C6-Pad1)*%
D32*
X149080000Y-57482397D02*
X151140000Y-57482397D01*
X151140000Y-57482397D02*
X151330000Y-57672397D01*
X149080000Y-57482397D02*
X149020000Y-57422397D01*
X147380000Y-57422397D02*
X149020000Y-57422397D01*
%TO.N,Net-(U1-FB)*%
D31*
X149040000Y-55872397D02*
X149080000Y-55832397D01*
X147380000Y-55872397D02*
X149040000Y-55872397D01*
X147330000Y-55822397D02*
X147380000Y-55872397D01*
D32*
X144880000Y-59272397D02*
X144880000Y-56622397D01*
X145502500Y-59894897D02*
X144880000Y-59272397D01*
X144880000Y-56622397D02*
X145680000Y-55822397D01*
D31*
X145680000Y-55822397D02*
X147330000Y-55822397D01*
%TO.N,Net-(U3-R)*%
D32*
X142907500Y-39299897D02*
X144700000Y-39299897D01*
X144700000Y-41499897D02*
X144412500Y-41787397D01*
X144700000Y-39299897D02*
X144700000Y-41499897D01*
%TO.N,/D5*%
X145682500Y-41787397D02*
X146952500Y-41787397D01*
X146952500Y-39774897D02*
X146477500Y-39299897D01*
X146952500Y-41787397D02*
X146952500Y-39774897D01*
%TO.N,Net-(U3-D)*%
X148270000Y-39299897D02*
X148270000Y-41739897D01*
X148270000Y-41739897D02*
X148222500Y-41787397D01*
%TO.N,Net-(U3-B)*%
D33*
X144920000Y-49057397D02*
X144940000Y-49077397D01*
X142940000Y-49057397D02*
X144920000Y-49057397D01*
X142940000Y-49057397D02*
X140950000Y-49057397D01*
X144940000Y-49077397D02*
X145682500Y-48334897D01*
X145682500Y-48334897D02*
X145682500Y-46737397D01*
%TO.N,Net-(D1-A)*%
D31*
X152855000Y-59477397D02*
X152930000Y-59402397D01*
X152930000Y-59402397D02*
X152930000Y-57722397D01*
X153620000Y-69570000D02*
X153620000Y-64710000D01*
X152855000Y-61355000D02*
X152855000Y-59477397D01*
X152850000Y-61360000D02*
X152855000Y-61355000D01*
X152980000Y-57672397D02*
X152980000Y-55962397D01*
X152980000Y-55962397D02*
X152880000Y-55862397D01*
X152850000Y-63940000D02*
X152850000Y-61360000D01*
X152930000Y-57722397D02*
X152980000Y-57672397D01*
X153620000Y-64710000D02*
X152850000Y-63940000D01*
%TO.N,Net-(U1-SW)*%
X149410000Y-62428581D02*
X147778000Y-64060581D01*
X149410000Y-61962397D02*
X149410000Y-62428581D01*
X147778000Y-69570000D02*
X147778000Y-64060581D01*
X147778000Y-64060581D02*
X146452500Y-62735081D01*
X146452500Y-62735081D02*
X146452500Y-62169897D01*
%TO.N,Net-(U1-BOOT)*%
X147920000Y-60412397D02*
X147402500Y-59894897D01*
X149410000Y-60412397D02*
X147920000Y-60412397D01*
%TO.N,/RS485_B*%
D33*
X148733210Y-53582397D02*
X147954925Y-53582397D01*
X146485075Y-54182397D02*
X145885075Y-53582397D01*
X142940000Y-53132397D02*
X142940000Y-50707397D01*
X147954925Y-53582397D02*
X147354925Y-54182397D01*
X145885075Y-53582397D02*
X143390000Y-53582397D01*
X150039627Y-55102417D02*
X150039627Y-54888814D01*
X147354925Y-54182397D02*
X146485075Y-54182397D01*
X143390000Y-53582397D02*
X142940000Y-53132397D01*
X150039627Y-54888814D02*
X148733210Y-53582397D01*
%TO.N,/RS485_A*%
X148919607Y-53132397D02*
X146920000Y-53132397D01*
X146920000Y-53132397D02*
X146920000Y-50722397D01*
X150889627Y-55102417D02*
X148919607Y-53132397D01*
%TD*%
%TA.AperFunction,Conductor*%
%TO.N,GND*%
G36*
X144957454Y-59835050D02*
G01*
X144996310Y-59893118D01*
X145002000Y-59930250D01*
X145002000Y-60440657D01*
X145011926Y-60508788D01*
X145063303Y-60613882D01*
X145146014Y-60696593D01*
X145146015Y-60696593D01*
X145146017Y-60696595D01*
X145251107Y-60747970D01*
X145282020Y-60752474D01*
X145319239Y-60757897D01*
X145319240Y-60757897D01*
X145685761Y-60757897D01*
X145722980Y-60752474D01*
X145753893Y-60747970D01*
X145858983Y-60696595D01*
X145863154Y-60692424D01*
X145889819Y-60665760D01*
X145951142Y-60632275D01*
X146020834Y-60637259D01*
X146065181Y-60665760D01*
X146096014Y-60696593D01*
X146096015Y-60696593D01*
X146096017Y-60696595D01*
X146201107Y-60747970D01*
X146232020Y-60752474D01*
X146269239Y-60757897D01*
X146269240Y-60757897D01*
X146635761Y-60757897D01*
X146672980Y-60752474D01*
X146703893Y-60747970D01*
X146808983Y-60696595D01*
X146813154Y-60692424D01*
X146839819Y-60665760D01*
X146901142Y-60632275D01*
X146970834Y-60637259D01*
X147015181Y-60665760D01*
X147046014Y-60696593D01*
X147046015Y-60696593D01*
X147046017Y-60696595D01*
X147151107Y-60747970D01*
X147182020Y-60752474D01*
X147219239Y-60757897D01*
X147584198Y-60757897D01*
X147646195Y-60774508D01*
X147661172Y-60783155D01*
X147709387Y-60833721D01*
X147722611Y-60902327D01*
X147696644Y-60967193D01*
X147683327Y-60981613D01*
X147652500Y-61010098D01*
X147652500Y-61919897D01*
X148202500Y-61919897D01*
X148202500Y-61591762D01*
X148202499Y-61591747D01*
X148199600Y-61554907D01*
X148199599Y-61554901D01*
X148153783Y-61397203D01*
X148153782Y-61397200D01*
X148070185Y-61255844D01*
X148070178Y-61255835D01*
X147954061Y-61139718D01*
X147954052Y-61139711D01*
X147876131Y-61093629D01*
X147828447Y-61042560D01*
X147815944Y-60973818D01*
X147842589Y-60909229D01*
X147899925Y-60869299D01*
X147939252Y-60862897D01*
X148732389Y-60862897D01*
X148799428Y-60882582D01*
X148820070Y-60899216D01*
X148906774Y-60985920D01*
X148906778Y-60985923D01*
X148906780Y-60985925D01*
X149026874Y-61047116D01*
X149026876Y-61047116D01*
X149026878Y-61047117D01*
X149126507Y-61062897D01*
X149126512Y-61062897D01*
X149693493Y-61062897D01*
X149802765Y-61045590D01*
X149802983Y-61046967D01*
X149862515Y-61045263D01*
X149922350Y-61081339D01*
X149953182Y-61144038D01*
X149955000Y-61165191D01*
X149955000Y-61209602D01*
X149935315Y-61276641D01*
X149882511Y-61322396D01*
X149813353Y-61332340D01*
X149793678Y-61327764D01*
X149693493Y-61311897D01*
X149693488Y-61311897D01*
X149126512Y-61311897D01*
X149126507Y-61311897D01*
X149026878Y-61327676D01*
X149026874Y-61327677D01*
X149026874Y-61327678D01*
X148973252Y-61355000D01*
X148906778Y-61388870D01*
X148906774Y-61388873D01*
X148811476Y-61484171D01*
X148811473Y-61484175D01*
X148750279Y-61604275D01*
X148734500Y-61703903D01*
X148734500Y-62220890D01*
X148750280Y-62320521D01*
X148750282Y-62320527D01*
X148753489Y-62326822D01*
X148766382Y-62395492D01*
X148740103Y-62460231D01*
X148730683Y-62470793D01*
X148414181Y-62787296D01*
X148352858Y-62820781D01*
X148283167Y-62815797D01*
X148227233Y-62773926D01*
X148202816Y-62708461D01*
X148202500Y-62699615D01*
X148202500Y-62419897D01*
X147526500Y-62419897D01*
X147459461Y-62400212D01*
X147413706Y-62347408D01*
X147402500Y-62295897D01*
X147402500Y-62169897D01*
X147276500Y-62169897D01*
X147209461Y-62150212D01*
X147163706Y-62097408D01*
X147152500Y-62045897D01*
X147152500Y-61010100D01*
X147150003Y-61010297D01*
X146992306Y-61056113D01*
X146992303Y-61056114D01*
X146850947Y-61139711D01*
X146850942Y-61139715D01*
X146734816Y-61255842D01*
X146732444Y-61258901D01*
X146729975Y-61260683D01*
X146729302Y-61261357D01*
X146729193Y-61261248D01*
X146675800Y-61299806D01*
X146634467Y-61306897D01*
X146269239Y-61306897D01*
X146201108Y-61316823D01*
X146096014Y-61368200D01*
X146065181Y-61399034D01*
X146003858Y-61432519D01*
X145934166Y-61427535D01*
X145889819Y-61399034D01*
X145858985Y-61368200D01*
X145829185Y-61353632D01*
X145753893Y-61316824D01*
X145753891Y-61316823D01*
X145685761Y-61306897D01*
X145685760Y-61306897D01*
X145327965Y-61306897D01*
X145260926Y-61287212D01*
X145240284Y-61270578D01*
X144729219Y-60759513D01*
X144729217Y-60759511D01*
X144677853Y-60729856D01*
X144626491Y-60700201D01*
X144613032Y-60696595D01*
X144602276Y-60693713D01*
X144602274Y-60693712D01*
X144602269Y-60693709D01*
X144602269Y-60693711D01*
X144597467Y-60692424D01*
X144537809Y-60656055D01*
X144529798Y-60646285D01*
X144509759Y-60619133D01*
X144457150Y-60547850D01*
X144347882Y-60467207D01*
X144347880Y-60467206D01*
X144283967Y-60444842D01*
X144227191Y-60404120D01*
X144201444Y-60339168D01*
X144214901Y-60270606D01*
X144263288Y-60220203D01*
X144285918Y-60210095D01*
X144454119Y-60154358D01*
X144454124Y-60154356D01*
X144603345Y-60062315D01*
X144727315Y-59938345D01*
X144772461Y-59865153D01*
X144824409Y-59818429D01*
X144893372Y-59807206D01*
X144957454Y-59835050D01*
G37*
%TD.AperFunction*%
%TA.AperFunction,Conductor*%
G36*
X145873039Y-57492082D02*
G01*
X145918794Y-57544886D01*
X145930000Y-57596397D01*
X145930000Y-58372396D01*
X146011581Y-58372396D01*
X146082102Y-58365988D01*
X146082107Y-58365987D01*
X146244396Y-58315415D01*
X146389877Y-58227469D01*
X146510072Y-58107274D01*
X146598015Y-57961799D01*
X146600213Y-57956916D01*
X146645674Y-57903859D01*
X146712603Y-57883802D01*
X146779751Y-57903114D01*
X146800973Y-57920119D01*
X146876774Y-57995920D01*
X146876778Y-57995923D01*
X146876780Y-57995925D01*
X146996874Y-58057116D01*
X146996876Y-58057116D01*
X146996878Y-58057117D01*
X147096507Y-58072897D01*
X147096512Y-58072897D01*
X147663493Y-58072897D01*
X147763121Y-58057117D01*
X147763121Y-58057116D01*
X147763126Y-58057116D01*
X147883220Y-57995925D01*
X147978528Y-57900617D01*
X148021845Y-57815601D01*
X148069820Y-57764806D01*
X148132330Y-57747897D01*
X148312896Y-57747897D01*
X148379935Y-57767582D01*
X148423378Y-57815598D01*
X148476950Y-57920739D01*
X148476951Y-57920740D01*
X148476954Y-57920744D01*
X148566652Y-58010442D01*
X148566654Y-58010443D01*
X148566658Y-58010447D01*
X148658251Y-58057116D01*
X148679698Y-58068044D01*
X148773475Y-58082896D01*
X148773481Y-58082897D01*
X149386518Y-58082896D01*
X149480304Y-58068043D01*
X149593342Y-58010447D01*
X149683050Y-57920739D01*
X149706049Y-57875600D01*
X149754023Y-57824806D01*
X149816533Y-57807897D01*
X150605501Y-57807897D01*
X150672540Y-57827582D01*
X150718295Y-57880386D01*
X150729501Y-57931897D01*
X150729501Y-57978915D01*
X150744354Y-58072701D01*
X150801950Y-58185739D01*
X150801952Y-58185741D01*
X150801954Y-58185744D01*
X150898558Y-58282348D01*
X150896172Y-58284733D01*
X150928305Y-58326378D01*
X150934306Y-58395990D01*
X150901719Y-58457795D01*
X150851779Y-58489106D01*
X150846519Y-58490849D01*
X150846507Y-58490854D01*
X150702271Y-58579821D01*
X150702267Y-58579824D01*
X150582427Y-58699664D01*
X150582424Y-58699668D01*
X150493457Y-58843904D01*
X150493452Y-58843915D01*
X150440144Y-59004790D01*
X150430000Y-59104074D01*
X150430000Y-59152397D01*
X151256000Y-59152397D01*
X151323039Y-59172082D01*
X151368794Y-59224886D01*
X151380000Y-59276397D01*
X151380000Y-59528397D01*
X151360315Y-59595436D01*
X151307511Y-59641191D01*
X151256000Y-59652397D01*
X150430001Y-59652397D01*
X150430001Y-59700719D01*
X150440144Y-59800004D01*
X150493452Y-59960878D01*
X150493454Y-59960883D01*
X150513098Y-59992730D01*
X150531538Y-60060123D01*
X150510615Y-60126786D01*
X150456973Y-60171556D01*
X150446564Y-60175533D01*
X150385878Y-60195642D01*
X150385875Y-60195643D01*
X150274597Y-60264281D01*
X150207204Y-60282721D01*
X150140541Y-60261798D01*
X150095771Y-60208156D01*
X150085500Y-60158742D01*
X150085500Y-60153903D01*
X150069720Y-60054275D01*
X150069719Y-60054273D01*
X150069719Y-60054271D01*
X150008528Y-59934177D01*
X150008526Y-59934175D01*
X150008523Y-59934171D01*
X149913225Y-59838873D01*
X149913221Y-59838870D01*
X149913220Y-59838869D01*
X149793126Y-59777678D01*
X149793124Y-59777677D01*
X149793121Y-59777676D01*
X149693493Y-59761897D01*
X149693488Y-59761897D01*
X149126512Y-59761897D01*
X149126507Y-59761897D01*
X149026878Y-59777676D01*
X148906778Y-59838870D01*
X148906774Y-59838873D01*
X148820070Y-59925578D01*
X148758747Y-59959063D01*
X148732389Y-59961897D01*
X148157965Y-59961897D01*
X148090926Y-59942212D01*
X148070284Y-59925578D01*
X147939319Y-59794613D01*
X147905834Y-59733290D01*
X147903000Y-59706932D01*
X147903000Y-59349136D01*
X147893073Y-59281005D01*
X147893073Y-59281004D01*
X147841698Y-59175914D01*
X147841696Y-59175912D01*
X147841696Y-59175911D01*
X147758985Y-59093200D01*
X147653891Y-59041823D01*
X147585761Y-59031897D01*
X147585760Y-59031897D01*
X147219240Y-59031897D01*
X147219239Y-59031897D01*
X147151108Y-59041823D01*
X147046014Y-59093200D01*
X147015181Y-59124034D01*
X146953858Y-59157519D01*
X146884166Y-59152535D01*
X146839819Y-59124034D01*
X146808985Y-59093200D01*
X146703891Y-59041823D01*
X146635761Y-59031897D01*
X146635760Y-59031897D01*
X146269240Y-59031897D01*
X146269239Y-59031897D01*
X146201108Y-59041823D01*
X146096014Y-59093200D01*
X146065181Y-59124034D01*
X146003858Y-59157519D01*
X145934166Y-59152535D01*
X145889819Y-59124034D01*
X145858985Y-59093200D01*
X145753891Y-59041823D01*
X145685761Y-59031897D01*
X145685760Y-59031897D01*
X145329500Y-59031897D01*
X145262461Y-59012212D01*
X145216706Y-58959408D01*
X145205500Y-58907897D01*
X145205500Y-58495188D01*
X145225185Y-58428149D01*
X145277989Y-58382394D01*
X145340730Y-58371698D01*
X145348416Y-58372396D01*
X145429999Y-58372395D01*
X145430000Y-58372395D01*
X145430000Y-57596397D01*
X145449685Y-57529358D01*
X145502489Y-57483603D01*
X145554000Y-57472397D01*
X145806000Y-57472397D01*
X145873039Y-57492082D01*
G37*
%TD.AperFunction*%
%TA.AperFunction,Conductor*%
G36*
X163632539Y-29385288D02*
G01*
X163678294Y-29438092D01*
X163689500Y-29489603D01*
X163689500Y-84700603D01*
X163669815Y-84767642D01*
X163617011Y-84813397D01*
X163565500Y-84824603D01*
X129954500Y-84824603D01*
X129887461Y-84804918D01*
X129841706Y-84752114D01*
X129830500Y-84700603D01*
X129830500Y-80793814D01*
X131519500Y-80793814D01*
X131519500Y-81036391D01*
X131551161Y-81276888D01*
X131613947Y-81511207D01*
X131706773Y-81735308D01*
X131706776Y-81735315D01*
X131828064Y-81945392D01*
X131828066Y-81945395D01*
X131828067Y-81945396D01*
X131975733Y-82137839D01*
X131975739Y-82137846D01*
X132147256Y-82309363D01*
X132147262Y-82309368D01*
X132339711Y-82457039D01*
X132549788Y-82578327D01*
X132773900Y-82671157D01*
X133008211Y-82733941D01*
X133188586Y-82757687D01*
X133248711Y-82765603D01*
X133248712Y-82765603D01*
X133491289Y-82765603D01*
X133539388Y-82759270D01*
X133731789Y-82733941D01*
X133966100Y-82671157D01*
X134190212Y-82578327D01*
X134400289Y-82457039D01*
X134592738Y-82309368D01*
X134764265Y-82137841D01*
X134911936Y-81945392D01*
X135033224Y-81735315D01*
X135126054Y-81511203D01*
X135188838Y-81276892D01*
X135220500Y-81036391D01*
X135220500Y-80793815D01*
X135220500Y-80793814D01*
X158389500Y-80793814D01*
X158389500Y-81036391D01*
X158421161Y-81276888D01*
X158483947Y-81511207D01*
X158576773Y-81735308D01*
X158576776Y-81735315D01*
X158698064Y-81945392D01*
X158698066Y-81945395D01*
X158698067Y-81945396D01*
X158845733Y-82137839D01*
X158845739Y-82137846D01*
X159017256Y-82309363D01*
X159017262Y-82309368D01*
X159209711Y-82457039D01*
X159419788Y-82578327D01*
X159643900Y-82671157D01*
X159878211Y-82733941D01*
X160058586Y-82757687D01*
X160118711Y-82765603D01*
X160118712Y-82765603D01*
X160361289Y-82765603D01*
X160409388Y-82759270D01*
X160601789Y-82733941D01*
X160836100Y-82671157D01*
X161060212Y-82578327D01*
X161270289Y-82457039D01*
X161462738Y-82309368D01*
X161634265Y-82137841D01*
X161781936Y-81945392D01*
X161903224Y-81735315D01*
X161996054Y-81511203D01*
X162058838Y-81276892D01*
X162090500Y-81036391D01*
X162090500Y-80793815D01*
X162058838Y-80553314D01*
X161996054Y-80319003D01*
X161903224Y-80094891D01*
X161781936Y-79884814D01*
X161700905Y-79779212D01*
X161634266Y-79692366D01*
X161634260Y-79692359D01*
X161462743Y-79520842D01*
X161462736Y-79520836D01*
X161270293Y-79373170D01*
X161270292Y-79373169D01*
X161270289Y-79373167D01*
X161060212Y-79251879D01*
X161060205Y-79251876D01*
X160836104Y-79159050D01*
X160673813Y-79115564D01*
X160601789Y-79096265D01*
X160601788Y-79096264D01*
X160601785Y-79096264D01*
X160361289Y-79064603D01*
X160361288Y-79064603D01*
X160118712Y-79064603D01*
X160118711Y-79064603D01*
X159878214Y-79096264D01*
X159643895Y-79159050D01*
X159419794Y-79251876D01*
X159419785Y-79251880D01*
X159209706Y-79373170D01*
X159017263Y-79520836D01*
X159017256Y-79520842D01*
X158845739Y-79692359D01*
X158845733Y-79692366D01*
X158698067Y-79884809D01*
X158576777Y-80094888D01*
X158576773Y-80094897D01*
X158483947Y-80318998D01*
X158421161Y-80553317D01*
X158389500Y-80793814D01*
X135220500Y-80793814D01*
X135188838Y-80553314D01*
X135126054Y-80319003D01*
X135033224Y-80094891D01*
X134911936Y-79884814D01*
X134830905Y-79779212D01*
X134764266Y-79692366D01*
X134764260Y-79692359D01*
X134592743Y-79520842D01*
X134592736Y-79520836D01*
X134408064Y-79379133D01*
X141328199Y-79379133D01*
X141354158Y-79509630D01*
X141354161Y-79509640D01*
X141405076Y-79632561D01*
X141405086Y-79632579D01*
X141479001Y-79743201D01*
X141479007Y-79743209D01*
X141573090Y-79837292D01*
X141573098Y-79837298D01*
X141683720Y-79911213D01*
X141683723Y-79911214D01*
X141683731Y-79911220D01*
X141806664Y-79962140D01*
X141806668Y-79962140D01*
X141806669Y-79962141D01*
X141937166Y-79988100D01*
X141937169Y-79988100D01*
X142070233Y-79988100D01*
X142158025Y-79970635D01*
X142200736Y-79962140D01*
X142323669Y-79911220D01*
X142434306Y-79837295D01*
X142528395Y-79743206D01*
X142602320Y-79632569D01*
X142653240Y-79509636D01*
X142679200Y-79379131D01*
X142679200Y-79289133D01*
X149245599Y-79289133D01*
X149271558Y-79419630D01*
X149271561Y-79419640D01*
X149322476Y-79542561D01*
X149322486Y-79542579D01*
X149396401Y-79653201D01*
X149396407Y-79653209D01*
X149490490Y-79747292D01*
X149490498Y-79747298D01*
X149601120Y-79821213D01*
X149601123Y-79821214D01*
X149601131Y-79821220D01*
X149601137Y-79821222D01*
X149601138Y-79821223D01*
X149639940Y-79837295D01*
X149724064Y-79872140D01*
X149724068Y-79872140D01*
X149724069Y-79872141D01*
X149854566Y-79898100D01*
X149854569Y-79898100D01*
X149987633Y-79898100D01*
X150075425Y-79880635D01*
X150118136Y-79872140D01*
X150241069Y-79821220D01*
X150351706Y-79747295D01*
X150445795Y-79653206D01*
X150519720Y-79542569D01*
X150570640Y-79419636D01*
X150596600Y-79289131D01*
X150596600Y-79156069D01*
X150596600Y-79156066D01*
X150570641Y-79025569D01*
X150570640Y-79025568D01*
X150570640Y-79025564D01*
X150519720Y-78902631D01*
X150505928Y-78881990D01*
X150445798Y-78791998D01*
X150445792Y-78791990D01*
X150351709Y-78697907D01*
X150351701Y-78697901D01*
X150241079Y-78623986D01*
X150241072Y-78623982D01*
X150241069Y-78623980D01*
X150241065Y-78623978D01*
X150241061Y-78623976D01*
X150118140Y-78573061D01*
X150118130Y-78573058D01*
X149987633Y-78547100D01*
X149987631Y-78547100D01*
X149854569Y-78547100D01*
X149854567Y-78547100D01*
X149724069Y-78573058D01*
X149724059Y-78573061D01*
X149601138Y-78623976D01*
X149601120Y-78623986D01*
X149490498Y-78697901D01*
X149490490Y-78697907D01*
X149396407Y-78791990D01*
X149396401Y-78791998D01*
X149322486Y-78902620D01*
X149322476Y-78902638D01*
X149271561Y-79025559D01*
X149271558Y-79025569D01*
X149245600Y-79156066D01*
X149245600Y-79156069D01*
X149245600Y-79289131D01*
X149245600Y-79289133D01*
X149245599Y-79289133D01*
X142679200Y-79289133D01*
X142679200Y-79246069D01*
X142679200Y-79246066D01*
X142653241Y-79115569D01*
X142653240Y-79115568D01*
X142653240Y-79115564D01*
X142645246Y-79096264D01*
X142602323Y-78992638D01*
X142602322Y-78992637D01*
X142602320Y-78992631D01*
X142582521Y-78963000D01*
X142528398Y-78881998D01*
X142528392Y-78881990D01*
X142434309Y-78787907D01*
X142434301Y-78787901D01*
X142323679Y-78713986D01*
X142323672Y-78713982D01*
X142323669Y-78713980D01*
X142323665Y-78713978D01*
X142323661Y-78713976D01*
X142200740Y-78663061D01*
X142200730Y-78663058D01*
X142070233Y-78637100D01*
X142070231Y-78637100D01*
X141937169Y-78637100D01*
X141937167Y-78637100D01*
X141806669Y-78663058D01*
X141806659Y-78663061D01*
X141683738Y-78713976D01*
X141683720Y-78713986D01*
X141573098Y-78787901D01*
X141573090Y-78787907D01*
X141479007Y-78881990D01*
X141479001Y-78881998D01*
X141405086Y-78992620D01*
X141405076Y-78992638D01*
X141354161Y-79115559D01*
X141354158Y-79115569D01*
X141328200Y-79246066D01*
X141328200Y-79246069D01*
X141328200Y-79379131D01*
X141328200Y-79379133D01*
X141328199Y-79379133D01*
X134408064Y-79379133D01*
X134400293Y-79373170D01*
X134400292Y-79373169D01*
X134400289Y-79373167D01*
X134190212Y-79251879D01*
X134190205Y-79251876D01*
X133966104Y-79159050D01*
X133803813Y-79115564D01*
X133731789Y-79096265D01*
X133731788Y-79096264D01*
X133731785Y-79096264D01*
X133491289Y-79064603D01*
X133491288Y-79064603D01*
X133248712Y-79064603D01*
X133248711Y-79064603D01*
X133008214Y-79096264D01*
X132773895Y-79159050D01*
X132549794Y-79251876D01*
X132549785Y-79251880D01*
X132339706Y-79373170D01*
X132147263Y-79520836D01*
X132147256Y-79520842D01*
X131975739Y-79692359D01*
X131975733Y-79692366D01*
X131828067Y-79884809D01*
X131706777Y-80094888D01*
X131706773Y-80094897D01*
X131613947Y-80318998D01*
X131551161Y-80553317D01*
X131519500Y-80793814D01*
X129830500Y-80793814D01*
X129830500Y-76379133D01*
X141327699Y-76379133D01*
X141353658Y-76509630D01*
X141353661Y-76509640D01*
X141404576Y-76632561D01*
X141404586Y-76632579D01*
X141478501Y-76743201D01*
X141478507Y-76743209D01*
X141572590Y-76837292D01*
X141572598Y-76837298D01*
X141683220Y-76911213D01*
X141683223Y-76911214D01*
X141683231Y-76911220D01*
X141806164Y-76962140D01*
X141806168Y-76962140D01*
X141806169Y-76962141D01*
X141936666Y-76988100D01*
X141936669Y-76988100D01*
X142069733Y-76988100D01*
X142157525Y-76970635D01*
X142200236Y-76962140D01*
X142323169Y-76911220D01*
X142433806Y-76837295D01*
X142527895Y-76743206D01*
X142601820Y-76632569D01*
X142652740Y-76509636D01*
X142678700Y-76379131D01*
X142678700Y-76246069D01*
X142678700Y-76246066D01*
X142652741Y-76115569D01*
X142652740Y-76115568D01*
X142652740Y-76115564D01*
X142601820Y-75992631D01*
X142527895Y-75881994D01*
X142527892Y-75881990D01*
X142433809Y-75787907D01*
X142433801Y-75787901D01*
X142323179Y-75713986D01*
X142323172Y-75713982D01*
X142323169Y-75713980D01*
X142323165Y-75713978D01*
X142323161Y-75713976D01*
X142200240Y-75663061D01*
X142200230Y-75663058D01*
X142069733Y-75637100D01*
X142069731Y-75637100D01*
X141936669Y-75637100D01*
X141936667Y-75637100D01*
X141806169Y-75663058D01*
X141806159Y-75663061D01*
X141683238Y-75713976D01*
X141683220Y-75713986D01*
X141572598Y-75787901D01*
X141572590Y-75787907D01*
X141478507Y-75881990D01*
X141478501Y-75881998D01*
X141404586Y-75992620D01*
X141404576Y-75992638D01*
X141353661Y-76115559D01*
X141353658Y-76115569D01*
X141327700Y-76246066D01*
X141327700Y-76246069D01*
X141327700Y-76379131D01*
X141327700Y-76379133D01*
X141327699Y-76379133D01*
X129830500Y-76379133D01*
X129830500Y-73091049D01*
X132509500Y-73091049D01*
X132509500Y-73313950D01*
X132509501Y-73313966D01*
X132538594Y-73534952D01*
X132538595Y-73534957D01*
X132538596Y-73534963D01*
X132596288Y-73750272D01*
X132596290Y-73750280D01*
X132596293Y-73750290D01*
X132681593Y-73956222D01*
X132681595Y-73956226D01*
X132793052Y-74149274D01*
X132793057Y-74149280D01*
X132793058Y-74149282D01*
X132928751Y-74326122D01*
X132928757Y-74326129D01*
X133086370Y-74483742D01*
X133086377Y-74483748D01*
X133101164Y-74495094D01*
X133263226Y-74619448D01*
X133456274Y-74730905D01*
X133662219Y-74816210D01*
X133877537Y-74873904D01*
X134098543Y-74903000D01*
X134098550Y-74903000D01*
X134321450Y-74903000D01*
X134321457Y-74903000D01*
X134542463Y-74873904D01*
X134757781Y-74816210D01*
X134963726Y-74730905D01*
X135156774Y-74619448D01*
X135333624Y-74483747D01*
X135424988Y-74392383D01*
X139820001Y-74392383D01*
X139830494Y-74495094D01*
X139885641Y-74661516D01*
X139885643Y-74661521D01*
X139977684Y-74810742D01*
X140101654Y-74934712D01*
X140250875Y-75026753D01*
X140250880Y-75026755D01*
X140417302Y-75081902D01*
X140417309Y-75081903D01*
X140520019Y-75092396D01*
X141219999Y-75092396D01*
X141720000Y-75092396D01*
X142419972Y-75092396D01*
X142419986Y-75092395D01*
X142522697Y-75081902D01*
X142689119Y-75026755D01*
X142689124Y-75026753D01*
X142838345Y-74934712D01*
X142962315Y-74810742D01*
X143054356Y-74661521D01*
X143054358Y-74661516D01*
X143109505Y-74495094D01*
X143109506Y-74495087D01*
X143119999Y-74392383D01*
X143120000Y-74392370D01*
X143120000Y-73592397D01*
X141720000Y-73592397D01*
X141720000Y-75092396D01*
X141219999Y-75092396D01*
X141220000Y-75092395D01*
X141220000Y-73592397D01*
X139820001Y-73592397D01*
X139820001Y-74392383D01*
X135424988Y-74392383D01*
X135491247Y-74326124D01*
X135626948Y-74149274D01*
X135738405Y-73956226D01*
X135823710Y-73750281D01*
X135825152Y-73744901D01*
X135861519Y-73685243D01*
X135924367Y-73654716D01*
X135944925Y-73653000D01*
X137369205Y-73653000D01*
X137369206Y-73653000D01*
X137459570Y-73628786D01*
X137483784Y-73622299D01*
X137586511Y-73562989D01*
X138857090Y-72292410D01*
X139820000Y-72292410D01*
X139820000Y-73092397D01*
X141220000Y-73092397D01*
X141720000Y-73092397D01*
X143119999Y-73092397D01*
X143119999Y-72292425D01*
X143119998Y-72292410D01*
X143109505Y-72189699D01*
X143054358Y-72023277D01*
X143054356Y-72023272D01*
X142962315Y-71874051D01*
X142838345Y-71750081D01*
X142689124Y-71658040D01*
X142689119Y-71658038D01*
X142522697Y-71602891D01*
X142522690Y-71602890D01*
X142419986Y-71592397D01*
X141720000Y-71592397D01*
X141720000Y-73092397D01*
X141220000Y-73092397D01*
X141220000Y-71592397D01*
X140520028Y-71592397D01*
X140520012Y-71592398D01*
X140417302Y-71602891D01*
X140250880Y-71658038D01*
X140250875Y-71658040D01*
X140101654Y-71750081D01*
X139977684Y-71874051D01*
X139885643Y-72023272D01*
X139885641Y-72023277D01*
X139830494Y-72189699D01*
X139830493Y-72189706D01*
X139820000Y-72292410D01*
X138857090Y-72292410D01*
X140620284Y-70529216D01*
X140681607Y-70495731D01*
X140707965Y-70492897D01*
X142424270Y-70492897D01*
X142454699Y-70490043D01*
X142454701Y-70490043D01*
X142518790Y-70467616D01*
X142582882Y-70445190D01*
X142692150Y-70364547D01*
X142772793Y-70255279D01*
X142795219Y-70191187D01*
X142817646Y-70127098D01*
X142817646Y-70127096D01*
X142820500Y-70096666D01*
X142820500Y-68432486D01*
X142840185Y-68365447D01*
X142892989Y-68319692D01*
X142962147Y-68309748D01*
X143025703Y-68338773D01*
X143032181Y-68344805D01*
X143488181Y-68800805D01*
X143521666Y-68862128D01*
X143524500Y-68888486D01*
X143524500Y-78128824D01*
X143504815Y-78195863D01*
X143488181Y-78216505D01*
X143449502Y-78255183D01*
X143449500Y-78255186D01*
X143383608Y-78369312D01*
X143349500Y-78496608D01*
X143349500Y-78628392D01*
X143366554Y-78692039D01*
X143383608Y-78755687D01*
X143402211Y-78787907D01*
X143449500Y-78869814D01*
X143542686Y-78963000D01*
X143641521Y-79020063D01*
X143656810Y-79028890D01*
X143656814Y-79028892D01*
X143784108Y-79063000D01*
X143784110Y-79063000D01*
X143915890Y-79063000D01*
X143915892Y-79063000D01*
X144043186Y-79028892D01*
X144157314Y-78963000D01*
X144250500Y-78869814D01*
X144316392Y-78755686D01*
X144350500Y-78628392D01*
X144350500Y-78496608D01*
X144316392Y-78369314D01*
X144250500Y-78255186D01*
X144211819Y-78216505D01*
X144178334Y-78155182D01*
X144175500Y-78128824D01*
X144175500Y-76289133D01*
X149245099Y-76289133D01*
X149271058Y-76419630D01*
X149271061Y-76419640D01*
X149321976Y-76542561D01*
X149321986Y-76542579D01*
X149395901Y-76653201D01*
X149395907Y-76653209D01*
X149489990Y-76747292D01*
X149489998Y-76747298D01*
X149600620Y-76821213D01*
X149600623Y-76821214D01*
X149600631Y-76821220D01*
X149600637Y-76821222D01*
X149600638Y-76821223D01*
X149639440Y-76837295D01*
X149723564Y-76872140D01*
X149723568Y-76872140D01*
X149723569Y-76872141D01*
X149854066Y-76898100D01*
X149854069Y-76898100D01*
X149987133Y-76898100D01*
X150074925Y-76880635D01*
X150117636Y-76872140D01*
X150240569Y-76821220D01*
X150351206Y-76747295D01*
X150445295Y-76653206D01*
X150519220Y-76542569D01*
X150570140Y-76419636D01*
X150596100Y-76289131D01*
X150596100Y-76156069D01*
X150596100Y-76156066D01*
X150570141Y-76025569D01*
X150570140Y-76025568D01*
X150570140Y-76025564D01*
X150519220Y-75902631D01*
X150505428Y-75881990D01*
X150445298Y-75791998D01*
X150445292Y-75791990D01*
X150351209Y-75697907D01*
X150351201Y-75697901D01*
X150240579Y-75623986D01*
X150240572Y-75623982D01*
X150240569Y-75623980D01*
X150240565Y-75623978D01*
X150240561Y-75623976D01*
X150117640Y-75573061D01*
X150117630Y-75573058D01*
X149987133Y-75547100D01*
X149987131Y-75547100D01*
X149854069Y-75547100D01*
X149854067Y-75547100D01*
X149723569Y-75573058D01*
X149723559Y-75573061D01*
X149600638Y-75623976D01*
X149600620Y-75623986D01*
X149489998Y-75697901D01*
X149489990Y-75697907D01*
X149395907Y-75791990D01*
X149395901Y-75791998D01*
X149321986Y-75902620D01*
X149321976Y-75902638D01*
X149271061Y-76025559D01*
X149271058Y-76025569D01*
X149245100Y-76156066D01*
X149245100Y-76156069D01*
X149245100Y-76289131D01*
X149245100Y-76289133D01*
X149245099Y-76289133D01*
X144175500Y-76289133D01*
X144175500Y-68659446D01*
X144175500Y-68659444D01*
X144153318Y-68576659D01*
X144153314Y-68576652D01*
X144110469Y-68502441D01*
X144110463Y-68502433D01*
X141982608Y-66374578D01*
X141949123Y-66313255D01*
X141954107Y-66243563D01*
X141995979Y-66187630D01*
X142061443Y-66163213D01*
X142070289Y-66162897D01*
X143454927Y-66162897D01*
X143521966Y-66182582D01*
X143542608Y-66199216D01*
X143674088Y-66330696D01*
X143674092Y-66330699D01*
X143829762Y-66434715D01*
X143829768Y-66434718D01*
X143829769Y-66434719D01*
X144002749Y-66506370D01*
X144186379Y-66542896D01*
X144186383Y-66542897D01*
X144186384Y-66542897D01*
X144373617Y-66542897D01*
X144373618Y-66542896D01*
X144557251Y-66506370D01*
X144730231Y-66434719D01*
X144885908Y-66330699D01*
X145018302Y-66198305D01*
X145122322Y-66042628D01*
X145193973Y-65869648D01*
X145230500Y-65686013D01*
X145230500Y-65498781D01*
X145193973Y-65315146D01*
X145128906Y-65158060D01*
X145122323Y-65142168D01*
X145122318Y-65142159D01*
X145018302Y-64986489D01*
X145018299Y-64986485D01*
X144885911Y-64854097D01*
X144885907Y-64854094D01*
X144785609Y-64787076D01*
X144740804Y-64733463D01*
X144730500Y-64683974D01*
X144730500Y-64250189D01*
X144750185Y-64183150D01*
X144802989Y-64137395D01*
X144872147Y-64127451D01*
X144935703Y-64156476D01*
X144942181Y-64162508D01*
X145862034Y-65082361D01*
X145862035Y-65082362D01*
X145922638Y-65142965D01*
X145922640Y-65142966D01*
X145922644Y-65142969D01*
X145996050Y-65185349D01*
X145996862Y-65185818D01*
X146079647Y-65208000D01*
X146165353Y-65208000D01*
X146296324Y-65208000D01*
X146363363Y-65227685D01*
X146384005Y-65244319D01*
X146422686Y-65283000D01*
X146536814Y-65348892D01*
X146664108Y-65383000D01*
X146664110Y-65383000D01*
X146795890Y-65383000D01*
X146795892Y-65383000D01*
X146923186Y-65348892D01*
X147037314Y-65283000D01*
X147115819Y-65204495D01*
X147177142Y-65171010D01*
X147246834Y-65175994D01*
X147302767Y-65217866D01*
X147327184Y-65283330D01*
X147327500Y-65292176D01*
X147327500Y-67531000D01*
X147307815Y-67598039D01*
X147255011Y-67643794D01*
X147203500Y-67655000D01*
X146767240Y-67655000D01*
X146754703Y-67656175D01*
X146736800Y-67657854D01*
X146736797Y-67657854D01*
X146736796Y-67657855D01*
X146736794Y-67657855D01*
X146608617Y-67702706D01*
X146499349Y-67783349D01*
X146418706Y-67892618D01*
X146373853Y-68020797D01*
X146373853Y-68020799D01*
X146371000Y-68051229D01*
X146371000Y-71088760D01*
X146371001Y-71088766D01*
X146373854Y-71119200D01*
X146373854Y-71119202D01*
X146373855Y-71119203D01*
X146373855Y-71119205D01*
X146418706Y-71247382D01*
X146499349Y-71356650D01*
X146553983Y-71396971D01*
X146608617Y-71437293D01*
X146651344Y-71452244D01*
X146736798Y-71482146D01*
X146743823Y-71482804D01*
X146767233Y-71485000D01*
X148788766Y-71484999D01*
X148819200Y-71482146D01*
X148947383Y-71437293D01*
X149056650Y-71356650D01*
X149137293Y-71247383D01*
X149159719Y-71183291D01*
X149182146Y-71119202D01*
X149182146Y-71119200D01*
X149185000Y-71088767D01*
X149184999Y-68051234D01*
X149182146Y-68020800D01*
X149137293Y-67892617D01*
X149103940Y-67847425D01*
X149056650Y-67783349D01*
X148971149Y-67720247D01*
X148947383Y-67702707D01*
X148947381Y-67702706D01*
X148819201Y-67657853D01*
X148788771Y-67655000D01*
X148788767Y-67655000D01*
X148352500Y-67655000D01*
X148285461Y-67635315D01*
X148239706Y-67582511D01*
X148228500Y-67531000D01*
X148228500Y-64464986D01*
X149950001Y-64464986D01*
X149960494Y-64567697D01*
X150015641Y-64734119D01*
X150015643Y-64734124D01*
X150107684Y-64883345D01*
X150231654Y-65007315D01*
X150380875Y-65099356D01*
X150380880Y-65099358D01*
X150547302Y-65154505D01*
X150547309Y-65154506D01*
X150650019Y-65164999D01*
X150699999Y-65164998D01*
X150700000Y-65164998D01*
X150700000Y-64190000D01*
X149950001Y-64190000D01*
X149950001Y-64464986D01*
X148228500Y-64464986D01*
X148228500Y-64298546D01*
X148248185Y-64231507D01*
X148264819Y-64210865D01*
X148424727Y-64050957D01*
X149095386Y-63380298D01*
X149770490Y-62705194D01*
X149829799Y-62602467D01*
X149829799Y-62602463D01*
X149831094Y-62600222D01*
X149881661Y-62552006D01*
X149882066Y-62551798D01*
X149913220Y-62535925D01*
X150008528Y-62440617D01*
X150014224Y-62429437D01*
X150062192Y-62378644D01*
X150130012Y-62361844D01*
X150196148Y-62384379D01*
X150212389Y-62398050D01*
X150236654Y-62422315D01*
X150385875Y-62514356D01*
X150385880Y-62514358D01*
X150429961Y-62528965D01*
X150487406Y-62568737D01*
X150514229Y-62633253D01*
X150501914Y-62702029D01*
X150454371Y-62753229D01*
X150429963Y-62764376D01*
X150380884Y-62780640D01*
X150380875Y-62780643D01*
X150231654Y-62872684D01*
X150107684Y-62996654D01*
X150015643Y-63145875D01*
X150015641Y-63145880D01*
X149960494Y-63312302D01*
X149960493Y-63312309D01*
X149950000Y-63415013D01*
X149950000Y-63690000D01*
X150700000Y-63690000D01*
X150700000Y-62696142D01*
X150689196Y-62676357D01*
X150694180Y-62606665D01*
X150705000Y-62589829D01*
X150705000Y-61479000D01*
X150724685Y-61411961D01*
X150777489Y-61366206D01*
X150829000Y-61355000D01*
X151081000Y-61355000D01*
X151148039Y-61374685D01*
X151193794Y-61427489D01*
X151205000Y-61479000D01*
X151205000Y-62598855D01*
X151215804Y-62618641D01*
X151210820Y-62688333D01*
X151200000Y-62705169D01*
X151200000Y-65164999D01*
X151249972Y-65164999D01*
X151249984Y-65164998D01*
X151317897Y-65158060D01*
X151386590Y-65170829D01*
X151437475Y-65218709D01*
X151454500Y-65281418D01*
X151454500Y-79526124D01*
X151434815Y-79593163D01*
X151418181Y-79613805D01*
X151366902Y-79665083D01*
X151366900Y-79665086D01*
X151301008Y-79779212D01*
X151266900Y-79906508D01*
X151266900Y-80038291D01*
X151301008Y-80165587D01*
X151333954Y-80222650D01*
X151366900Y-80279714D01*
X151460086Y-80372900D01*
X151574214Y-80438792D01*
X151701508Y-80472900D01*
X151701510Y-80472900D01*
X151833290Y-80472900D01*
X151833292Y-80472900D01*
X151960586Y-80438792D01*
X152074714Y-80372900D01*
X152167900Y-80279714D01*
X152233792Y-80165586D01*
X152267900Y-80038292D01*
X152267900Y-79906508D01*
X152233792Y-79779214D01*
X152167900Y-79665086D01*
X152141819Y-79639005D01*
X152108334Y-79577682D01*
X152105500Y-79551324D01*
X152105500Y-73071405D01*
X157650000Y-73071405D01*
X157650000Y-73333594D01*
X157684220Y-73593509D01*
X157684222Y-73593520D01*
X157752075Y-73846755D01*
X157852404Y-74088971D01*
X157852409Y-74088982D01*
X157983488Y-74316016D01*
X157983494Y-74316024D01*
X158070080Y-74428865D01*
X158964767Y-73534177D01*
X158976497Y-73562495D01*
X159059670Y-73686972D01*
X159165528Y-73792830D01*
X159290005Y-73876003D01*
X159318320Y-73887731D01*
X158423633Y-74782417D01*
X158423633Y-74782418D01*
X158536475Y-74869005D01*
X158536483Y-74869011D01*
X158763517Y-75000090D01*
X158763528Y-75000095D01*
X159005744Y-75100424D01*
X159258979Y-75168277D01*
X159258990Y-75168279D01*
X159518905Y-75202499D01*
X159518920Y-75202500D01*
X159781080Y-75202500D01*
X159781094Y-75202499D01*
X160041009Y-75168279D01*
X160041020Y-75168277D01*
X160294255Y-75100424D01*
X160536471Y-75000095D01*
X160536482Y-75000090D01*
X160763516Y-74869011D01*
X160763534Y-74868999D01*
X160876365Y-74782419D01*
X160876365Y-74782417D01*
X159981679Y-73887731D01*
X160009995Y-73876003D01*
X160134472Y-73792830D01*
X160240330Y-73686972D01*
X160323503Y-73562495D01*
X160335231Y-73534179D01*
X161229917Y-74428865D01*
X161229919Y-74428865D01*
X161316499Y-74316034D01*
X161316511Y-74316016D01*
X161447590Y-74088982D01*
X161447595Y-74088971D01*
X161547924Y-73846755D01*
X161615777Y-73593520D01*
X161615779Y-73593509D01*
X161649999Y-73333594D01*
X161650000Y-73333580D01*
X161650000Y-73071419D01*
X161649999Y-73071405D01*
X161615779Y-72811490D01*
X161615777Y-72811479D01*
X161547924Y-72558244D01*
X161447595Y-72316028D01*
X161447590Y-72316017D01*
X161316511Y-72088983D01*
X161316505Y-72088975D01*
X161229918Y-71976133D01*
X161229917Y-71976133D01*
X160335231Y-72870819D01*
X160323503Y-72842505D01*
X160240330Y-72718028D01*
X160134472Y-72612170D01*
X160009995Y-72528997D01*
X159981677Y-72517267D01*
X160876365Y-71622580D01*
X160763524Y-71535994D01*
X160763516Y-71535988D01*
X160536482Y-71404909D01*
X160536471Y-71404904D01*
X160294255Y-71304575D01*
X160041020Y-71236722D01*
X160041009Y-71236720D01*
X159781094Y-71202500D01*
X159518905Y-71202500D01*
X159258990Y-71236720D01*
X159258979Y-71236722D01*
X159005744Y-71304575D01*
X158763528Y-71404904D01*
X158763517Y-71404909D01*
X158536471Y-71535996D01*
X158423633Y-71622579D01*
X158423633Y-71622580D01*
X159318321Y-72517268D01*
X159290005Y-72528997D01*
X159165528Y-72612170D01*
X159059670Y-72718028D01*
X158976497Y-72842505D01*
X158964768Y-72870821D01*
X158070080Y-71976133D01*
X158070079Y-71976133D01*
X157983496Y-72088971D01*
X157852409Y-72316017D01*
X157852404Y-72316028D01*
X157752075Y-72558244D01*
X157684222Y-72811479D01*
X157684220Y-72811490D01*
X157650000Y-73071405D01*
X152105500Y-73071405D01*
X152105500Y-71413916D01*
X152125185Y-71346877D01*
X152177989Y-71301122D01*
X152247147Y-71291178D01*
X152310703Y-71320203D01*
X152329268Y-71340280D01*
X152341350Y-71356650D01*
X152450617Y-71437293D01*
X152493344Y-71452244D01*
X152578798Y-71482146D01*
X152585823Y-71482804D01*
X152609233Y-71485000D01*
X154630766Y-71484999D01*
X154661200Y-71482146D01*
X154789383Y-71437293D01*
X154898650Y-71356650D01*
X154979293Y-71247383D01*
X155001719Y-71183291D01*
X155024146Y-71119202D01*
X155024146Y-71119200D01*
X155027000Y-71088767D01*
X155026999Y-68051234D01*
X155024146Y-68020800D01*
X155020734Y-68011049D01*
X157949500Y-68011049D01*
X157949500Y-68233950D01*
X157949501Y-68233966D01*
X157978594Y-68454952D01*
X157978595Y-68454957D01*
X157978596Y-68454963D01*
X158033387Y-68659446D01*
X158036290Y-68670280D01*
X158036293Y-68670290D01*
X158105398Y-68837124D01*
X158121595Y-68876226D01*
X158233052Y-69069274D01*
X158233057Y-69069280D01*
X158233058Y-69069282D01*
X158368751Y-69246122D01*
X158368757Y-69246129D01*
X158526370Y-69403742D01*
X158526376Y-69403747D01*
X158703226Y-69539448D01*
X158896274Y-69650905D01*
X159102219Y-69736210D01*
X159317537Y-69793904D01*
X159538543Y-69823000D01*
X159538550Y-69823000D01*
X159761450Y-69823000D01*
X159761457Y-69823000D01*
X159982463Y-69793904D01*
X160197781Y-69736210D01*
X160403726Y-69650905D01*
X160596774Y-69539448D01*
X160773624Y-69403747D01*
X160931247Y-69246124D01*
X161066948Y-69069274D01*
X161178405Y-68876226D01*
X161263710Y-68670281D01*
X161321404Y-68454963D01*
X161350500Y-68233957D01*
X161350500Y-68011043D01*
X161321404Y-67790037D01*
X161263710Y-67574719D01*
X161178405Y-67368774D01*
X161066948Y-67175726D01*
X160931247Y-66998876D01*
X160931242Y-66998870D01*
X160773629Y-66841257D01*
X160773622Y-66841251D01*
X160596782Y-66705558D01*
X160596780Y-66705557D01*
X160596774Y-66705552D01*
X160403726Y-66594095D01*
X160403722Y-66594093D01*
X160197790Y-66508793D01*
X160197783Y-66508791D01*
X160197781Y-66508790D01*
X159982463Y-66451096D01*
X159982457Y-66451095D01*
X159982452Y-66451094D01*
X159761466Y-66422001D01*
X159761463Y-66422000D01*
X159761457Y-66422000D01*
X159538543Y-66422000D01*
X159538537Y-66422000D01*
X159538533Y-66422001D01*
X159317547Y-66451094D01*
X159317540Y-66451095D01*
X159317537Y-66451096D01*
X159111254Y-66506369D01*
X159102219Y-66508790D01*
X159102209Y-66508793D01*
X158896277Y-66594093D01*
X158896273Y-66594095D01*
X158703226Y-66705552D01*
X158703217Y-66705558D01*
X158526377Y-66841251D01*
X158526370Y-66841257D01*
X158368757Y-66998870D01*
X158368751Y-66998877D01*
X158233058Y-67175717D01*
X158233052Y-67175726D01*
X158121595Y-67368773D01*
X158121593Y-67368777D01*
X158036293Y-67574709D01*
X158036290Y-67574719D01*
X158018905Y-67639603D01*
X157978597Y-67790034D01*
X157978594Y-67790047D01*
X157949501Y-68011033D01*
X157949500Y-68011049D01*
X155020734Y-68011049D01*
X154979293Y-67892617D01*
X154945940Y-67847425D01*
X154898650Y-67783349D01*
X154813149Y-67720247D01*
X154789383Y-67702707D01*
X154789381Y-67702706D01*
X154661201Y-67657853D01*
X154630771Y-67655000D01*
X154630767Y-67655000D01*
X154194500Y-67655000D01*
X154127461Y-67635315D01*
X154081706Y-67582511D01*
X154070500Y-67531000D01*
X154070500Y-64650693D01*
X154070500Y-64650691D01*
X154039799Y-64536114D01*
X154001204Y-64469266D01*
X153980489Y-64433386D01*
X153586819Y-64039716D01*
X153553334Y-63978393D01*
X153550500Y-63952035D01*
X153550500Y-63410730D01*
X153547646Y-63380300D01*
X153547646Y-63380298D01*
X153502793Y-63252119D01*
X153502792Y-63252117D01*
X153422150Y-63142850D01*
X153350866Y-63090240D01*
X153308615Y-63034592D01*
X153300500Y-62990470D01*
X153300500Y-62308219D01*
X153320185Y-62241180D01*
X153350863Y-62208451D01*
X153427150Y-62152150D01*
X153507793Y-62042882D01*
X153533823Y-61968493D01*
X153552646Y-61914701D01*
X153552646Y-61914699D01*
X153555500Y-61884269D01*
X153555500Y-61522747D01*
X157949500Y-61522747D01*
X157949500Y-64562252D01*
X157961131Y-64620729D01*
X157961132Y-64620730D01*
X158005447Y-64687052D01*
X158071769Y-64731367D01*
X158071770Y-64731368D01*
X158130247Y-64742999D01*
X158130250Y-64743000D01*
X158130252Y-64743000D01*
X161169750Y-64743000D01*
X161169751Y-64742999D01*
X161184568Y-64740052D01*
X161228229Y-64731368D01*
X161228229Y-64731367D01*
X161228231Y-64731367D01*
X161294552Y-64687052D01*
X161338867Y-64620731D01*
X161338867Y-64620729D01*
X161338868Y-64620729D01*
X161350499Y-64562252D01*
X161350500Y-64562250D01*
X161350500Y-61522749D01*
X161350499Y-61522747D01*
X161338868Y-61464270D01*
X161338867Y-61464269D01*
X161294552Y-61397947D01*
X161228230Y-61353632D01*
X161228229Y-61353631D01*
X161169752Y-61342000D01*
X161169748Y-61342000D01*
X158130252Y-61342000D01*
X158130247Y-61342000D01*
X158071770Y-61353631D01*
X158071769Y-61353632D01*
X158005447Y-61397947D01*
X157961132Y-61464269D01*
X157961131Y-61464270D01*
X157949500Y-61522747D01*
X153555500Y-61522747D01*
X153555500Y-60825730D01*
X153552646Y-60795300D01*
X153552646Y-60795298D01*
X153517098Y-60693711D01*
X153507793Y-60667118D01*
X153427150Y-60557850D01*
X153355866Y-60505240D01*
X153313615Y-60449592D01*
X153305500Y-60405470D01*
X153305500Y-60129250D01*
X153325185Y-60062211D01*
X153373205Y-60018765D01*
X153408220Y-60000925D01*
X153503528Y-59905617D01*
X153564719Y-59785523D01*
X153578151Y-59700719D01*
X153580500Y-59685890D01*
X153580500Y-59118903D01*
X153564720Y-59019275D01*
X153564719Y-59019273D01*
X153564719Y-59019271D01*
X153503528Y-58899177D01*
X153503526Y-58899175D01*
X153503523Y-58899171D01*
X153416819Y-58812467D01*
X153383334Y-58751144D01*
X153380500Y-58724786D01*
X153380500Y-58364651D01*
X153400185Y-58297612D01*
X153416819Y-58276969D01*
X153418339Y-58275448D01*
X153418342Y-58275447D01*
X153508050Y-58185739D01*
X153565646Y-58072701D01*
X153565646Y-58072699D01*
X153565647Y-58072698D01*
X153580499Y-57978921D01*
X153580500Y-57978916D01*
X153580499Y-57365879D01*
X153565646Y-57272093D01*
X153508050Y-57159055D01*
X153508046Y-57159051D01*
X153508045Y-57159049D01*
X153466819Y-57117823D01*
X153433334Y-57056500D01*
X153430500Y-57030142D01*
X153430500Y-55903090D01*
X153430500Y-55903088D01*
X153414617Y-55843814D01*
X158389500Y-55843814D01*
X158389500Y-56086391D01*
X158418096Y-56303608D01*
X158421162Y-56326892D01*
X158483946Y-56561203D01*
X158576776Y-56785315D01*
X158698064Y-56995392D01*
X158698066Y-56995395D01*
X158698067Y-56995396D01*
X158845733Y-57187839D01*
X158845739Y-57187846D01*
X159017256Y-57359363D01*
X159017262Y-57359368D01*
X159209711Y-57507039D01*
X159419788Y-57628327D01*
X159643900Y-57721157D01*
X159878211Y-57783941D01*
X160058586Y-57807687D01*
X160118711Y-57815603D01*
X160118712Y-57815603D01*
X160361289Y-57815603D01*
X160419822Y-57807897D01*
X160601789Y-57783941D01*
X160836100Y-57721157D01*
X161060212Y-57628327D01*
X161270289Y-57507039D01*
X161462738Y-57359368D01*
X161634265Y-57187841D01*
X161781936Y-56995392D01*
X161903224Y-56785315D01*
X161996054Y-56561203D01*
X162058838Y-56326892D01*
X162090500Y-56086391D01*
X162090500Y-55843815D01*
X162058838Y-55603314D01*
X161996054Y-55369003D01*
X161903224Y-55144891D01*
X161781936Y-54934814D01*
X161634265Y-54742365D01*
X161634260Y-54742359D01*
X161462743Y-54570842D01*
X161462736Y-54570836D01*
X161270293Y-54423170D01*
X161270292Y-54423169D01*
X161270289Y-54423167D01*
X161060212Y-54301879D01*
X161060205Y-54301876D01*
X160836104Y-54209050D01*
X160601785Y-54146264D01*
X160361289Y-54114603D01*
X160361288Y-54114603D01*
X160118712Y-54114603D01*
X160118711Y-54114603D01*
X159878214Y-54146264D01*
X159643895Y-54209050D01*
X159419794Y-54301876D01*
X159419785Y-54301880D01*
X159307154Y-54366908D01*
X159210252Y-54422855D01*
X159209706Y-54423170D01*
X159017263Y-54570836D01*
X159017256Y-54570842D01*
X158845739Y-54742359D01*
X158845733Y-54742366D01*
X158698067Y-54934809D01*
X158576777Y-55144888D01*
X158576773Y-55144897D01*
X158483947Y-55368998D01*
X158421161Y-55603317D01*
X158389500Y-55843814D01*
X153414617Y-55843814D01*
X153399799Y-55788511D01*
X153392596Y-55776035D01*
X153374731Y-55745091D01*
X153340493Y-55685789D01*
X153340487Y-55685781D01*
X153337169Y-55682463D01*
X153303684Y-55621140D01*
X153301914Y-55610988D01*
X153299499Y-55592637D01*
X153252850Y-55492598D01*
X153174799Y-55414547D01*
X153074760Y-55367898D01*
X153074758Y-55367897D01*
X153029188Y-55361898D01*
X153029185Y-55361897D01*
X153029179Y-55361897D01*
X153029172Y-55361897D01*
X152730819Y-55361897D01*
X152685243Y-55367897D01*
X152685236Y-55367899D01*
X152585200Y-55414547D01*
X152507150Y-55492597D01*
X152502338Y-55502917D01*
X152463473Y-55586265D01*
X152456492Y-55601235D01*
X152454201Y-55600166D01*
X152424078Y-55647237D01*
X152360578Y-55676384D01*
X152291401Y-55666573D01*
X152259068Y-55644169D01*
X152258830Y-55644456D01*
X152258818Y-55644446D01*
X152256776Y-55642581D01*
X152255015Y-55641361D01*
X152250543Y-55636889D01*
X152250520Y-55636868D01*
X151876446Y-55262793D01*
X151842961Y-55201470D01*
X151840127Y-55175112D01*
X151840127Y-54800682D01*
X151840127Y-54800680D01*
X151817945Y-54717895D01*
X151817945Y-54717894D01*
X151775092Y-54643671D01*
X149452140Y-52320719D01*
X150600001Y-52320719D01*
X150610144Y-52420004D01*
X150663452Y-52580878D01*
X150663457Y-52580889D01*
X150752424Y-52725125D01*
X150752427Y-52725129D01*
X150872267Y-52844969D01*
X150872271Y-52844972D01*
X151016507Y-52933939D01*
X151016518Y-52933944D01*
X151177393Y-52987252D01*
X151276683Y-52997396D01*
X151300000Y-52997395D01*
X151300000Y-52272397D01*
X150600001Y-52272397D01*
X150600001Y-52320719D01*
X149452140Y-52320719D01*
X148855495Y-51724074D01*
X150600000Y-51724074D01*
X150600000Y-51772397D01*
X151300000Y-51772397D01*
X151300000Y-51047397D01*
X151800000Y-51047397D01*
X151800000Y-52997396D01*
X151823308Y-52997396D01*
X151823322Y-52997395D01*
X151922607Y-52987252D01*
X152083481Y-52933944D01*
X152083492Y-52933939D01*
X152227724Y-52844974D01*
X152228586Y-52844294D01*
X152229288Y-52844010D01*
X152233879Y-52841179D01*
X152234362Y-52841963D01*
X152293381Y-52818152D01*
X152362023Y-52831190D01*
X152412720Y-52879269D01*
X152429500Y-52941558D01*
X152429500Y-53821707D01*
X152450275Y-53899242D01*
X152454500Y-53931332D01*
X152454500Y-53986576D01*
X152460500Y-54032153D01*
X152460502Y-54032160D01*
X152467129Y-54046371D01*
X152507150Y-54132196D01*
X152585201Y-54210247D01*
X152685240Y-54256896D01*
X152730821Y-54262897D01*
X153029178Y-54262896D01*
X153029180Y-54262896D01*
X153044372Y-54260896D01*
X153074760Y-54256896D01*
X153174799Y-54210247D01*
X153252850Y-54132196D01*
X153299499Y-54032157D01*
X153305500Y-53986576D01*
X153305499Y-53931330D01*
X153309724Y-53899237D01*
X153330500Y-53821706D01*
X153330500Y-52808236D01*
X153350185Y-52741197D01*
X153402989Y-52695442D01*
X153435099Y-52685762D01*
X153458126Y-52682116D01*
X153578220Y-52620925D01*
X153673528Y-52525617D01*
X153734719Y-52405523D01*
X153748151Y-52320719D01*
X153750500Y-52305890D01*
X153750500Y-51738903D01*
X153734720Y-51639275D01*
X153734719Y-51639273D01*
X153734719Y-51639271D01*
X153673528Y-51519177D01*
X153673526Y-51519175D01*
X153673523Y-51519171D01*
X153586819Y-51432467D01*
X153553334Y-51371144D01*
X153550500Y-51344786D01*
X153550500Y-50594136D01*
X153570185Y-50527097D01*
X153605607Y-50491035D01*
X153695908Y-50430699D01*
X153828302Y-50298305D01*
X153932322Y-50142628D01*
X154003973Y-49969648D01*
X154040500Y-49786013D01*
X154040500Y-49598781D01*
X154003973Y-49415146D01*
X153932322Y-49242166D01*
X153932321Y-49242165D01*
X153932318Y-49242159D01*
X153828302Y-49086489D01*
X153828299Y-49086485D01*
X153695911Y-48954097D01*
X153695907Y-48954094D01*
X153668943Y-48936077D01*
X153668894Y-48936045D01*
X153595608Y-48887076D01*
X153555456Y-48839030D01*
X159649500Y-48839030D01*
X159649500Y-49045969D01*
X159689868Y-49248912D01*
X159689870Y-49248920D01*
X159763054Y-49425602D01*
X159769059Y-49440098D01*
X159816263Y-49510744D01*
X159884024Y-49612157D01*
X160030342Y-49758475D01*
X160030345Y-49758477D01*
X160202402Y-49873441D01*
X160393580Y-49952630D01*
X160538052Y-49981367D01*
X160596530Y-49992999D01*
X160596534Y-49993000D01*
X160596535Y-49993000D01*
X160803466Y-49993000D01*
X160803467Y-49992999D01*
X161006420Y-49952630D01*
X161197598Y-49873441D01*
X161369655Y-49758477D01*
X161515977Y-49612155D01*
X161630941Y-49440098D01*
X161710130Y-49248920D01*
X161750500Y-49045965D01*
X161750500Y-48839035D01*
X161710130Y-48636080D01*
X161630941Y-48444902D01*
X161515977Y-48272845D01*
X161515975Y-48272842D01*
X161369657Y-48126524D01*
X161201655Y-48014270D01*
X161197598Y-48011559D01*
X161175032Y-48002212D01*
X161006420Y-47932370D01*
X161006412Y-47932368D01*
X160803469Y-47892000D01*
X160803465Y-47892000D01*
X160596535Y-47892000D01*
X160596530Y-47892000D01*
X160393587Y-47932368D01*
X160393579Y-47932370D01*
X160202403Y-48011558D01*
X160030342Y-48126524D01*
X159884024Y-48272842D01*
X159769058Y-48444903D01*
X159689870Y-48636079D01*
X159689868Y-48636087D01*
X159649500Y-48839030D01*
X153555456Y-48839030D01*
X153550804Y-48833463D01*
X153540500Y-48783974D01*
X153540500Y-46299030D01*
X159649500Y-46299030D01*
X159649500Y-46505969D01*
X159689868Y-46708912D01*
X159689870Y-46708920D01*
X159744372Y-46840500D01*
X159769059Y-46900098D01*
X159778955Y-46914908D01*
X159884024Y-47072157D01*
X160030342Y-47218475D01*
X160030345Y-47218477D01*
X160202402Y-47333441D01*
X160393580Y-47412630D01*
X160596530Y-47452999D01*
X160596534Y-47453000D01*
X160596535Y-47453000D01*
X160803466Y-47453000D01*
X160803467Y-47452999D01*
X161006420Y-47412630D01*
X161197598Y-47333441D01*
X161369655Y-47218477D01*
X161515977Y-47072155D01*
X161630941Y-46900098D01*
X161710130Y-46708920D01*
X161750500Y-46505965D01*
X161750500Y-46299035D01*
X161710130Y-46096080D01*
X161630941Y-45904902D01*
X161515977Y-45732845D01*
X161515975Y-45732842D01*
X161369657Y-45586524D01*
X161257564Y-45511627D01*
X161197598Y-45471559D01*
X161171237Y-45460640D01*
X161006420Y-45392370D01*
X161006412Y-45392368D01*
X160803469Y-45352000D01*
X160803465Y-45352000D01*
X160596535Y-45352000D01*
X160596530Y-45352000D01*
X160393587Y-45392368D01*
X160393579Y-45392370D01*
X160202403Y-45471558D01*
X160030342Y-45586524D01*
X159884024Y-45732842D01*
X159769058Y-45904903D01*
X159689870Y-46096079D01*
X159689868Y-46096087D01*
X159649500Y-46299030D01*
X153540500Y-46299030D01*
X153540500Y-43759030D01*
X159649500Y-43759030D01*
X159649500Y-43965969D01*
X159689868Y-44168912D01*
X159689870Y-44168920D01*
X159702332Y-44199007D01*
X159769059Y-44360098D01*
X159792477Y-44395146D01*
X159884024Y-44532157D01*
X160030342Y-44678475D01*
X160030345Y-44678477D01*
X160202402Y-44793441D01*
X160393580Y-44872630D01*
X160596530Y-44912999D01*
X160596534Y-44913000D01*
X160596535Y-44913000D01*
X160803466Y-44913000D01*
X160803467Y-44912999D01*
X161006420Y-44872630D01*
X161197598Y-44793441D01*
X161369655Y-44678477D01*
X161515977Y-44532155D01*
X161630941Y-44360098D01*
X161710130Y-44168920D01*
X161750500Y-43965965D01*
X161750500Y-43759035D01*
X161710130Y-43556080D01*
X161630941Y-43364902D01*
X161515977Y-43192845D01*
X161515975Y-43192842D01*
X161369657Y-43046524D01*
X161229642Y-42952970D01*
X161197598Y-42931559D01*
X161006420Y-42852370D01*
X161006412Y-42852368D01*
X160803469Y-42812000D01*
X160803465Y-42812000D01*
X160596535Y-42812000D01*
X160596530Y-42812000D01*
X160393587Y-42852368D01*
X160393579Y-42852370D01*
X160202403Y-42931558D01*
X160030342Y-43046524D01*
X159884024Y-43192842D01*
X159769058Y-43364903D01*
X159689870Y-43556079D01*
X159689868Y-43556087D01*
X159649500Y-43759030D01*
X153540500Y-43759030D01*
X153540500Y-41219030D01*
X159649500Y-41219030D01*
X159649500Y-41425969D01*
X159689868Y-41628912D01*
X159689870Y-41628920D01*
X159769058Y-41820096D01*
X159884024Y-41992157D01*
X160030342Y-42138475D01*
X160030345Y-42138477D01*
X160202402Y-42253441D01*
X160393580Y-42332630D01*
X160596530Y-42372999D01*
X160596534Y-42373000D01*
X160596535Y-42373000D01*
X160803466Y-42373000D01*
X160803467Y-42372999D01*
X161006420Y-42332630D01*
X161197598Y-42253441D01*
X161369655Y-42138477D01*
X161515977Y-41992155D01*
X161630941Y-41820098D01*
X161710130Y-41628920D01*
X161750500Y-41425965D01*
X161750500Y-41219035D01*
X161710130Y-41016080D01*
X161630941Y-40824902D01*
X161515977Y-40652845D01*
X161515975Y-40652842D01*
X161369657Y-40506524D01*
X161283626Y-40449041D01*
X161197598Y-40391559D01*
X161006420Y-40312370D01*
X161006412Y-40312368D01*
X160803469Y-40272000D01*
X160803465Y-40272000D01*
X160596535Y-40272000D01*
X160596530Y-40272000D01*
X160393587Y-40312368D01*
X160393579Y-40312370D01*
X160202403Y-40391558D01*
X160030342Y-40506524D01*
X159884024Y-40652842D01*
X159769058Y-40824903D01*
X159689870Y-41016079D01*
X159689868Y-41016087D01*
X159649500Y-41219030D01*
X153540500Y-41219030D01*
X153540500Y-36270464D01*
X153549144Y-36241023D01*
X153555668Y-36211037D01*
X153559422Y-36206021D01*
X153560185Y-36203425D01*
X153576814Y-36182788D01*
X153623349Y-36136253D01*
X159350000Y-36136253D01*
X159350000Y-36348746D01*
X159383242Y-36558627D01*
X159383242Y-36558630D01*
X159448904Y-36760717D01*
X159545375Y-36950050D01*
X159584728Y-37004216D01*
X160217037Y-36371908D01*
X160234075Y-36435493D01*
X160299901Y-36549507D01*
X160392993Y-36642599D01*
X160507007Y-36708425D01*
X160570590Y-36725462D01*
X159938282Y-37357769D01*
X159938282Y-37357770D01*
X159992449Y-37397124D01*
X160181782Y-37493595D01*
X160357973Y-37550843D01*
X160415648Y-37590280D01*
X160442847Y-37654639D01*
X160430932Y-37723485D01*
X160383688Y-37774961D01*
X160367108Y-37783335D01*
X160202403Y-37851557D01*
X160030342Y-37966524D01*
X159884024Y-38112842D01*
X159769058Y-38284903D01*
X159689870Y-38476079D01*
X159689868Y-38476087D01*
X159649500Y-38679030D01*
X159649500Y-38885969D01*
X159689868Y-39088912D01*
X159689870Y-39088920D01*
X159730724Y-39187551D01*
X159769059Y-39280098D01*
X159825120Y-39364000D01*
X159884024Y-39452157D01*
X160030342Y-39598475D01*
X160030345Y-39598477D01*
X160202402Y-39713441D01*
X160393580Y-39792630D01*
X160571107Y-39827942D01*
X160596530Y-39832999D01*
X160596534Y-39833000D01*
X160596535Y-39833000D01*
X160803466Y-39833000D01*
X160803467Y-39832999D01*
X161006420Y-39792630D01*
X161197598Y-39713441D01*
X161369655Y-39598477D01*
X161515977Y-39452155D01*
X161630941Y-39280098D01*
X161710130Y-39088920D01*
X161750500Y-38885965D01*
X161750500Y-38679035D01*
X161710130Y-38476080D01*
X161630941Y-38284902D01*
X161515977Y-38112845D01*
X161515975Y-38112842D01*
X161369657Y-37966524D01*
X161217817Y-37865069D01*
X161197598Y-37851559D01*
X161197593Y-37851557D01*
X161135891Y-37825999D01*
X161032890Y-37783334D01*
X160978488Y-37739494D01*
X160956423Y-37673200D01*
X160973702Y-37605501D01*
X161024839Y-37557890D01*
X161042026Y-37550843D01*
X161218217Y-37493595D01*
X161407554Y-37397122D01*
X161461716Y-37357770D01*
X161461717Y-37357770D01*
X160829408Y-36725462D01*
X160892993Y-36708425D01*
X161007007Y-36642599D01*
X161100099Y-36549507D01*
X161165925Y-36435493D01*
X161182962Y-36371909D01*
X161815270Y-37004217D01*
X161815270Y-37004216D01*
X161854622Y-36950054D01*
X161951095Y-36760717D01*
X162016757Y-36558630D01*
X162016757Y-36558627D01*
X162050000Y-36348746D01*
X162050000Y-36136253D01*
X162016757Y-35926372D01*
X162016757Y-35926369D01*
X161951095Y-35724282D01*
X161854624Y-35534949D01*
X161815270Y-35480782D01*
X161815269Y-35480782D01*
X161182962Y-36113090D01*
X161165925Y-36049507D01*
X161100099Y-35935493D01*
X161007007Y-35842401D01*
X160892993Y-35776575D01*
X160829409Y-35759537D01*
X161461716Y-35127228D01*
X161407550Y-35087875D01*
X161213879Y-34989194D01*
X161214396Y-34988178D01*
X161164192Y-34947721D01*
X161142127Y-34881427D01*
X161159406Y-34813728D01*
X161210542Y-34766117D01*
X161266048Y-34753000D01*
X161569750Y-34753000D01*
X161569751Y-34752999D01*
X161584568Y-34750052D01*
X161628229Y-34741368D01*
X161628229Y-34741367D01*
X161628231Y-34741367D01*
X161694552Y-34697052D01*
X161738867Y-34630731D01*
X161738867Y-34630729D01*
X161738868Y-34630729D01*
X161750499Y-34572252D01*
X161750500Y-34572250D01*
X161750500Y-32832749D01*
X161750499Y-32832747D01*
X161738868Y-32774270D01*
X161738867Y-32774269D01*
X161694552Y-32707947D01*
X161628230Y-32663632D01*
X161628229Y-32663631D01*
X161569752Y-32652000D01*
X161569748Y-32652000D01*
X159830252Y-32652000D01*
X159830247Y-32652000D01*
X159771770Y-32663631D01*
X159771769Y-32663632D01*
X159705447Y-32707947D01*
X159661132Y-32774269D01*
X159661131Y-32774270D01*
X159649500Y-32832747D01*
X159649500Y-34572252D01*
X159661131Y-34630729D01*
X159661132Y-34630730D01*
X159705447Y-34697052D01*
X159771769Y-34741367D01*
X159771770Y-34741368D01*
X159830247Y-34752999D01*
X159830250Y-34753000D01*
X160133952Y-34753000D01*
X160200991Y-34772685D01*
X160246746Y-34825489D01*
X160256690Y-34894647D01*
X160227665Y-34958203D01*
X160185735Y-34988438D01*
X160186121Y-34989194D01*
X159992439Y-35087880D01*
X159938282Y-35127227D01*
X159938282Y-35127228D01*
X160570591Y-35759537D01*
X160507007Y-35776575D01*
X160392993Y-35842401D01*
X160299901Y-35935493D01*
X160234075Y-36049507D01*
X160217037Y-36113091D01*
X159584728Y-35480782D01*
X159584727Y-35480782D01*
X159545380Y-35534939D01*
X159448904Y-35724282D01*
X159383242Y-35926369D01*
X159383242Y-35926372D01*
X159350000Y-36136253D01*
X153623349Y-36136253D01*
X155498989Y-34260612D01*
X155546222Y-34233345D01*
X155545668Y-34232006D01*
X155553176Y-34228894D01*
X155553186Y-34228892D01*
X155667314Y-34163000D01*
X155760500Y-34069814D01*
X155826392Y-33955686D01*
X155860500Y-33828392D01*
X155860500Y-33696608D01*
X155826392Y-33569314D01*
X155760500Y-33455186D01*
X155667314Y-33362000D01*
X155610250Y-33329054D01*
X155553187Y-33296108D01*
X155489539Y-33279054D01*
X155425892Y-33262000D01*
X155294108Y-33262000D01*
X155166812Y-33296108D01*
X155052686Y-33362000D01*
X155052683Y-33362002D01*
X154959502Y-33455183D01*
X154959500Y-33455186D01*
X154893607Y-33569314D01*
X154890500Y-33576818D01*
X154889166Y-33576265D01*
X154861887Y-33623508D01*
X152729513Y-35755883D01*
X152729509Y-35755889D01*
X152670201Y-35858612D01*
X152670200Y-35858617D01*
X152639500Y-35973191D01*
X152639500Y-44918030D01*
X152619815Y-44985069D01*
X152567011Y-45030824D01*
X152516131Y-45039816D01*
X151823553Y-45732396D01*
X151823553Y-45732398D01*
X152516568Y-46425413D01*
X152574148Y-46437509D01*
X152623905Y-46486560D01*
X152639500Y-46546763D01*
X152639500Y-48783974D01*
X152619815Y-48851013D01*
X152584391Y-48887076D01*
X152484092Y-48954094D01*
X152484088Y-48954097D01*
X152351700Y-49086485D01*
X152351697Y-49086489D01*
X152247681Y-49242159D01*
X152247676Y-49242168D01*
X152176027Y-49415145D01*
X152176025Y-49415153D01*
X152139500Y-49598776D01*
X152139500Y-49786017D01*
X152176025Y-49969640D01*
X152176027Y-49969648D01*
X152247676Y-50142625D01*
X152247681Y-50142634D01*
X152351697Y-50298304D01*
X152351700Y-50298308D01*
X152484089Y-50430697D01*
X152484092Y-50430699D01*
X152594391Y-50504398D01*
X152639196Y-50558009D01*
X152649500Y-50607500D01*
X152649500Y-51344786D01*
X152629815Y-51411825D01*
X152613181Y-51432467D01*
X152602827Y-51442821D01*
X152541504Y-51476306D01*
X152471812Y-51471322D01*
X152415879Y-51429450D01*
X152409608Y-51420238D01*
X152347573Y-51319665D01*
X152227732Y-51199824D01*
X152227728Y-51199821D01*
X152083492Y-51110854D01*
X152083481Y-51110849D01*
X151922606Y-51057541D01*
X151823322Y-51047397D01*
X151800000Y-51047397D01*
X151300000Y-51047397D01*
X151300000Y-51047396D01*
X151276693Y-51047397D01*
X151276674Y-51047398D01*
X151177392Y-51057541D01*
X151016518Y-51110849D01*
X151016507Y-51110854D01*
X150872271Y-51199821D01*
X150872267Y-51199824D01*
X150752427Y-51319664D01*
X150752424Y-51319668D01*
X150663457Y-51463904D01*
X150663452Y-51463915D01*
X150610144Y-51624790D01*
X150600000Y-51724074D01*
X148855495Y-51724074D01*
X148665998Y-51534577D01*
X148632513Y-51473254D01*
X148637497Y-51403562D01*
X148679369Y-51347629D01*
X148744833Y-51323212D01*
X148753664Y-51322896D01*
X149076518Y-51322896D01*
X149170304Y-51308043D01*
X149283342Y-51250447D01*
X149373050Y-51160739D01*
X149430646Y-51047701D01*
X149430646Y-51047699D01*
X149430647Y-51047698D01*
X149441282Y-50980544D01*
X149445500Y-50953916D01*
X149445499Y-50558584D01*
X149465183Y-50491546D01*
X149481813Y-50470909D01*
X149830465Y-50122259D01*
X149873318Y-50048036D01*
X149895500Y-49965250D01*
X149895500Y-49879544D01*
X149895500Y-48606540D01*
X149878836Y-48544347D01*
X149873318Y-48523754D01*
X149846265Y-48476897D01*
X149830465Y-48449531D01*
X149769862Y-48388928D01*
X149769860Y-48388926D01*
X149467866Y-48086932D01*
X149430754Y-48065505D01*
X149393644Y-48044079D01*
X149352250Y-48032988D01*
X149310857Y-48021897D01*
X149310856Y-48021897D01*
X149073310Y-48021897D01*
X149006271Y-48002212D01*
X148960516Y-47949408D01*
X148950572Y-47880250D01*
X148966578Y-47834776D01*
X148973782Y-47822593D01*
X148973783Y-47822590D01*
X149019599Y-47664892D01*
X149019600Y-47664886D01*
X149022499Y-47628046D01*
X149022500Y-47628031D01*
X149022500Y-46987397D01*
X148346500Y-46987397D01*
X148337814Y-46984846D01*
X148328853Y-46986135D01*
X148304812Y-46975156D01*
X148279461Y-46967712D01*
X148273533Y-46960871D01*
X148265297Y-46957110D01*
X148251007Y-46934875D01*
X148233706Y-46914908D01*
X148231418Y-46904393D01*
X148227523Y-46898332D01*
X148222500Y-46863397D01*
X148222500Y-46776074D01*
X150779873Y-46776074D01*
X150779873Y-46776075D01*
X150814858Y-46801493D01*
X150990164Y-46890815D01*
X151177294Y-46951618D01*
X151371618Y-46982397D01*
X151568382Y-46982397D01*
X151762705Y-46951618D01*
X151949835Y-46890815D01*
X152125143Y-46801492D01*
X152160125Y-46776075D01*
X152160126Y-46776075D01*
X151470001Y-46085950D01*
X151470000Y-46085950D01*
X150779873Y-46776074D01*
X148222500Y-46776074D01*
X148222500Y-46737397D01*
X148096500Y-46737397D01*
X148029461Y-46717712D01*
X147983706Y-46664908D01*
X147972500Y-46613397D01*
X147972500Y-46487397D01*
X148472500Y-46487397D01*
X149022500Y-46487397D01*
X149022500Y-45846762D01*
X149022499Y-45846747D01*
X149019600Y-45809907D01*
X149019599Y-45809901D01*
X148977136Y-45663743D01*
X148977136Y-45663742D01*
X148977135Y-45663740D01*
X148973782Y-45652201D01*
X148973782Y-45652200D01*
X148963027Y-45634014D01*
X150220000Y-45634014D01*
X150220000Y-45830779D01*
X150250778Y-46025102D01*
X150311581Y-46212232D01*
X150400905Y-46387542D01*
X150426319Y-46422522D01*
X150426320Y-46422522D01*
X151116446Y-45732397D01*
X151116446Y-45732396D01*
X150426320Y-45042269D01*
X150426320Y-45042270D01*
X150400902Y-45077256D01*
X150400899Y-45077260D01*
X150311582Y-45252558D01*
X150250778Y-45439691D01*
X150220000Y-45634014D01*
X148963027Y-45634014D01*
X148890185Y-45510844D01*
X148890178Y-45510835D01*
X148774061Y-45394718D01*
X148774052Y-45394711D01*
X148632696Y-45311114D01*
X148632693Y-45311113D01*
X148474994Y-45265297D01*
X148474997Y-45265297D01*
X148472500Y-45265100D01*
X148472500Y-46487397D01*
X147972500Y-46487397D01*
X147972500Y-45265100D01*
X147970004Y-45265297D01*
X147812306Y-45311113D01*
X147812294Y-45311118D01*
X147785215Y-45327132D01*
X147717491Y-45344312D01*
X147651229Y-45322150D01*
X147634417Y-45308079D01*
X147503272Y-45176934D01*
X147503270Y-45176932D01*
X147466156Y-45155504D01*
X147429048Y-45134079D01*
X147386299Y-45122625D01*
X147346261Y-45111897D01*
X144780354Y-45111897D01*
X144694648Y-45111897D01*
X144611862Y-45134079D01*
X144611859Y-45134080D01*
X144574751Y-45155504D01*
X144574751Y-45155505D01*
X144540693Y-45175169D01*
X144537639Y-45176932D01*
X144484105Y-45230466D01*
X144484104Y-45230465D01*
X144146288Y-45568282D01*
X144145475Y-45567469D01*
X144109006Y-45597293D01*
X144056019Y-45623196D01*
X144056016Y-45623198D01*
X143973303Y-45705911D01*
X143921926Y-45811005D01*
X143912000Y-45879136D01*
X143912000Y-46162897D01*
X143892315Y-46229936D01*
X143839511Y-46275691D01*
X143788000Y-46286897D01*
X142934500Y-46286897D01*
X142867461Y-46267212D01*
X142821706Y-46214408D01*
X142810500Y-46162897D01*
X142810500Y-45387469D01*
X142830185Y-45320430D01*
X142846815Y-45299791D01*
X142868302Y-45278305D01*
X142972322Y-45122628D01*
X143043973Y-44949648D01*
X143080500Y-44766013D01*
X143080500Y-44688717D01*
X150779872Y-44688717D01*
X151470000Y-45378843D01*
X151470001Y-45378843D01*
X152160125Y-44688717D01*
X152160125Y-44688716D01*
X152125145Y-44663302D01*
X151949835Y-44573978D01*
X151762705Y-44513175D01*
X151568382Y-44482397D01*
X151371618Y-44482397D01*
X151177294Y-44513175D01*
X150990161Y-44573979D01*
X150814863Y-44663296D01*
X150814859Y-44663299D01*
X150779873Y-44688717D01*
X150779872Y-44688717D01*
X143080500Y-44688717D01*
X143080500Y-44578781D01*
X143043973Y-44395146D01*
X142972322Y-44222166D01*
X142972321Y-44222165D01*
X142972318Y-44222159D01*
X142868302Y-44066489D01*
X142868299Y-44066485D01*
X142735911Y-43934097D01*
X142735907Y-43934094D01*
X142580237Y-43830078D01*
X142580228Y-43830073D01*
X142407251Y-43758424D01*
X142407243Y-43758422D01*
X142223620Y-43721897D01*
X142223616Y-43721897D01*
X142036384Y-43721897D01*
X141978689Y-43733372D01*
X141909097Y-43727143D01*
X141853921Y-43684279D01*
X141830678Y-43618388D01*
X141830500Y-43611754D01*
X141830500Y-39415361D01*
X141850185Y-39348322D01*
X141866815Y-39327684D01*
X142020320Y-39174179D01*
X142081642Y-39140695D01*
X142151334Y-39145679D01*
X142207267Y-39187551D01*
X142231684Y-39253015D01*
X142232000Y-39261861D01*
X142232000Y-39531414D01*
X142235164Y-39551388D01*
X142246854Y-39625201D01*
X142304450Y-39738239D01*
X142304452Y-39738241D01*
X142304454Y-39738244D01*
X142394152Y-39827942D01*
X142394154Y-39827943D01*
X142394158Y-39827947D01*
X142507194Y-39885542D01*
X142507198Y-39885544D01*
X142600975Y-39900396D01*
X142600981Y-39900397D01*
X143214018Y-39900396D01*
X143307804Y-39885543D01*
X143420842Y-39827947D01*
X143510550Y-39738239D01*
X143533549Y-39693100D01*
X143581523Y-39642306D01*
X143644033Y-39625397D01*
X143963467Y-39625397D01*
X144030506Y-39645082D01*
X144073950Y-39693100D01*
X144096950Y-39738239D01*
X144096952Y-39738241D01*
X144096954Y-39738244D01*
X144186652Y-39827942D01*
X144186656Y-39827945D01*
X144186658Y-39827947D01*
X144299696Y-39885543D01*
X144299699Y-39885543D01*
X144306795Y-39889159D01*
X144357591Y-39937133D01*
X144374500Y-39999644D01*
X144374500Y-40487897D01*
X144354815Y-40554936D01*
X144302011Y-40600691D01*
X144250500Y-40611897D01*
X144229239Y-40611897D01*
X144161108Y-40621823D01*
X144056014Y-40673200D01*
X143973303Y-40755911D01*
X143921926Y-40861005D01*
X143912000Y-40929136D01*
X143912000Y-42645657D01*
X143921926Y-42713788D01*
X143973303Y-42818882D01*
X144056014Y-42901593D01*
X144056015Y-42901593D01*
X144056017Y-42901595D01*
X144161107Y-42952970D01*
X144195173Y-42957933D01*
X144229239Y-42962897D01*
X144229240Y-42962897D01*
X144595761Y-42962897D01*
X144618471Y-42959588D01*
X144663893Y-42952970D01*
X144768983Y-42901595D01*
X144851698Y-42818880D01*
X144903073Y-42713790D01*
X144913000Y-42645657D01*
X144913000Y-41798586D01*
X144932685Y-41731547D01*
X144949319Y-41710905D01*
X144966212Y-41694012D01*
X144967386Y-41695186D01*
X145016045Y-41659653D01*
X145085791Y-41655494D01*
X145146713Y-41689703D01*
X145179470Y-41751418D01*
X145182000Y-41776340D01*
X145182000Y-42645657D01*
X145191926Y-42713788D01*
X145243303Y-42818882D01*
X145326014Y-42901593D01*
X145326015Y-42901593D01*
X145326017Y-42901595D01*
X145431107Y-42952970D01*
X145465173Y-42957933D01*
X145499239Y-42962897D01*
X145499240Y-42962897D01*
X145865761Y-42962897D01*
X145888471Y-42959588D01*
X145933893Y-42952970D01*
X146038983Y-42901595D01*
X146121698Y-42818880D01*
X146173073Y-42713790D01*
X146183000Y-42645657D01*
X146183000Y-42236897D01*
X146202685Y-42169858D01*
X146255489Y-42124103D01*
X146307000Y-42112897D01*
X146328000Y-42112897D01*
X146395039Y-42132582D01*
X146440794Y-42185386D01*
X146452000Y-42236897D01*
X146452000Y-42645657D01*
X146461926Y-42713788D01*
X146513303Y-42818882D01*
X146596014Y-42901593D01*
X146596015Y-42901593D01*
X146596017Y-42901595D01*
X146701107Y-42952970D01*
X146735173Y-42957933D01*
X146769239Y-42962897D01*
X146769240Y-42962897D01*
X147135761Y-42962897D01*
X147158471Y-42959588D01*
X147203893Y-42952970D01*
X147308983Y-42901595D01*
X147391698Y-42818880D01*
X147443073Y-42713790D01*
X147453000Y-42645657D01*
X147453000Y-40929137D01*
X147443073Y-40861004D01*
X147391698Y-40755914D01*
X147391696Y-40755912D01*
X147391696Y-40755911D01*
X147314319Y-40678534D01*
X147280834Y-40617211D01*
X147278000Y-40590853D01*
X147278000Y-39732046D01*
X147278000Y-39732044D01*
X147255818Y-39649259D01*
X147251804Y-39642306D01*
X147212969Y-39575041D01*
X147212963Y-39575033D01*
X147189318Y-39551388D01*
X147155833Y-39490065D01*
X147152999Y-39463707D01*
X147152999Y-39068379D01*
X147152998Y-39068372D01*
X147138146Y-38974593D01*
X147090299Y-38880689D01*
X147077404Y-38812023D01*
X147103680Y-38747282D01*
X147160787Y-38707025D01*
X147200785Y-38700397D01*
X147546715Y-38700397D01*
X147613754Y-38720082D01*
X147659509Y-38772886D01*
X147669453Y-38842044D01*
X147657199Y-38880692D01*
X147609354Y-38974590D01*
X147609352Y-38974595D01*
X147594500Y-39068372D01*
X147594500Y-39531414D01*
X147597664Y-39551388D01*
X147609354Y-39625201D01*
X147666950Y-39738239D01*
X147666952Y-39738241D01*
X147666954Y-39738244D01*
X147756652Y-39827942D01*
X147756656Y-39827945D01*
X147756658Y-39827947D01*
X147869696Y-39885543D01*
X147869699Y-39885543D01*
X147876795Y-39889159D01*
X147927591Y-39937133D01*
X147944500Y-39999644D01*
X147944500Y-40557426D01*
X147924815Y-40624465D01*
X147874962Y-40668826D01*
X147866014Y-40673200D01*
X147783303Y-40755911D01*
X147731926Y-40861005D01*
X147722000Y-40929136D01*
X147722000Y-42645657D01*
X147731926Y-42713788D01*
X147783303Y-42818882D01*
X147866014Y-42901593D01*
X147866015Y-42901593D01*
X147866017Y-42901595D01*
X147971107Y-42952970D01*
X148005173Y-42957933D01*
X148039239Y-42962897D01*
X148039240Y-42962897D01*
X148405761Y-42962897D01*
X148428471Y-42959588D01*
X148473893Y-42952970D01*
X148578983Y-42901595D01*
X148661698Y-42818880D01*
X148713073Y-42713790D01*
X148723000Y-42645657D01*
X148723000Y-40929137D01*
X148713073Y-40861004D01*
X148661698Y-40755914D01*
X148661696Y-40755912D01*
X148661696Y-40755911D01*
X148631819Y-40726034D01*
X148598334Y-40664711D01*
X148595500Y-40638353D01*
X148595500Y-39999645D01*
X148615185Y-39932606D01*
X148663205Y-39889160D01*
X148670304Y-39885543D01*
X148783342Y-39827947D01*
X148873050Y-39738239D01*
X148930646Y-39625201D01*
X148930646Y-39625199D01*
X148930647Y-39625198D01*
X148945499Y-39531421D01*
X148945500Y-39531416D01*
X148945499Y-39068379D01*
X148930646Y-38974593D01*
X148873050Y-38861555D01*
X148873046Y-38861551D01*
X148873045Y-38861549D01*
X148783347Y-38771851D01*
X148783344Y-38771849D01*
X148783342Y-38771847D01*
X148706517Y-38732702D01*
X148670301Y-38714249D01*
X148576524Y-38699397D01*
X147980187Y-38699397D01*
X147913148Y-38679712D01*
X147867393Y-38626908D01*
X147857449Y-38557750D01*
X147886474Y-38494194D01*
X147892489Y-38487733D01*
X148093507Y-38286714D01*
X148154830Y-38253230D01*
X148181188Y-38250396D01*
X148576517Y-38250396D01*
X148576518Y-38250396D01*
X148670304Y-38235543D01*
X148783342Y-38177947D01*
X148873050Y-38088239D01*
X148930646Y-37975201D01*
X148930646Y-37975199D01*
X148930647Y-37975198D01*
X148945499Y-37881421D01*
X148945500Y-37881416D01*
X148945499Y-37418379D01*
X148930646Y-37324593D01*
X148873050Y-37211555D01*
X148873046Y-37211551D01*
X148873045Y-37211549D01*
X148783347Y-37121851D01*
X148783344Y-37121849D01*
X148783342Y-37121847D01*
X148670304Y-37064251D01*
X148670303Y-37064250D01*
X148663205Y-37060634D01*
X148612409Y-37012659D01*
X148595500Y-36950149D01*
X148595500Y-35879238D01*
X148615185Y-35812199D01*
X148667989Y-35766444D01*
X148672003Y-35764695D01*
X148720231Y-35744719D01*
X148875908Y-35640699D01*
X149008302Y-35508305D01*
X149112322Y-35352628D01*
X149183973Y-35179648D01*
X149220500Y-34996013D01*
X149220500Y-34808781D01*
X149183973Y-34625146D01*
X149112322Y-34452166D01*
X149112321Y-34452165D01*
X149112318Y-34452159D01*
X149008302Y-34296489D01*
X149008299Y-34296485D01*
X148875911Y-34164097D01*
X148875907Y-34164094D01*
X148720237Y-34060078D01*
X148720228Y-34060073D01*
X148547251Y-33988424D01*
X148547243Y-33988422D01*
X148363620Y-33951897D01*
X148363616Y-33951897D01*
X148176384Y-33951897D01*
X148176379Y-33951897D01*
X147992756Y-33988422D01*
X147992748Y-33988424D01*
X147819771Y-34060073D01*
X147819762Y-34060078D01*
X147664092Y-34164094D01*
X147664088Y-34164097D01*
X147531700Y-34296485D01*
X147531697Y-34296489D01*
X147427681Y-34452159D01*
X147427676Y-34452168D01*
X147356027Y-34625145D01*
X147356025Y-34625153D01*
X147319500Y-34808776D01*
X147319500Y-34996017D01*
X147356025Y-35179640D01*
X147356027Y-35179648D01*
X147427676Y-35352625D01*
X147427681Y-35352634D01*
X147531697Y-35508304D01*
X147531700Y-35508308D01*
X147664088Y-35640696D01*
X147664092Y-35640699D01*
X147819762Y-35744715D01*
X147819766Y-35744717D01*
X147819769Y-35744719D01*
X147867954Y-35764677D01*
X147922355Y-35808517D01*
X147944421Y-35874811D01*
X147944500Y-35879238D01*
X147944500Y-36950149D01*
X147924815Y-37017188D01*
X147876795Y-37060634D01*
X147869696Y-37064250D01*
X147869696Y-37064251D01*
X147756658Y-37121847D01*
X147756657Y-37121848D01*
X147756652Y-37121851D01*
X147666954Y-37211549D01*
X147666950Y-37211555D01*
X147646659Y-37251377D01*
X147598683Y-37302172D01*
X147530862Y-37318966D01*
X147464727Y-37296427D01*
X147421277Y-37241711D01*
X147417790Y-37231970D01*
X147395519Y-37160501D01*
X147307572Y-37015019D01*
X147187377Y-36894824D01*
X147041895Y-36806877D01*
X147041896Y-36806877D01*
X146879605Y-36756306D01*
X146879606Y-36756306D01*
X146809072Y-36749897D01*
X146727500Y-36749897D01*
X146727500Y-37525897D01*
X146707815Y-37592936D01*
X146655011Y-37638691D01*
X146603500Y-37649897D01*
X146351500Y-37649897D01*
X146284461Y-37630212D01*
X146238706Y-37577408D01*
X146227500Y-37525897D01*
X146227500Y-36749897D01*
X146227499Y-36749896D01*
X146145917Y-36749897D01*
X146075397Y-36756305D01*
X146075392Y-36756306D01*
X145913103Y-36806878D01*
X145767622Y-36894824D01*
X145647427Y-37015019D01*
X145559481Y-37160499D01*
X145542901Y-37213706D01*
X145504162Y-37271853D01*
X145440137Y-37299826D01*
X145371152Y-37288744D01*
X145319109Y-37242124D01*
X145314044Y-37233131D01*
X145303050Y-37211555D01*
X145303048Y-37211553D01*
X145303045Y-37211549D01*
X145213347Y-37121851D01*
X145213344Y-37121849D01*
X145213342Y-37121847D01*
X145100304Y-37064251D01*
X145100303Y-37064250D01*
X145093205Y-37060634D01*
X145042409Y-37012659D01*
X145025500Y-36950149D01*
X145025500Y-35879238D01*
X145045185Y-35812199D01*
X145097989Y-35766444D01*
X145102003Y-35764695D01*
X145150231Y-35744719D01*
X145305908Y-35640699D01*
X145438302Y-35508305D01*
X145542322Y-35352628D01*
X145613973Y-35179648D01*
X145650500Y-34996013D01*
X145650500Y-34808781D01*
X145613973Y-34625146D01*
X145542322Y-34452166D01*
X145542321Y-34452165D01*
X145542318Y-34452159D01*
X145438302Y-34296489D01*
X145438299Y-34296485D01*
X145305911Y-34164097D01*
X145305907Y-34164094D01*
X145150237Y-34060078D01*
X145150228Y-34060073D01*
X144977251Y-33988424D01*
X144977243Y-33988422D01*
X144793620Y-33951897D01*
X144793616Y-33951897D01*
X144606384Y-33951897D01*
X144606379Y-33951897D01*
X144422756Y-33988422D01*
X144422748Y-33988424D01*
X144249771Y-34060073D01*
X144249762Y-34060078D01*
X144094092Y-34164094D01*
X144094088Y-34164097D01*
X143961700Y-34296485D01*
X143961697Y-34296489D01*
X143857681Y-34452159D01*
X143857676Y-34452168D01*
X143786027Y-34625145D01*
X143786025Y-34625153D01*
X143749500Y-34808776D01*
X143749500Y-34996017D01*
X143786025Y-35179640D01*
X143786027Y-35179648D01*
X143857676Y-35352625D01*
X143857681Y-35352634D01*
X143961697Y-35508304D01*
X143961700Y-35508308D01*
X144094088Y-35640696D01*
X144094092Y-35640699D01*
X144249762Y-35744715D01*
X144249766Y-35744717D01*
X144249769Y-35744719D01*
X144297954Y-35764677D01*
X144352355Y-35808517D01*
X144374421Y-35874811D01*
X144374500Y-35879238D01*
X144374500Y-36164708D01*
X144354815Y-36231747D01*
X144302011Y-36277502D01*
X144232853Y-36287446D01*
X144169297Y-36258421D01*
X144162819Y-36252389D01*
X144124864Y-36214434D01*
X144124862Y-36214432D01*
X144059464Y-36176674D01*
X144050640Y-36171579D01*
X144009246Y-36160488D01*
X143967853Y-36149397D01*
X142265953Y-36149397D01*
X142180247Y-36149397D01*
X142097461Y-36171579D01*
X142097458Y-36171580D01*
X142060350Y-36193004D01*
X142060350Y-36193005D01*
X142037806Y-36206021D01*
X142023238Y-36214432D01*
X142023235Y-36214434D01*
X137184537Y-41053132D01*
X137184533Y-41053138D01*
X137141681Y-41127358D01*
X137141682Y-41127359D01*
X137119500Y-41210144D01*
X137119500Y-45292147D01*
X137119500Y-45377853D01*
X137122077Y-45387469D01*
X137141682Y-45460640D01*
X137163108Y-45497750D01*
X137184535Y-45534862D01*
X137184537Y-45534864D01*
X138013181Y-46363508D01*
X138046666Y-46424831D01*
X138049500Y-46451189D01*
X138049500Y-46505891D01*
X138083608Y-46633187D01*
X138116554Y-46690250D01*
X138149500Y-46747314D01*
X138242686Y-46840500D01*
X138329834Y-46890815D01*
X138353351Y-46904393D01*
X138356814Y-46906392D01*
X138484108Y-46940500D01*
X138484110Y-46940500D01*
X138615890Y-46940500D01*
X138615892Y-46940500D01*
X138743186Y-46906392D01*
X138857314Y-46840500D01*
X138950500Y-46747314D01*
X138981238Y-46694074D01*
X139860000Y-46694074D01*
X139860000Y-46742397D01*
X140560000Y-46742397D01*
X140560000Y-46017396D01*
X140536693Y-46017397D01*
X140536674Y-46017398D01*
X140437392Y-46027541D01*
X140276518Y-46080849D01*
X140276507Y-46080854D01*
X140132271Y-46169821D01*
X140132267Y-46169824D01*
X140012427Y-46289664D01*
X140012424Y-46289668D01*
X139923457Y-46433904D01*
X139923452Y-46433915D01*
X139870144Y-46594790D01*
X139860000Y-46694074D01*
X138981238Y-46694074D01*
X139016392Y-46633186D01*
X139050500Y-46505892D01*
X139050500Y-46374108D01*
X139016392Y-46246814D01*
X138950500Y-46132686D01*
X138857314Y-46039500D01*
X138800250Y-46006554D01*
X138743187Y-45973608D01*
X138679539Y-45956554D01*
X138615892Y-45939500D01*
X138615891Y-45939500D01*
X138561189Y-45939500D01*
X138494150Y-45919815D01*
X138473508Y-45903181D01*
X137806819Y-45236492D01*
X137773334Y-45175169D01*
X137770500Y-45148811D01*
X137770500Y-44129504D01*
X137790185Y-44062465D01*
X137842989Y-44016710D01*
X137912147Y-44006766D01*
X137926571Y-44009724D01*
X138004108Y-44030500D01*
X138004111Y-44030500D01*
X138135890Y-44030500D01*
X138135892Y-44030500D01*
X138263186Y-43996392D01*
X138377314Y-43930500D01*
X138470500Y-43837314D01*
X138536392Y-43723186D01*
X138570500Y-43595892D01*
X138570500Y-43464108D01*
X138536392Y-43336814D01*
X138470500Y-43222686D01*
X138431819Y-43184005D01*
X138398334Y-43122682D01*
X138395500Y-43096324D01*
X138395500Y-41450581D01*
X138415185Y-41383542D01*
X138431814Y-41362905D01*
X140717819Y-39076899D01*
X140779142Y-39043415D01*
X140848834Y-39048399D01*
X140904767Y-39090271D01*
X140929184Y-39155735D01*
X140929500Y-39164581D01*
X140929500Y-43981706D01*
X140933435Y-43996391D01*
X140952208Y-44066455D01*
X140952215Y-44066478D01*
X140952218Y-44066489D01*
X140960201Y-44096284D01*
X141019511Y-44199011D01*
X141019513Y-44199013D01*
X141169096Y-44348596D01*
X141202581Y-44409919D01*
X141203033Y-44460467D01*
X141180456Y-44573978D01*
X141179500Y-44578782D01*
X141179500Y-44766017D01*
X141216025Y-44949640D01*
X141216027Y-44949648D01*
X141287676Y-45122625D01*
X141287681Y-45122634D01*
X141391697Y-45278304D01*
X141391700Y-45278308D01*
X141524088Y-45410696D01*
X141524092Y-45410699D01*
X141679762Y-45514715D01*
X141679771Y-45514720D01*
X141832953Y-45578170D01*
X141887356Y-45622011D01*
X141909421Y-45688305D01*
X141909500Y-45692731D01*
X141909500Y-46314786D01*
X141889815Y-46381825D01*
X141873181Y-46402467D01*
X141862827Y-46412821D01*
X141801504Y-46446306D01*
X141731812Y-46441322D01*
X141675879Y-46399450D01*
X141669608Y-46390238D01*
X141607573Y-46289665D01*
X141487732Y-46169824D01*
X141487728Y-46169821D01*
X141343492Y-46080854D01*
X141343481Y-46080849D01*
X141182606Y-46027541D01*
X141083322Y-46017397D01*
X141060000Y-46017397D01*
X141060000Y-47967396D01*
X141083308Y-47967396D01*
X141083322Y-47967395D01*
X141182607Y-47957252D01*
X141343481Y-47903944D01*
X141343492Y-47903939D01*
X141487728Y-47814972D01*
X141487732Y-47814969D01*
X141607573Y-47695128D01*
X141669606Y-47594557D01*
X141721554Y-47547832D01*
X141790516Y-47536609D01*
X141854599Y-47564453D01*
X141862826Y-47571972D01*
X141881774Y-47590920D01*
X141881778Y-47590923D01*
X141881780Y-47590925D01*
X142001874Y-47652116D01*
X142001876Y-47652116D01*
X142001878Y-47652117D01*
X142101507Y-47667897D01*
X142101512Y-47667897D01*
X142618493Y-47667897D01*
X142718121Y-47652117D01*
X142718121Y-47652116D01*
X142718126Y-47652116D01*
X142838220Y-47590925D01*
X142933528Y-47495617D01*
X142994719Y-47375523D01*
X143001384Y-47333441D01*
X143007869Y-47292500D01*
X143037798Y-47229365D01*
X143097109Y-47192433D01*
X143130342Y-47187897D01*
X143788000Y-47187897D01*
X143855039Y-47207582D01*
X143900794Y-47260386D01*
X143912000Y-47311897D01*
X143912000Y-47595657D01*
X143921926Y-47663788D01*
X143973303Y-47768882D01*
X144056014Y-47851593D01*
X144056015Y-47851593D01*
X144056017Y-47851595D01*
X144161107Y-47902970D01*
X144195173Y-47907933D01*
X144229239Y-47912897D01*
X144229240Y-47912897D01*
X144595761Y-47912897D01*
X144619432Y-47909448D01*
X144663893Y-47902970D01*
X144768983Y-47851595D01*
X144851698Y-47768880D01*
X144903073Y-47663790D01*
X144913000Y-47595657D01*
X144913000Y-45886897D01*
X144932685Y-45819858D01*
X144985489Y-45774103D01*
X145037000Y-45762897D01*
X145058000Y-45762897D01*
X145125039Y-45782582D01*
X145170794Y-45835386D01*
X145182000Y-45886897D01*
X145182000Y-47595657D01*
X145191926Y-47663788D01*
X145243303Y-47768882D01*
X145326012Y-47851591D01*
X145326015Y-47851593D01*
X145326017Y-47851595D01*
X145326018Y-47851595D01*
X145330050Y-47854474D01*
X145373174Y-47909448D01*
X145382000Y-47955394D01*
X145382000Y-48159063D01*
X145362315Y-48226102D01*
X145345681Y-48246744D01*
X145151847Y-48440578D01*
X145090524Y-48474063D01*
X145064166Y-48476897D01*
X144633482Y-48476897D01*
X144552519Y-48489720D01*
X144539696Y-48491751D01*
X144426658Y-48549347D01*
X144426657Y-48549348D01*
X144426652Y-48549351D01*
X144336954Y-48639049D01*
X144336949Y-48639056D01*
X144311403Y-48689193D01*
X144263429Y-48739988D01*
X144200919Y-48756897D01*
X143689272Y-48756897D01*
X143622233Y-48737212D01*
X143578788Y-48689193D01*
X143553241Y-48639056D01*
X143543050Y-48619055D01*
X143543047Y-48619052D01*
X143543045Y-48619049D01*
X143453347Y-48529351D01*
X143453344Y-48529349D01*
X143453342Y-48529347D01*
X143376517Y-48490202D01*
X143340301Y-48471749D01*
X143246524Y-48456897D01*
X142633482Y-48456897D01*
X142552519Y-48469720D01*
X142539696Y-48471751D01*
X142426658Y-48529347D01*
X142426657Y-48529348D01*
X142426652Y-48529351D01*
X142336954Y-48619049D01*
X142336951Y-48619054D01*
X142336950Y-48619055D01*
X142301212Y-48689193D01*
X142253239Y-48739988D01*
X142190729Y-48756897D01*
X141699272Y-48756897D01*
X141632233Y-48737212D01*
X141588788Y-48689193D01*
X141563241Y-48639056D01*
X141553050Y-48619055D01*
X141553047Y-48619052D01*
X141553045Y-48619049D01*
X141463347Y-48529351D01*
X141463344Y-48529349D01*
X141463342Y-48529347D01*
X141386517Y-48490202D01*
X141350301Y-48471749D01*
X141256524Y-48456897D01*
X140643482Y-48456897D01*
X140562519Y-48469720D01*
X140549696Y-48471751D01*
X140436658Y-48529347D01*
X140436657Y-48529348D01*
X140436652Y-48529351D01*
X140346954Y-48619049D01*
X140346951Y-48619054D01*
X140346950Y-48619055D01*
X140336759Y-48639056D01*
X140289352Y-48732095D01*
X140274500Y-48825872D01*
X140274500Y-49288914D01*
X140277669Y-49308921D01*
X140289354Y-49382701D01*
X140346950Y-49495739D01*
X140346952Y-49495741D01*
X140346954Y-49495744D01*
X140436652Y-49585442D01*
X140436654Y-49585443D01*
X140436658Y-49585447D01*
X140485612Y-49610390D01*
X140536408Y-49658365D01*
X140553203Y-49726186D01*
X140530665Y-49792321D01*
X140475950Y-49835772D01*
X140466208Y-49839260D01*
X140385603Y-49864378D01*
X140240122Y-49952324D01*
X140119927Y-50072519D01*
X140031980Y-50218001D01*
X139981409Y-50380290D01*
X139975000Y-50450824D01*
X139975000Y-50457397D01*
X141924999Y-50457397D01*
X141924999Y-50450814D01*
X141918591Y-50380294D01*
X141918590Y-50380289D01*
X141868018Y-50218000D01*
X141780072Y-50072519D01*
X141659877Y-49952324D01*
X141514395Y-49864377D01*
X141514396Y-49864377D01*
X141433791Y-49839260D01*
X141375643Y-49800523D01*
X141347669Y-49736497D01*
X141358751Y-49667512D01*
X141405369Y-49615469D01*
X141414369Y-49610399D01*
X141463342Y-49585447D01*
X141553050Y-49495739D01*
X141588787Y-49425600D01*
X141636761Y-49374806D01*
X141699271Y-49357897D01*
X142190728Y-49357897D01*
X142257767Y-49377582D01*
X142301212Y-49425601D01*
X142336949Y-49495737D01*
X142336954Y-49495744D01*
X142426652Y-49585442D01*
X142426654Y-49585443D01*
X142426658Y-49585447D01*
X142539694Y-49643042D01*
X142539698Y-49643044D01*
X142633475Y-49657896D01*
X142633481Y-49657897D01*
X143246518Y-49657896D01*
X143340304Y-49643043D01*
X143453342Y-49585447D01*
X143543050Y-49495739D01*
X143578787Y-49425600D01*
X143626761Y-49374806D01*
X143689271Y-49357897D01*
X144180539Y-49357897D01*
X144247578Y-49377582D01*
X144291022Y-49425600D01*
X144326762Y-49495744D01*
X144336949Y-49515737D01*
X144336954Y-49515744D01*
X144426652Y-49605442D01*
X144426654Y-49605443D01*
X144426658Y-49605447D01*
X144529883Y-49658043D01*
X144539698Y-49663044D01*
X144633475Y-49677896D01*
X144633481Y-49677897D01*
X145229811Y-49677896D01*
X145296850Y-49697580D01*
X145342605Y-49750384D01*
X145352549Y-49819543D01*
X145323524Y-49883099D01*
X145317492Y-49889577D01*
X145116490Y-50090578D01*
X145055167Y-50124063D01*
X145028809Y-50126897D01*
X144633482Y-50126897D01*
X144552519Y-50139720D01*
X144539696Y-50141751D01*
X144426658Y-50199347D01*
X144426657Y-50199348D01*
X144426652Y-50199351D01*
X144336954Y-50289049D01*
X144336951Y-50289054D01*
X144336950Y-50289055D01*
X144319707Y-50322897D01*
X144279352Y-50402095D01*
X144264500Y-50495872D01*
X144264500Y-50958914D01*
X144275292Y-51027054D01*
X144279354Y-51052701D01*
X144336950Y-51165739D01*
X144336952Y-51165741D01*
X144336954Y-51165744D01*
X144426652Y-51255442D01*
X144426654Y-51255443D01*
X144426658Y-51255447D01*
X144529881Y-51308042D01*
X144539698Y-51313044D01*
X144633475Y-51327896D01*
X144633481Y-51327897D01*
X145246518Y-51327896D01*
X145340304Y-51313043D01*
X145453342Y-51255447D01*
X145543050Y-51165739D01*
X145600646Y-51052701D01*
X145600646Y-51052699D01*
X145600647Y-51052698D01*
X145615499Y-50958921D01*
X145615500Y-50958916D01*
X145615499Y-50563585D01*
X145635183Y-50496547D01*
X145651813Y-50475910D01*
X145768509Y-50359214D01*
X145829831Y-50325731D01*
X145856189Y-50322897D01*
X146125920Y-50322897D01*
X146192959Y-50342582D01*
X146238714Y-50395386D01*
X146248658Y-50464544D01*
X146248393Y-50466296D01*
X146244500Y-50490873D01*
X146244500Y-50953914D01*
X146255292Y-51022054D01*
X146259354Y-51047701D01*
X146316950Y-51160739D01*
X146316952Y-51160741D01*
X146316954Y-51160744D01*
X146406652Y-51250442D01*
X146406654Y-51250443D01*
X146406658Y-51250447D01*
X146519694Y-51308042D01*
X146519698Y-51308044D01*
X146528980Y-51311060D01*
X146528162Y-51313574D01*
X146578019Y-51337200D01*
X146614959Y-51396506D01*
X146619500Y-51429756D01*
X146619500Y-52145199D01*
X146599815Y-52212238D01*
X146547011Y-52257993D01*
X146542954Y-52259760D01*
X146469769Y-52290075D01*
X146469762Y-52290078D01*
X146314092Y-52394094D01*
X146314088Y-52394097D01*
X146181700Y-52526485D01*
X146181697Y-52526489D01*
X146077681Y-52682159D01*
X146077676Y-52682168D01*
X146006027Y-52855145D01*
X146006025Y-52855153D01*
X145969500Y-53038776D01*
X145969500Y-53157897D01*
X145949815Y-53224936D01*
X145897011Y-53270691D01*
X145845500Y-53281897D01*
X144014500Y-53281897D01*
X143947461Y-53262212D01*
X143901706Y-53209408D01*
X143890500Y-53157897D01*
X143890500Y-53038780D01*
X143890499Y-53038776D01*
X143853974Y-52855153D01*
X143853973Y-52855146D01*
X143782322Y-52682166D01*
X143782321Y-52682165D01*
X143782318Y-52682159D01*
X143678302Y-52526489D01*
X143678299Y-52526485D01*
X143545911Y-52394097D01*
X143545907Y-52394094D01*
X143390237Y-52290078D01*
X143390232Y-52290076D01*
X143390231Y-52290075D01*
X143347553Y-52272397D01*
X143317046Y-52259760D01*
X143262643Y-52215918D01*
X143240579Y-52149624D01*
X143240500Y-52145199D01*
X143240500Y-51414756D01*
X143260185Y-51347717D01*
X143312989Y-51301962D01*
X143331157Y-51296486D01*
X143331019Y-51296060D01*
X143340300Y-51293044D01*
X143340301Y-51293043D01*
X143340304Y-51293043D01*
X143453342Y-51235447D01*
X143543050Y-51145739D01*
X143600646Y-51032701D01*
X143600646Y-51032699D01*
X143600647Y-51032698D01*
X143611532Y-50963969D01*
X143615500Y-50938916D01*
X143615499Y-50475879D01*
X143600646Y-50382093D01*
X143543050Y-50269055D01*
X143543046Y-50269051D01*
X143543045Y-50269049D01*
X143453347Y-50179351D01*
X143453344Y-50179349D01*
X143453342Y-50179347D01*
X143344842Y-50124063D01*
X143340301Y-50121749D01*
X143246524Y-50106897D01*
X142633482Y-50106897D01*
X142552519Y-50119720D01*
X142539696Y-50121751D01*
X142426658Y-50179347D01*
X142426657Y-50179348D01*
X142426652Y-50179351D01*
X142336954Y-50269049D01*
X142336951Y-50269054D01*
X142336950Y-50269055D01*
X142322047Y-50298304D01*
X142279352Y-50382095D01*
X142264500Y-50475872D01*
X142264500Y-50938914D01*
X142268470Y-50963979D01*
X142279354Y-51032701D01*
X142336950Y-51145739D01*
X142336952Y-51145741D01*
X142336954Y-51145744D01*
X142426652Y-51235442D01*
X142426654Y-51235443D01*
X142426658Y-51235447D01*
X142539696Y-51293043D01*
X142539698Y-51293044D01*
X142548980Y-51296060D01*
X142548162Y-51298574D01*
X142598019Y-51322200D01*
X142634959Y-51381506D01*
X142639500Y-51414756D01*
X142639500Y-52145199D01*
X142619815Y-52212238D01*
X142567011Y-52257993D01*
X142562954Y-52259760D01*
X142489769Y-52290075D01*
X142489762Y-52290078D01*
X142334092Y-52394094D01*
X142334088Y-52394097D01*
X142201700Y-52526485D01*
X142201697Y-52526489D01*
X142097681Y-52682159D01*
X142097676Y-52682168D01*
X142026027Y-52855145D01*
X142026025Y-52855153D01*
X141989500Y-53038776D01*
X141989500Y-53226017D01*
X142026025Y-53409640D01*
X142026027Y-53409648D01*
X142097676Y-53582625D01*
X142097681Y-53582634D01*
X142201697Y-53738304D01*
X142201700Y-53738308D01*
X142334088Y-53870696D01*
X142334092Y-53870699D01*
X142489762Y-53974715D01*
X142489768Y-53974718D01*
X142489769Y-53974719D01*
X142662749Y-54046370D01*
X142846379Y-54082896D01*
X142846383Y-54082897D01*
X142846384Y-54082897D01*
X143033617Y-54082897D01*
X143033618Y-54082896D01*
X143217251Y-54046370D01*
X143390231Y-53974719D01*
X143496376Y-53903794D01*
X143563053Y-53882917D01*
X143565267Y-53882897D01*
X145709242Y-53882897D01*
X145776281Y-53902582D01*
X145796923Y-53919216D01*
X146244615Y-54366908D01*
X146300564Y-54422857D01*
X146300566Y-54422858D01*
X146300570Y-54422861D01*
X146369079Y-54462414D01*
X146369086Y-54462418D01*
X146445513Y-54482897D01*
X146445515Y-54482897D01*
X147394485Y-54482897D01*
X147394487Y-54482897D01*
X147470914Y-54462418D01*
X147539436Y-54422857D01*
X147595385Y-54366908D01*
X148043077Y-53919216D01*
X148104400Y-53885731D01*
X148130758Y-53882897D01*
X148557377Y-53882897D01*
X148624416Y-53902582D01*
X148645058Y-53919216D01*
X149535680Y-54809838D01*
X149569165Y-54871161D01*
X149567774Y-54929612D01*
X149539127Y-55036525D01*
X149539127Y-55110881D01*
X149519442Y-55177920D01*
X149466638Y-55223675D01*
X149397480Y-55233619D01*
X149395737Y-55233356D01*
X149386521Y-55231897D01*
X148773482Y-55231897D01*
X148692519Y-55244720D01*
X148679696Y-55246751D01*
X148566658Y-55304347D01*
X148566657Y-55304348D01*
X148566656Y-55304348D01*
X148535428Y-55335577D01*
X148485425Y-55385579D01*
X148424105Y-55419063D01*
X148397746Y-55421897D01*
X148057611Y-55421897D01*
X147990572Y-55402212D01*
X147969930Y-55385578D01*
X147883225Y-55298873D01*
X147883221Y-55298870D01*
X147883220Y-55298869D01*
X147763126Y-55237678D01*
X147763124Y-55237677D01*
X147763121Y-55237676D01*
X147663493Y-55221897D01*
X147663488Y-55221897D01*
X147096512Y-55221897D01*
X147096507Y-55221897D01*
X146996878Y-55237676D01*
X146876778Y-55298870D01*
X146876775Y-55298872D01*
X146840072Y-55335577D01*
X146778749Y-55369063D01*
X146752390Y-55371897D01*
X146322254Y-55371897D01*
X146255215Y-55352212D01*
X146234572Y-55335577D01*
X146193346Y-55294350D01*
X146193344Y-55294349D01*
X146193342Y-55294347D01*
X146099930Y-55246751D01*
X146080301Y-55236749D01*
X145986524Y-55221897D01*
X145373482Y-55221897D01*
X145299472Y-55233619D01*
X145279696Y-55236751D01*
X145166658Y-55294347D01*
X145166657Y-55294348D01*
X145166652Y-55294351D01*
X145076954Y-55384049D01*
X145076951Y-55384054D01*
X145076950Y-55384055D01*
X145059112Y-55419063D01*
X145019352Y-55497095D01*
X145004500Y-55590872D01*
X145004500Y-55986207D01*
X144984815Y-56053246D01*
X144968181Y-56073888D01*
X144619537Y-56422532D01*
X144619535Y-56422535D01*
X144576682Y-56496758D01*
X144559414Y-56561203D01*
X144558257Y-56565523D01*
X144554500Y-56579541D01*
X144554500Y-58147184D01*
X144534815Y-58214223D01*
X144482011Y-58259978D01*
X144412853Y-58269922D01*
X144391496Y-58264890D01*
X144287697Y-58230494D01*
X144287690Y-58230493D01*
X144184986Y-58220000D01*
X143910000Y-58220000D01*
X143910000Y-59096000D01*
X143890315Y-59163039D01*
X143837511Y-59208794D01*
X143786000Y-59220000D01*
X143660000Y-59220000D01*
X143660000Y-59346000D01*
X143640315Y-59413039D01*
X143587511Y-59458794D01*
X143536000Y-59470000D01*
X142899500Y-59470000D01*
X142832461Y-59450315D01*
X142786706Y-59397511D01*
X142775500Y-59346000D01*
X142775500Y-59094000D01*
X142795185Y-59026961D01*
X142847989Y-58981206D01*
X142899500Y-58970000D01*
X143410000Y-58970000D01*
X143410000Y-58220000D01*
X143135029Y-58220000D01*
X143135012Y-58220001D01*
X143032302Y-58230494D01*
X142938504Y-58261576D01*
X142868676Y-58263978D01*
X142808634Y-58228246D01*
X142777441Y-58165726D01*
X142775500Y-58143870D01*
X142775500Y-57203676D01*
X142795185Y-57136637D01*
X142811819Y-57115995D01*
X142830917Y-57096897D01*
X142850500Y-57077314D01*
X142916392Y-56963186D01*
X142950500Y-56835892D01*
X142950500Y-56704108D01*
X142916392Y-56576814D01*
X142850500Y-56462686D01*
X142757314Y-56369500D01*
X142681504Y-56325731D01*
X142643187Y-56303608D01*
X142579539Y-56286554D01*
X142515892Y-56269500D01*
X142384108Y-56269500D01*
X142256812Y-56303608D01*
X142142686Y-56369500D01*
X142142683Y-56369502D01*
X142049502Y-56462683D01*
X142049500Y-56462686D01*
X141983608Y-56576812D01*
X141976254Y-56604260D01*
X141949500Y-56704108D01*
X141949500Y-56835892D01*
X141952978Y-56848873D01*
X141983608Y-56963187D01*
X142003220Y-56997155D01*
X142049500Y-57077314D01*
X142049502Y-57077316D01*
X142088181Y-57115995D01*
X142121666Y-57177318D01*
X142124500Y-57203676D01*
X142124500Y-58205565D01*
X142104815Y-58272604D01*
X142052011Y-58318359D01*
X141982853Y-58328303D01*
X141935405Y-58311104D01*
X141894133Y-58285648D01*
X141894119Y-58285641D01*
X141727697Y-58230494D01*
X141727690Y-58230493D01*
X141624986Y-58220000D01*
X141350000Y-58220000D01*
X141350000Y-58970000D01*
X142000500Y-58970000D01*
X142067539Y-58989685D01*
X142113294Y-59042489D01*
X142124500Y-59094000D01*
X142124500Y-59346000D01*
X142104815Y-59413039D01*
X142052011Y-59458794D01*
X142000500Y-59470000D01*
X139875001Y-59470000D01*
X139875001Y-59519986D01*
X139885494Y-59622697D01*
X139940641Y-59789119D01*
X139940643Y-59789124D01*
X140032684Y-59938345D01*
X140156654Y-60062315D01*
X140305875Y-60154356D01*
X140305882Y-60154359D01*
X140474081Y-60210094D01*
X140531526Y-60249866D01*
X140558350Y-60314382D01*
X140546035Y-60383158D01*
X140498493Y-60434358D01*
X140476035Y-60444841D01*
X140434422Y-60459402D01*
X140412118Y-60467207D01*
X140412117Y-60467207D01*
X140412116Y-60467208D01*
X140302848Y-60547851D01*
X140250241Y-60619133D01*
X140194594Y-60661384D01*
X140150471Y-60669500D01*
X139580691Y-60669500D01*
X139490325Y-60693713D01*
X139490324Y-60693712D01*
X139466116Y-60700199D01*
X139466113Y-60700200D01*
X139363386Y-60759511D01*
X139363383Y-60759513D01*
X139099716Y-61023181D01*
X139038393Y-61056666D01*
X139012035Y-61059500D01*
X138766507Y-61059500D01*
X138666878Y-61075279D01*
X138546778Y-61136473D01*
X138546774Y-61136476D01*
X138451476Y-61231774D01*
X138451473Y-61231778D01*
X138451472Y-61231780D01*
X138402610Y-61327678D01*
X138390279Y-61351878D01*
X138374500Y-61451506D01*
X138374500Y-61968493D01*
X138390279Y-62068121D01*
X138390280Y-62068124D01*
X138390281Y-62068126D01*
X138442136Y-62169897D01*
X138451473Y-62188221D01*
X138451476Y-62188225D01*
X138470424Y-62207173D01*
X138503909Y-62268496D01*
X138498925Y-62338188D01*
X138457053Y-62394121D01*
X138447841Y-62400392D01*
X138347268Y-62462426D01*
X138227427Y-62582267D01*
X138227424Y-62582271D01*
X138138457Y-62726507D01*
X138138452Y-62726518D01*
X138085144Y-62887393D01*
X138075000Y-62986677D01*
X138075000Y-63010000D01*
X140024999Y-63010000D01*
X140024999Y-62986692D01*
X140024998Y-62986677D01*
X140014855Y-62887392D01*
X139961547Y-62726518D01*
X139961542Y-62726507D01*
X139872575Y-62582271D01*
X139872572Y-62582267D01*
X139752732Y-62462427D01*
X139752728Y-62462424D01*
X139652159Y-62400392D01*
X139605434Y-62348444D01*
X139594213Y-62279482D01*
X139622056Y-62215400D01*
X139629565Y-62207182D01*
X139648528Y-62188220D01*
X139709719Y-62068126D01*
X139713240Y-62045897D01*
X139725500Y-61968493D01*
X139725500Y-61722965D01*
X139745185Y-61655926D01*
X139761819Y-61635284D01*
X139790284Y-61606819D01*
X139851607Y-61573334D01*
X139877965Y-61570500D01*
X140150471Y-61570500D01*
X140217510Y-61590185D01*
X140250241Y-61620867D01*
X140302848Y-61692148D01*
X140302849Y-61692148D01*
X140302850Y-61692150D01*
X140412118Y-61772793D01*
X140447870Y-61785303D01*
X140540299Y-61817646D01*
X140570730Y-61820500D01*
X140570734Y-61820500D01*
X141112035Y-61820500D01*
X141179074Y-61840185D01*
X141199716Y-61856819D01*
X143793181Y-64450284D01*
X143826666Y-64511607D01*
X143829500Y-64537965D01*
X143829500Y-64683974D01*
X143809815Y-64751013D01*
X143774391Y-64787076D01*
X143674092Y-64854094D01*
X143674088Y-64854097D01*
X143541700Y-64986485D01*
X143541697Y-64986489D01*
X143437681Y-65142159D01*
X143437679Y-65142163D01*
X143437678Y-65142166D01*
X143419790Y-65185351D01*
X143375951Y-65239752D01*
X143309657Y-65261818D01*
X143305230Y-65261897D01*
X141790687Y-65261897D01*
X141713152Y-65282672D01*
X141681063Y-65286897D01*
X141625820Y-65286897D01*
X141580243Y-65292897D01*
X141580236Y-65292899D01*
X141480200Y-65339547D01*
X141402151Y-65417596D01*
X141357251Y-65513883D01*
X141311078Y-65566322D01*
X141243884Y-65585473D01*
X141177003Y-65565257D01*
X141157188Y-65549158D01*
X140871819Y-65263789D01*
X140838334Y-65202466D01*
X140835500Y-65176108D01*
X140835500Y-65133676D01*
X140855185Y-65066637D01*
X140871819Y-65045995D01*
X140910500Y-65007314D01*
X140976392Y-64893186D01*
X141010500Y-64765892D01*
X141010500Y-64634108D01*
X140976392Y-64506814D01*
X140910500Y-64392686D01*
X140817314Y-64299500D01*
X140760250Y-64266554D01*
X140703187Y-64233608D01*
X140615071Y-64209998D01*
X140575892Y-64199500D01*
X140444108Y-64199500D01*
X140316812Y-64233608D01*
X140202686Y-64299500D01*
X140202683Y-64299502D01*
X140109502Y-64392683D01*
X140109500Y-64392686D01*
X140043608Y-64506812D01*
X140025288Y-64575186D01*
X140009500Y-64634108D01*
X140009500Y-64765892D01*
X140023089Y-64816608D01*
X140043608Y-64893187D01*
X140069475Y-64937989D01*
X140109500Y-65007314D01*
X140109501Y-65007315D01*
X140109502Y-65007316D01*
X140148181Y-65045995D01*
X140181666Y-65107318D01*
X140184500Y-65133676D01*
X140184500Y-65175612D01*
X140164815Y-65242651D01*
X140112011Y-65288406D01*
X140042853Y-65298350D01*
X140025805Y-65294659D01*
X140019762Y-65292898D01*
X139974188Y-65286898D01*
X139974185Y-65286897D01*
X139974179Y-65286897D01*
X139974172Y-65286897D01*
X139918933Y-65286897D01*
X139886841Y-65282672D01*
X139816367Y-65263789D01*
X139809310Y-65261898D01*
X139809309Y-65261898D01*
X139690691Y-65261898D01*
X139690685Y-65261898D01*
X139613155Y-65282672D01*
X139581065Y-65286897D01*
X139525820Y-65286897D01*
X139480243Y-65292897D01*
X139480236Y-65292899D01*
X139380200Y-65339547D01*
X139302150Y-65417597D01*
X139255500Y-65517638D01*
X139249501Y-65563208D01*
X139249500Y-65563224D01*
X139249500Y-65861577D01*
X139255500Y-65907153D01*
X139255501Y-65907157D01*
X139302150Y-66007196D01*
X139380201Y-66085247D01*
X139480240Y-66131896D01*
X139498571Y-66134309D01*
X139562466Y-66162574D01*
X139570067Y-66169567D01*
X140780716Y-67380216D01*
X140814201Y-67441539D01*
X140809217Y-67511231D01*
X140767345Y-67567164D01*
X140701881Y-67591581D01*
X140693035Y-67591897D01*
X140515730Y-67591897D01*
X140485300Y-67594750D01*
X140485298Y-67594750D01*
X140357119Y-67639603D01*
X140357117Y-67639604D01*
X140247850Y-67720247D01*
X140167207Y-67829514D01*
X140167206Y-67829516D01*
X140122353Y-67957695D01*
X140122353Y-67957697D01*
X140119500Y-67988127D01*
X140119500Y-69704432D01*
X140099815Y-69771471D01*
X140083181Y-69792113D01*
X137159613Y-72715681D01*
X137098290Y-72749166D01*
X137071932Y-72752000D01*
X135944925Y-72752000D01*
X135877886Y-72732315D01*
X135832131Y-72679511D01*
X135825152Y-72660099D01*
X135823712Y-72654727D01*
X135823710Y-72654719D01*
X135738405Y-72448774D01*
X135626948Y-72255726D01*
X135576284Y-72189699D01*
X135491248Y-72078877D01*
X135491242Y-72078870D01*
X135333629Y-71921257D01*
X135333622Y-71921251D01*
X135156782Y-71785558D01*
X135156780Y-71785557D01*
X135156774Y-71785552D01*
X134963726Y-71674095D01*
X134963722Y-71674093D01*
X134757790Y-71588793D01*
X134757783Y-71588791D01*
X134757781Y-71588790D01*
X134542463Y-71531096D01*
X134542457Y-71531095D01*
X134542452Y-71531094D01*
X134321466Y-71502001D01*
X134321463Y-71502000D01*
X134321457Y-71502000D01*
X134098543Y-71502000D01*
X134098537Y-71502000D01*
X134098533Y-71502001D01*
X133877547Y-71531094D01*
X133877540Y-71531095D01*
X133877537Y-71531096D01*
X133662219Y-71588790D01*
X133662209Y-71588793D01*
X133456277Y-71674093D01*
X133456273Y-71674095D01*
X133263226Y-71785552D01*
X133263217Y-71785558D01*
X133086377Y-71921251D01*
X133086370Y-71921257D01*
X132928757Y-72078870D01*
X132928751Y-72078877D01*
X132793058Y-72255717D01*
X132793052Y-72255726D01*
X132681595Y-72448773D01*
X132681593Y-72448777D01*
X132596293Y-72654709D01*
X132596290Y-72654719D01*
X132554287Y-72811479D01*
X132538597Y-72870034D01*
X132538594Y-72870047D01*
X132509501Y-73091033D01*
X132509500Y-73091049D01*
X129830500Y-73091049D01*
X129830500Y-68011049D01*
X132509500Y-68011049D01*
X132509500Y-68233950D01*
X132509501Y-68233966D01*
X132538594Y-68454952D01*
X132538595Y-68454957D01*
X132538596Y-68454963D01*
X132593387Y-68659446D01*
X132596290Y-68670280D01*
X132596293Y-68670290D01*
X132665398Y-68837124D01*
X132681595Y-68876226D01*
X132793052Y-69069274D01*
X132793057Y-69069280D01*
X132793058Y-69069282D01*
X132928751Y-69246122D01*
X132928757Y-69246129D01*
X133086370Y-69403742D01*
X133086376Y-69403747D01*
X133263226Y-69539448D01*
X133456274Y-69650905D01*
X133662219Y-69736210D01*
X133877537Y-69793904D01*
X134098543Y-69823000D01*
X134098550Y-69823000D01*
X134321450Y-69823000D01*
X134321457Y-69823000D01*
X134542463Y-69793904D01*
X134757781Y-69736210D01*
X134963726Y-69650905D01*
X135156774Y-69539448D01*
X135333624Y-69403747D01*
X135491247Y-69246124D01*
X135626948Y-69069274D01*
X135738405Y-68876226D01*
X135823710Y-68670281D01*
X135881404Y-68454963D01*
X135910500Y-68233957D01*
X135910500Y-68011043D01*
X135881404Y-67790037D01*
X135823710Y-67574719D01*
X135738405Y-67368774D01*
X135626948Y-67175726D01*
X135491247Y-66998876D01*
X135491242Y-66998870D01*
X135333629Y-66841257D01*
X135333622Y-66841251D01*
X135156782Y-66705558D01*
X135156780Y-66705557D01*
X135156774Y-66705552D01*
X134963726Y-66594095D01*
X134963722Y-66594093D01*
X134757790Y-66508793D01*
X134757783Y-66508791D01*
X134757781Y-66508790D01*
X134542463Y-66451096D01*
X134542457Y-66451095D01*
X134542452Y-66451094D01*
X134321466Y-66422001D01*
X134321463Y-66422000D01*
X134321457Y-66422000D01*
X134098543Y-66422000D01*
X134098537Y-66422000D01*
X134098533Y-66422001D01*
X133877547Y-66451094D01*
X133877540Y-66451095D01*
X133877537Y-66451096D01*
X133671254Y-66506369D01*
X133662219Y-66508790D01*
X133662209Y-66508793D01*
X133456277Y-66594093D01*
X133456273Y-66594095D01*
X133263226Y-66705552D01*
X133263217Y-66705558D01*
X133086377Y-66841251D01*
X133086370Y-66841257D01*
X132928757Y-66998870D01*
X132928751Y-66998877D01*
X132793058Y-67175717D01*
X132793052Y-67175726D01*
X132681595Y-67368773D01*
X132681593Y-67368777D01*
X132596293Y-67574709D01*
X132596290Y-67574719D01*
X132578905Y-67639603D01*
X132538597Y-67790034D01*
X132538594Y-67790047D01*
X132509501Y-68011033D01*
X132509500Y-68011049D01*
X129830500Y-68011049D01*
X129830500Y-61522747D01*
X132509500Y-61522747D01*
X132509500Y-64562252D01*
X132521131Y-64620729D01*
X132521132Y-64620730D01*
X132565447Y-64687052D01*
X132631769Y-64731367D01*
X132631770Y-64731368D01*
X132690247Y-64742999D01*
X132690250Y-64743000D01*
X132690252Y-64743000D01*
X135729750Y-64743000D01*
X135729751Y-64742999D01*
X135744568Y-64740052D01*
X135788229Y-64731368D01*
X135788229Y-64731367D01*
X135788231Y-64731367D01*
X135854552Y-64687052D01*
X135898867Y-64620731D01*
X135898867Y-64620729D01*
X135898868Y-64620729D01*
X135910499Y-64562252D01*
X135910500Y-64562250D01*
X135910500Y-63533322D01*
X138075001Y-63533322D01*
X138085144Y-63632607D01*
X138138452Y-63793481D01*
X138138457Y-63793492D01*
X138227424Y-63937728D01*
X138227427Y-63937732D01*
X138347267Y-64057572D01*
X138347271Y-64057575D01*
X138491507Y-64146542D01*
X138491518Y-64146547D01*
X138652393Y-64199855D01*
X138751683Y-64209999D01*
X139300000Y-64209999D01*
X139348308Y-64209999D01*
X139348322Y-64209998D01*
X139447607Y-64199855D01*
X139608481Y-64146547D01*
X139608492Y-64146542D01*
X139752728Y-64057575D01*
X139752732Y-64057572D01*
X139872572Y-63937732D01*
X139872575Y-63937728D01*
X139961542Y-63793492D01*
X139961547Y-63793481D01*
X140014855Y-63632606D01*
X140024999Y-63533322D01*
X140025000Y-63533309D01*
X140025000Y-63510000D01*
X139300000Y-63510000D01*
X139300000Y-64209999D01*
X138751683Y-64209999D01*
X138799999Y-64209998D01*
X138800000Y-64209998D01*
X138800000Y-63510000D01*
X138075001Y-63510000D01*
X138075001Y-63533322D01*
X135910500Y-63533322D01*
X135910500Y-61522749D01*
X135910499Y-61522747D01*
X135898868Y-61464270D01*
X135898867Y-61464269D01*
X135854552Y-61397947D01*
X135788230Y-61353632D01*
X135788229Y-61353631D01*
X135729752Y-61342000D01*
X135729748Y-61342000D01*
X132690252Y-61342000D01*
X132690247Y-61342000D01*
X132631770Y-61353631D01*
X132631769Y-61353632D01*
X132565447Y-61397947D01*
X132521132Y-61464269D01*
X132521131Y-61464270D01*
X132509500Y-61522747D01*
X129830500Y-61522747D01*
X129830500Y-58920013D01*
X139875000Y-58920013D01*
X139875000Y-58970000D01*
X140850000Y-58970000D01*
X140850000Y-58220000D01*
X140575029Y-58220000D01*
X140575012Y-58220001D01*
X140472302Y-58230494D01*
X140305880Y-58285641D01*
X140305875Y-58285643D01*
X140156654Y-58377684D01*
X140032684Y-58501654D01*
X139940643Y-58650875D01*
X139940641Y-58650880D01*
X139885494Y-58817302D01*
X139885493Y-58817309D01*
X139875000Y-58920013D01*
X129830500Y-58920013D01*
X129830500Y-55843814D01*
X131519500Y-55843814D01*
X131519500Y-56086391D01*
X131548096Y-56303608D01*
X131551162Y-56326892D01*
X131613946Y-56561203D01*
X131706776Y-56785315D01*
X131828064Y-56995392D01*
X131828066Y-56995395D01*
X131828067Y-56995396D01*
X131975733Y-57187839D01*
X131975739Y-57187846D01*
X132147256Y-57359363D01*
X132147262Y-57359368D01*
X132339711Y-57507039D01*
X132549788Y-57628327D01*
X132773900Y-57721157D01*
X133008211Y-57783941D01*
X133188586Y-57807687D01*
X133248711Y-57815603D01*
X133248712Y-57815603D01*
X133491289Y-57815603D01*
X133549822Y-57807897D01*
X133731789Y-57783941D01*
X133966100Y-57721157D01*
X134190212Y-57628327D01*
X134400289Y-57507039D01*
X134592738Y-57359368D01*
X134764265Y-57187841D01*
X134911936Y-56995392D01*
X135033224Y-56785315D01*
X135126054Y-56561203D01*
X135188838Y-56326892D01*
X135220500Y-56086391D01*
X135220500Y-55843815D01*
X135188838Y-55603314D01*
X135126054Y-55369003D01*
X135033224Y-55144891D01*
X134911936Y-54934814D01*
X134764265Y-54742365D01*
X134764260Y-54742359D01*
X134592743Y-54570842D01*
X134592736Y-54570836D01*
X134400293Y-54423170D01*
X134400292Y-54423169D01*
X134400289Y-54423167D01*
X134190212Y-54301879D01*
X134190205Y-54301876D01*
X133966104Y-54209050D01*
X133731785Y-54146264D01*
X133491289Y-54114603D01*
X133491288Y-54114603D01*
X133248712Y-54114603D01*
X133248711Y-54114603D01*
X133008214Y-54146264D01*
X132773895Y-54209050D01*
X132549794Y-54301876D01*
X132549785Y-54301880D01*
X132437154Y-54366908D01*
X132340252Y-54422855D01*
X132339706Y-54423170D01*
X132147263Y-54570836D01*
X132147256Y-54570842D01*
X131975739Y-54742359D01*
X131975733Y-54742366D01*
X131828067Y-54934809D01*
X131706777Y-55144888D01*
X131706773Y-55144897D01*
X131613947Y-55368998D01*
X131551161Y-55603317D01*
X131519500Y-55843814D01*
X129830500Y-55843814D01*
X129830500Y-50963979D01*
X139975001Y-50963979D01*
X139981408Y-51034499D01*
X139981409Y-51034504D01*
X140031981Y-51196793D01*
X140119927Y-51342274D01*
X140240122Y-51462469D01*
X140385604Y-51550416D01*
X140385603Y-51550416D01*
X140547894Y-51600987D01*
X140547892Y-51600987D01*
X140618418Y-51607396D01*
X141200000Y-51607396D01*
X141281581Y-51607396D01*
X141352102Y-51600988D01*
X141352107Y-51600987D01*
X141514396Y-51550415D01*
X141659877Y-51462469D01*
X141780072Y-51342274D01*
X141868019Y-51196792D01*
X141918590Y-51034503D01*
X141925000Y-50963969D01*
X141925000Y-50957397D01*
X141200000Y-50957397D01*
X141200000Y-51607396D01*
X140618418Y-51607396D01*
X140699999Y-51607395D01*
X140700000Y-51607395D01*
X140700000Y-50957397D01*
X139975001Y-50957397D01*
X139975001Y-50963979D01*
X129830500Y-50963979D01*
X129830500Y-48072747D01*
X131539500Y-48072747D01*
X131539500Y-49812252D01*
X131551131Y-49870729D01*
X131551132Y-49870730D01*
X131595447Y-49937052D01*
X131661769Y-49981367D01*
X131661770Y-49981368D01*
X131720247Y-49992999D01*
X131720250Y-49993000D01*
X131720252Y-49993000D01*
X133459750Y-49993000D01*
X133459751Y-49992999D01*
X133474568Y-49990052D01*
X133518229Y-49981368D01*
X133518229Y-49981367D01*
X133518231Y-49981367D01*
X133584552Y-49937052D01*
X133628867Y-49870731D01*
X133628867Y-49870729D01*
X133628868Y-49870729D01*
X133640499Y-49812252D01*
X133640500Y-49812250D01*
X133640500Y-48072749D01*
X133640499Y-48072747D01*
X133628868Y-48014270D01*
X133628867Y-48014269D01*
X133584552Y-47947947D01*
X133518230Y-47903632D01*
X133518229Y-47903631D01*
X133459752Y-47892000D01*
X133459748Y-47892000D01*
X131720252Y-47892000D01*
X131720247Y-47892000D01*
X131661770Y-47903631D01*
X131661769Y-47903632D01*
X131595447Y-47947947D01*
X131551132Y-48014269D01*
X131551131Y-48014270D01*
X131539500Y-48072747D01*
X129830500Y-48072747D01*
X129830500Y-46299030D01*
X131539500Y-46299030D01*
X131539500Y-46505969D01*
X131579868Y-46708912D01*
X131579870Y-46708920D01*
X131634372Y-46840500D01*
X131659059Y-46900098D01*
X131668955Y-46914908D01*
X131774024Y-47072157D01*
X131920342Y-47218475D01*
X131920345Y-47218477D01*
X132092402Y-47333441D01*
X132283580Y-47412630D01*
X132486530Y-47452999D01*
X132486534Y-47453000D01*
X132486535Y-47453000D01*
X132693466Y-47453000D01*
X132693467Y-47452999D01*
X132896420Y-47412630D01*
X133087598Y-47333441D01*
X133151536Y-47290719D01*
X139860001Y-47290719D01*
X139870144Y-47390004D01*
X139923452Y-47550878D01*
X139923457Y-47550889D01*
X140012424Y-47695125D01*
X140012427Y-47695129D01*
X140132267Y-47814969D01*
X140132271Y-47814972D01*
X140276507Y-47903939D01*
X140276518Y-47903944D01*
X140437393Y-47957252D01*
X140536683Y-47967396D01*
X140560000Y-47967395D01*
X140560000Y-47242397D01*
X139860001Y-47242397D01*
X139860001Y-47290719D01*
X133151536Y-47290719D01*
X133259655Y-47218477D01*
X133290235Y-47187897D01*
X133374779Y-47103354D01*
X133405974Y-47072158D01*
X133405975Y-47072157D01*
X133405977Y-47072155D01*
X133520941Y-46900098D01*
X133600130Y-46708920D01*
X133640500Y-46505965D01*
X133640500Y-46299035D01*
X133600130Y-46096080D01*
X133520941Y-45904902D01*
X133405977Y-45732845D01*
X133405975Y-45732842D01*
X133259657Y-45586524D01*
X133147564Y-45511627D01*
X133087598Y-45471559D01*
X133061237Y-45460640D01*
X132896420Y-45392370D01*
X132896412Y-45392368D01*
X132693469Y-45352000D01*
X132693465Y-45352000D01*
X132486535Y-45352000D01*
X132486530Y-45352000D01*
X132283587Y-45392368D01*
X132283579Y-45392370D01*
X132092403Y-45471558D01*
X131920342Y-45586524D01*
X131774024Y-45732842D01*
X131659058Y-45904903D01*
X131579870Y-46096079D01*
X131579868Y-46096087D01*
X131539500Y-46299030D01*
X129830500Y-46299030D01*
X129830500Y-43759030D01*
X131539500Y-43759030D01*
X131539500Y-43965969D01*
X131579868Y-44168912D01*
X131579870Y-44168920D01*
X131592332Y-44199007D01*
X131659059Y-44360098D01*
X131682477Y-44395146D01*
X131774024Y-44532157D01*
X131920342Y-44678475D01*
X131920345Y-44678477D01*
X132092402Y-44793441D01*
X132283580Y-44872630D01*
X132486530Y-44912999D01*
X132486534Y-44913000D01*
X132486535Y-44913000D01*
X132693466Y-44913000D01*
X132693467Y-44912999D01*
X132896420Y-44872630D01*
X133087598Y-44793441D01*
X133259655Y-44678477D01*
X133405977Y-44532155D01*
X133520941Y-44360098D01*
X133600130Y-44168920D01*
X133640500Y-43965965D01*
X133640500Y-43759035D01*
X133600130Y-43556080D01*
X133520941Y-43364902D01*
X133405977Y-43192845D01*
X133405975Y-43192842D01*
X133259657Y-43046524D01*
X133119642Y-42952970D01*
X133087598Y-42931559D01*
X132896420Y-42852370D01*
X132896412Y-42852368D01*
X132693469Y-42812000D01*
X132693465Y-42812000D01*
X132486535Y-42812000D01*
X132486530Y-42812000D01*
X132283587Y-42852368D01*
X132283579Y-42852370D01*
X132092403Y-42931558D01*
X131920342Y-43046524D01*
X131774024Y-43192842D01*
X131659058Y-43364903D01*
X131579870Y-43556079D01*
X131579868Y-43556087D01*
X131539500Y-43759030D01*
X129830500Y-43759030D01*
X129830500Y-41219030D01*
X131539500Y-41219030D01*
X131539500Y-41425969D01*
X131579868Y-41628912D01*
X131579870Y-41628920D01*
X131659058Y-41820096D01*
X131774024Y-41992157D01*
X131920342Y-42138475D01*
X131920345Y-42138477D01*
X132092402Y-42253441D01*
X132283580Y-42332630D01*
X132486530Y-42372999D01*
X132486534Y-42373000D01*
X132486535Y-42373000D01*
X132693466Y-42373000D01*
X132693467Y-42372999D01*
X132896420Y-42332630D01*
X133087598Y-42253441D01*
X133259655Y-42138477D01*
X133405977Y-41992155D01*
X133520941Y-41820098D01*
X133600130Y-41628920D01*
X133640500Y-41425965D01*
X133640500Y-41219035D01*
X133600130Y-41016080D01*
X133520941Y-40824902D01*
X133405977Y-40652845D01*
X133405975Y-40652842D01*
X133259657Y-40506524D01*
X133173626Y-40449041D01*
X133087598Y-40391559D01*
X132896420Y-40312370D01*
X132896412Y-40312368D01*
X132693469Y-40272000D01*
X132693465Y-40272000D01*
X132486535Y-40272000D01*
X132486530Y-40272000D01*
X132283587Y-40312368D01*
X132283579Y-40312370D01*
X132092403Y-40391558D01*
X131920342Y-40506524D01*
X131774024Y-40652842D01*
X131659058Y-40824903D01*
X131579870Y-41016079D01*
X131579868Y-41016087D01*
X131539500Y-41219030D01*
X129830500Y-41219030D01*
X129830500Y-38679030D01*
X131539500Y-38679030D01*
X131539500Y-38885969D01*
X131579868Y-39088912D01*
X131579870Y-39088920D01*
X131620724Y-39187551D01*
X131659059Y-39280098D01*
X131715120Y-39364000D01*
X131774024Y-39452157D01*
X131920342Y-39598475D01*
X131920345Y-39598477D01*
X132092402Y-39713441D01*
X132283580Y-39792630D01*
X132461107Y-39827942D01*
X132486530Y-39832999D01*
X132486534Y-39833000D01*
X132486535Y-39833000D01*
X132693466Y-39833000D01*
X132693467Y-39832999D01*
X132896420Y-39792630D01*
X133087598Y-39713441D01*
X133259655Y-39598477D01*
X133405977Y-39452155D01*
X133520941Y-39280098D01*
X133600130Y-39088920D01*
X133640500Y-38885965D01*
X133640500Y-38679035D01*
X133600130Y-38476080D01*
X133520941Y-38284902D01*
X133405977Y-38112845D01*
X133405975Y-38112842D01*
X133259657Y-37966524D01*
X133107817Y-37865069D01*
X133087598Y-37851559D01*
X133087593Y-37851557D01*
X132896420Y-37772370D01*
X132896412Y-37772368D01*
X132693469Y-37732000D01*
X132693465Y-37732000D01*
X132486535Y-37732000D01*
X132486530Y-37732000D01*
X132283587Y-37772368D01*
X132283579Y-37772370D01*
X132092403Y-37851558D01*
X131920342Y-37966524D01*
X131774024Y-38112842D01*
X131659058Y-38284903D01*
X131579870Y-38476079D01*
X131579868Y-38476087D01*
X131539500Y-38679030D01*
X129830500Y-38679030D01*
X129830500Y-36139030D01*
X131539500Y-36139030D01*
X131539500Y-36345969D01*
X131579868Y-36548912D01*
X131579870Y-36548920D01*
X131645939Y-36708425D01*
X131659059Y-36740098D01*
X131669888Y-36756305D01*
X131774024Y-36912157D01*
X131920342Y-37058475D01*
X131920345Y-37058477D01*
X132092402Y-37173441D01*
X132283580Y-37252630D01*
X132465139Y-37288744D01*
X132486530Y-37292999D01*
X132486534Y-37293000D01*
X132486535Y-37293000D01*
X132693466Y-37293000D01*
X132693467Y-37292999D01*
X132896420Y-37252630D01*
X133087598Y-37173441D01*
X133259655Y-37058477D01*
X133405977Y-36912155D01*
X133520941Y-36740098D01*
X133600130Y-36548920D01*
X133640500Y-36345965D01*
X133640500Y-36139035D01*
X133600130Y-35936080D01*
X133520941Y-35744902D01*
X133405977Y-35572845D01*
X133405975Y-35572842D01*
X133259657Y-35426524D01*
X133173626Y-35369041D01*
X133087598Y-35311559D01*
X132896420Y-35232370D01*
X132896412Y-35232368D01*
X132693469Y-35192000D01*
X132693465Y-35192000D01*
X132486535Y-35192000D01*
X132486530Y-35192000D01*
X132283587Y-35232368D01*
X132283579Y-35232370D01*
X132092403Y-35311558D01*
X131920342Y-35426524D01*
X131774024Y-35572842D01*
X131659058Y-35744903D01*
X131579870Y-35936079D01*
X131579868Y-35936087D01*
X131539500Y-36139030D01*
X129830500Y-36139030D01*
X129830500Y-33599030D01*
X131539500Y-33599030D01*
X131539500Y-33805969D01*
X131579868Y-34008912D01*
X131579870Y-34008920D01*
X131644145Y-34164094D01*
X131659059Y-34200098D01*
X131680379Y-34232006D01*
X131774024Y-34372157D01*
X131920342Y-34518475D01*
X131920345Y-34518477D01*
X132092402Y-34633441D01*
X132283580Y-34712630D01*
X132428052Y-34741367D01*
X132486530Y-34752999D01*
X132486534Y-34753000D01*
X132486535Y-34753000D01*
X132693466Y-34753000D01*
X132693467Y-34752999D01*
X132896420Y-34712630D01*
X133087598Y-34633441D01*
X133259655Y-34518477D01*
X133405977Y-34372155D01*
X133520941Y-34200098D01*
X133600130Y-34008920D01*
X133640500Y-33805965D01*
X133640500Y-33599035D01*
X133600130Y-33396080D01*
X133520941Y-33204902D01*
X133405977Y-33032845D01*
X133405975Y-33032842D01*
X133259657Y-32886524D01*
X133091655Y-32774270D01*
X133087598Y-32771559D01*
X132896420Y-32692370D01*
X132896412Y-32692368D01*
X132693469Y-32652000D01*
X132693465Y-32652000D01*
X132486535Y-32652000D01*
X132486530Y-32652000D01*
X132283587Y-32692368D01*
X132283579Y-32692370D01*
X132092403Y-32771558D01*
X131920342Y-32886524D01*
X131774024Y-33032842D01*
X131659058Y-33204903D01*
X131579870Y-33396079D01*
X131579868Y-33396087D01*
X131539500Y-33599030D01*
X129830500Y-33599030D01*
X129830500Y-29489603D01*
X129850185Y-29422564D01*
X129902989Y-29376809D01*
X129954500Y-29365603D01*
X163565500Y-29365603D01*
X163632539Y-29385288D01*
G37*
%TD.AperFunction*%
%TD*%
M02*
