%TF.GenerationSoftware,KiCad,Pcbnew,10.0.6*%
%TF.CreationDate,2026-09-29T19:15:53+05:30*%
%TF.ProjectId,Home_Automation_v1,486f6d65-5f41-4757-946f-6d6174696f6e,rev?*%
%TF.SameCoordinates,Original*%
%TF.FileFunction,Paste,Top*%
%TF.FilePolarity,Positive*%
%FSLAX46Y46*%
G04 Gerber Fmt 4.6, Leading zero omitted, Abs format (unit mm)*
G04 Created by KiCad (PCBNEW 10.0.6) date 2026-09-29 19:15:53*
%MOMM*%
%LPD*%
G01*
G04 APERTURE LIST*
G04 Aperture macros list*
%AMRoundRect*
0 Rectangle with rounded corners*
0 $1 Rounding radius*
0 $2 $3 $4 $5 $6 $7 $8 $9 X,Y pos of 4 corners*
0 Add a 4 corners polygon primitive as box body*
4,1,4,$2,$3,$4,$5,$6,$7,$8,$9,$2,$3,0*
0 Add four circle primitives for the rounded corners*
1,1,$1+$1,$2,$3*
1,1,$1+$1,$4,$5*
1,1,$1+$1,$6,$7*
1,1,$1+$1,$8,$9*
0 Add four rect primitives between the rounded corners*
20,1,$1+$1,$2,$3,$4,$5,0*
20,1,$1+$1,$4,$5,$6,$7,0*
20,1,$1+$1,$6,$7,$8,$9,0*
20,1,$1+$1,$8,$9,$2,$3,0*%
G04 Aperture macros list end*
%ADD10RoundRect,0.225000X-0.250000X0.225000X-0.250000X-0.225000X0.250000X-0.225000X0.250000X0.225000X0*%
%ADD11RoundRect,0.075000X-0.075000X-0.175000X0.075000X-0.175000X0.075000X0.175000X-0.075000X0.175000X0*%
%ADD12RoundRect,0.112500X0.187500X0.112500X-0.187500X0.112500X-0.187500X-0.112500X0.187500X-0.112500X0*%
%ADD13RoundRect,0.200000X-0.275000X0.200000X-0.275000X-0.200000X0.275000X-0.200000X0.275000X0.200000X0*%
%ADD14RoundRect,0.225000X0.250000X-0.225000X0.250000X0.225000X-0.250000X0.225000X-0.250000X-0.225000X0*%
%ADD15RoundRect,0.200000X0.275000X-0.200000X0.275000X0.200000X-0.275000X0.200000X-0.275000X-0.200000X0*%
%ADD16RoundRect,0.150000X-0.587500X-0.150000X0.587500X-0.150000X0.587500X0.150000X-0.587500X0.150000X0*%
%ADD17RoundRect,0.150000X0.150000X-0.587500X0.150000X0.587500X-0.150000X0.587500X-0.150000X-0.587500X0*%
%ADD18R,2.000000X0.900000*%
%ADD19R,0.930000X1.100000*%
%ADD20RoundRect,0.087500X-0.425000X-0.087500X0.425000X-0.087500X0.425000X0.087500X-0.425000X0.087500X0*%
%ADD21RoundRect,0.250000X-0.500000X-0.500000X0.500000X-0.500000X0.500000X0.500000X-0.500000X0.500000X0*%
%ADD22RoundRect,0.500000X-1.000000X-0.500000X1.000000X-0.500000X1.000000X0.500000X-1.000000X0.500000X0*%
%ADD23RoundRect,0.250000X-0.900000X-0.400000X0.900000X-0.400000X0.900000X0.400000X-0.900000X0.400000X0*%
%ADD24C,1.300000*%
%ADD25RoundRect,0.075000X0.075000X0.175000X-0.075000X0.175000X-0.075000X-0.175000X0.075000X-0.175000X0*%
%ADD26RoundRect,0.200000X0.200000X0.275000X-0.200000X0.275000X-0.200000X-0.275000X0.200000X-0.275000X0*%
G04 APERTURE END LIST*
D10*
%TO.C,C9*%
X146490000Y-70012500D03*
X146490000Y-71562500D03*
%TD*%
D11*
%TO.C,D5*%
X139070000Y-56292500D03*
X139770000Y-56292500D03*
%TD*%
D12*
%TO.C,D3*%
X141860000Y-69962500D03*
X139760000Y-69962500D03*
%TD*%
D13*
%TO.C,R16*%
X150780000Y-66772500D03*
X150780000Y-68422500D03*
%TD*%
D14*
%TO.C,C12*%
X148500000Y-64832500D03*
X148500000Y-63282500D03*
%TD*%
D15*
%TO.C,R14*%
X140430000Y-64852500D03*
X140430000Y-63202500D03*
%TD*%
D16*
%TO.C,Q2*%
X142450000Y-56692500D03*
X142450000Y-58592500D03*
X144325000Y-57642500D03*
%TD*%
D17*
%TO.C,Q1*%
X147200000Y-58580000D03*
X149100000Y-58580000D03*
X148150000Y-56705000D03*
%TD*%
D15*
%TO.C,R17*%
X146730000Y-64882500D03*
X146730000Y-63232500D03*
%TD*%
D18*
%TO.C,SW1*%
X151767400Y-75472500D03*
X151767400Y-78472500D03*
X151767400Y-79972400D03*
D19*
X151056000Y-81522600D03*
X148786000Y-81522600D03*
X148786000Y-73922600D03*
X151056000Y-73922600D03*
%TD*%
D20*
%TO.C,Q3*%
X147172500Y-66852500D03*
X147172500Y-67502500D03*
X147172500Y-68152500D03*
X148847500Y-68152500D03*
X148847500Y-67502500D03*
X148847500Y-66852500D03*
%TD*%
D13*
%TO.C,R15*%
X143840000Y-63202500D03*
X143840000Y-64852500D03*
%TD*%
D21*
%TO.C,U2*%
X147960000Y-40982500D03*
X147960000Y-42982500D03*
X149960000Y-40982500D03*
X149960000Y-42982500D03*
D22*
X138360000Y-33762500D03*
X138360000Y-36302500D03*
X138360000Y-38842500D03*
X138360000Y-41382500D03*
X138360000Y-43922500D03*
X138360000Y-46462500D03*
X138360000Y-49002500D03*
X155360000Y-49002500D03*
X155360000Y-46462500D03*
X155360000Y-43922500D03*
X155360000Y-41382500D03*
X155360000Y-38842500D03*
X155360000Y-36302500D03*
X155360000Y-33762500D03*
D23*
X142360000Y-40982500D03*
X142360000Y-39082500D03*
D24*
X145590000Y-32762500D03*
X145590000Y-35342500D03*
X145590000Y-37882500D03*
X148130000Y-37882500D03*
X148130000Y-35342500D03*
X148130000Y-32762500D03*
%TD*%
D13*
%TO.C,R18*%
X150260000Y-63232500D03*
X150260000Y-64882500D03*
%TD*%
D16*
%TO.C,D4*%
X151962500Y-55824897D03*
X151962500Y-57724897D03*
X153837500Y-56774897D03*
%TD*%
D25*
%TO.C,D7*%
X140210000Y-68092500D03*
X139510000Y-68092500D03*
%TD*%
D18*
%TO.C,SW2*%
X143850000Y-75562500D03*
X143850000Y-78562500D03*
X143850000Y-80062400D03*
D19*
X143138600Y-81612600D03*
X140868600Y-81612600D03*
X140868600Y-74012600D03*
X143138600Y-74012600D03*
%TD*%
D26*
%TO.C,R9*%
X139790000Y-57772500D03*
X138140000Y-57772500D03*
%TD*%
D10*
%TO.C,C10*%
X144100000Y-69952500D03*
X144100000Y-71502500D03*
%TD*%
%TO.C,C11*%
X142140000Y-63252500D03*
X142140000Y-64802500D03*
%TD*%
M02*
