%TF.GenerationSoftware,KiCad,Pcbnew,10.0.6*%
%TF.CreationDate,2026-09-29T19:15:53+05:30*%
%TF.ProjectId,Home_Automation_v1,486f6d65-5f41-4757-946f-6d6174696f6e,rev?*%
%TF.SameCoordinates,Original*%
%TF.FileFunction,Legend,Top*%
%TF.FilePolarity,Positive*%
%FSLAX46Y46*%
G04 Gerber Fmt 4.6, Leading zero omitted, Abs format (unit mm)*
G04 Created by KiCad (PCBNEW 10.0.6) date 2026-09-29 19:15:53*
%MOMM*%
%LPD*%
G01*
G04 APERTURE LIST*
G04 Aperture macros list*
%AMRoundRect*
0 Rectangle with rounded corners*
0 $1 Rounding radius*
0 $2 $3 $4 $5 $6 $7 $8 $9 X,Y pos of 4 corners*
0 Add a 4 corners polygon primitive as box body*
4,1,4,$2,$3,$4,$5,$6,$7,$8,$9,$2,$3,0*
0 Add four circle primitives for the rounded corners*
1,1,$1+$1,$2,$3*
1,1,$1+$1,$4,$5*
1,1,$1+$1,$6,$7*
1,1,$1+$1,$8,$9*
0 Add four rect primitives between the rounded corners*
20,1,$1+$1,$2,$3,$4,$5,0*
20,1,$1+$1,$4,$5,$6,$7,0*
20,1,$1+$1,$6,$7,$8,$9,0*
20,1,$1+$1,$8,$9,$2,$3,0*%
G04 Aperture macros list end*
%ADD10C,0.200000*%
%ADD11C,0.120000*%
%ADD12C,0.160000*%
%ADD13C,0.254000*%
%ADD14C,3.200000*%
%ADD15RoundRect,0.225000X-0.250000X0.225000X-0.250000X-0.225000X0.250000X-0.225000X0.250000X0.225000X0*%
%ADD16RoundRect,0.075000X-0.075000X-0.175000X0.075000X-0.175000X0.075000X0.175000X-0.075000X0.175000X0*%
%ADD17RoundRect,0.112500X0.187500X0.112500X-0.187500X0.112500X-0.187500X-0.112500X0.187500X-0.112500X0*%
%ADD18R,1.700000X1.700000*%
%ADD19C,1.700000*%
%ADD20RoundRect,0.200000X-0.275000X0.200000X-0.275000X-0.200000X0.275000X-0.200000X0.275000X0.200000X0*%
%ADD21RoundRect,0.225000X0.250000X-0.225000X0.250000X0.225000X-0.250000X0.225000X-0.250000X-0.225000X0*%
%ADD22RoundRect,0.200000X0.275000X-0.200000X0.275000X0.200000X-0.275000X0.200000X-0.275000X-0.200000X0*%
%ADD23RoundRect,0.150000X-0.587500X-0.150000X0.587500X-0.150000X0.587500X0.150000X-0.587500X0.150000X0*%
%ADD24RoundRect,0.150000X0.150000X-0.587500X0.150000X0.587500X-0.150000X0.587500X-0.150000X-0.587500X0*%
%ADD25C,0.850000*%
%ADD26RoundRect,0.050800X-1.000000X0.450000X-1.000000X-0.450000X1.000000X-0.450000X1.000000X0.450000X0*%
%ADD27RoundRect,0.050800X-0.465000X0.550000X-0.465000X-0.550000X0.465000X-0.550000X0.465000X0.550000X0*%
%ADD28RoundRect,0.050800X0.465000X-0.550000X0.465000X0.550000X-0.465000X0.550000X-0.465000X-0.550000X0*%
%ADD29R,3.000000X3.000000*%
%ADD30C,3.000000*%
%ADD31RoundRect,0.087500X-0.425000X-0.087500X0.425000X-0.087500X0.425000X0.087500X-0.425000X0.087500X0*%
%ADD32RoundRect,0.500000X-1.000000X-0.500000X1.000000X-0.500000X1.000000X0.500000X-1.000000X0.500000X0*%
%ADD33RoundRect,0.250000X-1.500000X-1.500000X1.500000X-1.500000X1.500000X1.500000X-1.500000X1.500000X0*%
%ADD34RoundRect,0.250000X-0.900000X-0.400000X0.900000X-0.400000X0.900000X0.400000X-0.900000X0.400000X0*%
%ADD35C,1.300000*%
%ADD36RoundRect,0.075000X0.075000X0.175000X-0.075000X0.175000X-0.075000X-0.175000X0.075000X-0.175000X0*%
%ADD37RoundRect,0.200000X0.200000X0.275000X-0.200000X0.275000X-0.200000X-0.275000X0.200000X-0.275000X0*%
G04 APERTURE END LIST*
D10*
X138182054Y-82201695D02*
X138182054Y-81401695D01*
X138182054Y-81401695D02*
X138639197Y-82201695D01*
X138639197Y-82201695D02*
X138639197Y-81401695D01*
X139477292Y-82125504D02*
X139439196Y-82163600D01*
X139439196Y-82163600D02*
X139324911Y-82201695D01*
X139324911Y-82201695D02*
X139248720Y-82201695D01*
X139248720Y-82201695D02*
X139134434Y-82163600D01*
X139134434Y-82163600D02*
X139058244Y-82087409D01*
X139058244Y-82087409D02*
X139020149Y-82011219D01*
X139020149Y-82011219D02*
X138982053Y-81858838D01*
X138982053Y-81858838D02*
X138982053Y-81744552D01*
X138982053Y-81744552D02*
X139020149Y-81592171D01*
X139020149Y-81592171D02*
X139058244Y-81515980D01*
X139058244Y-81515980D02*
X139134434Y-81439790D01*
X139134434Y-81439790D02*
X139248720Y-81401695D01*
X139248720Y-81401695D02*
X139324911Y-81401695D01*
X139324911Y-81401695D02*
X139439196Y-81439790D01*
X139439196Y-81439790D02*
X139477292Y-81477885D01*
X138258244Y-74112647D02*
X138524910Y-74112647D01*
X138639196Y-74531695D02*
X138258244Y-74531695D01*
X138258244Y-74531695D02*
X138258244Y-73731695D01*
X138258244Y-73731695D02*
X138639196Y-73731695D01*
X139363006Y-73731695D02*
X138982054Y-73731695D01*
X138982054Y-73731695D02*
X138943958Y-74112647D01*
X138943958Y-74112647D02*
X138982054Y-74074552D01*
X138982054Y-74074552D02*
X139058244Y-74036457D01*
X139058244Y-74036457D02*
X139248720Y-74036457D01*
X139248720Y-74036457D02*
X139324911Y-74074552D01*
X139324911Y-74074552D02*
X139363006Y-74112647D01*
X139363006Y-74112647D02*
X139401101Y-74188838D01*
X139401101Y-74188838D02*
X139401101Y-74379314D01*
X139401101Y-74379314D02*
X139363006Y-74455504D01*
X139363006Y-74455504D02*
X139324911Y-74493600D01*
X139324911Y-74493600D02*
X139248720Y-74531695D01*
X139248720Y-74531695D02*
X139058244Y-74531695D01*
X139058244Y-74531695D02*
X138982054Y-74493600D01*
X138982054Y-74493600D02*
X138943958Y-74455504D01*
X153594435Y-81401695D02*
X153746816Y-81401695D01*
X153746816Y-81401695D02*
X153823006Y-81439790D01*
X153823006Y-81439790D02*
X153899197Y-81515980D01*
X153899197Y-81515980D02*
X153937292Y-81668361D01*
X153937292Y-81668361D02*
X153937292Y-81935028D01*
X153937292Y-81935028D02*
X153899197Y-82087409D01*
X153899197Y-82087409D02*
X153823006Y-82163600D01*
X153823006Y-82163600D02*
X153746816Y-82201695D01*
X153746816Y-82201695D02*
X153594435Y-82201695D01*
X153594435Y-82201695D02*
X153518244Y-82163600D01*
X153518244Y-82163600D02*
X153442054Y-82087409D01*
X153442054Y-82087409D02*
X153403958Y-81935028D01*
X153403958Y-81935028D02*
X153403958Y-81668361D01*
X153403958Y-81668361D02*
X153442054Y-81515980D01*
X153442054Y-81515980D02*
X153518244Y-81439790D01*
X153518244Y-81439790D02*
X153594435Y-81401695D01*
X154280149Y-82201695D02*
X154280149Y-81401695D01*
X154280149Y-81401695D02*
X154737292Y-82201695D01*
X154737292Y-82201695D02*
X154737292Y-81401695D01*
X153461102Y-74531695D02*
X153461102Y-73731695D01*
X153461102Y-73731695D02*
X153918245Y-74531695D01*
X153918245Y-74531695D02*
X153918245Y-73731695D01*
X154756340Y-74455504D02*
X154718244Y-74493600D01*
X154718244Y-74493600D02*
X154603959Y-74531695D01*
X154603959Y-74531695D02*
X154527768Y-74531695D01*
X154527768Y-74531695D02*
X154413482Y-74493600D01*
X154413482Y-74493600D02*
X154337292Y-74417409D01*
X154337292Y-74417409D02*
X154299197Y-74341219D01*
X154299197Y-74341219D02*
X154261101Y-74188838D01*
X154261101Y-74188838D02*
X154261101Y-74074552D01*
X154261101Y-74074552D02*
X154299197Y-73922171D01*
X154299197Y-73922171D02*
X154337292Y-73845980D01*
X154337292Y-73845980D02*
X154413482Y-73769790D01*
X154413482Y-73769790D02*
X154527768Y-73731695D01*
X154527768Y-73731695D02*
X154603959Y-73731695D01*
X154603959Y-73731695D02*
X154718244Y-73769790D01*
X154718244Y-73769790D02*
X154756340Y-73807885D01*
%TO.C,C9*%
D11*
X145980000Y-70646920D02*
X145980000Y-70928080D01*
X147000000Y-70646920D02*
X147000000Y-70928080D01*
%TO.C,D5*%
D12*
X138700000Y-56292500D02*
G75*
G02*
X138540000Y-56292500I-80000J0D01*
G01*
X138540000Y-56292500D02*
G75*
G02*
X138700000Y-56292500I80000J0D01*
G01*
%TO.C,D3*%
D11*
X142420000Y-69112500D02*
X139760000Y-69112500D01*
X142420000Y-70812500D02*
X139760000Y-70812500D01*
X142420000Y-70812500D02*
X142420000Y-69112500D01*
%TO.C,J4*%
X131210000Y-47672500D02*
X131210000Y-32322500D01*
X133970000Y-32322500D02*
X131210000Y-32322500D01*
X133970000Y-47672500D02*
X131210000Y-47672500D01*
X133970000Y-47672500D02*
X133970000Y-32322500D01*
X133970000Y-48942500D02*
X133970000Y-50322500D01*
X133970000Y-50322500D02*
X132590000Y-50322500D01*
%TO.C,R16*%
X150257500Y-67360242D02*
X150257500Y-67834758D01*
X151302500Y-67360242D02*
X151302500Y-67834758D01*
%TO.C,C12*%
X147990000Y-64198080D02*
X147990000Y-63916920D01*
X149010000Y-64198080D02*
X149010000Y-63916920D01*
%TO.C,R14*%
X139907500Y-64264758D02*
X139907500Y-63790242D01*
X140952500Y-64264758D02*
X140952500Y-63790242D01*
%TO.C,Q2*%
X142627500Y-56082500D02*
X144147500Y-56082500D01*
X142627500Y-56132500D02*
X142627500Y-56082500D01*
X142627500Y-58032500D02*
X142627500Y-57252500D01*
X142627500Y-59202500D02*
X142627500Y-59152500D01*
X144147500Y-56082500D02*
X144147500Y-57082500D01*
X144147500Y-58202500D02*
X144147500Y-59202500D01*
X144147500Y-59202500D02*
X142627500Y-59202500D01*
X142087500Y-57262500D02*
X142327500Y-57592500D01*
X141847500Y-57592500D01*
X142087500Y-57262500D01*
G36*
X142327500Y-57592500D02*
G01*
X141847500Y-57592500D01*
X142087500Y-57262500D01*
X142327500Y-57592500D01*
G37*
%TO.C,Q1*%
X146590000Y-56882500D02*
X147590000Y-56882500D01*
X146590000Y-58402500D02*
X146590000Y-56882500D01*
X146640000Y-58402500D02*
X146590000Y-58402500D01*
X148540000Y-58402500D02*
X147760000Y-58402500D01*
X148710000Y-56882500D02*
X149710000Y-56882500D01*
X149710000Y-56882500D02*
X149710000Y-58402500D01*
X149710000Y-58402500D02*
X149660000Y-58402500D01*
X147770000Y-58942500D02*
X148100000Y-58702500D01*
X148100000Y-59182500D01*
X147770000Y-58942500D01*
G36*
X148100000Y-59182500D02*
G01*
X147770000Y-58942500D01*
X148100000Y-58702500D01*
X148100000Y-59182500D01*
G37*
%TO.C,R17*%
X146207500Y-64294758D02*
X146207500Y-63820242D01*
X147252500Y-64294758D02*
X147252500Y-63820242D01*
%TO.C,SW1*%
D13*
X147071000Y-77722400D02*
X148571000Y-77722400D01*
X147071000Y-79022500D02*
X147071000Y-77722400D01*
X148571000Y-79022500D02*
X147071000Y-79022500D01*
X148571000Y-80922400D02*
X148571000Y-74522500D01*
X149459100Y-74422400D02*
X150382900Y-74422400D01*
X149459100Y-81022500D02*
X150382900Y-81022500D01*
X151271000Y-77814300D02*
X151271000Y-76130600D01*
X151271000Y-79314300D02*
X151271000Y-79130500D01*
%TO.C,J2*%
D11*
X155840000Y-60502500D02*
X155840000Y-75742500D01*
X155840000Y-60502500D02*
X163460000Y-60502500D01*
X155840000Y-75742500D02*
X163460000Y-75742500D01*
X157110000Y-60502500D02*
X157110000Y-75742500D01*
X163460000Y-60502500D02*
X163460000Y-75742500D01*
%TO.C,J1*%
X130400000Y-60502500D02*
X130400000Y-75742500D01*
X130400000Y-60502500D02*
X138020000Y-60502500D01*
X130400000Y-75742500D02*
X138020000Y-75742500D01*
X131670000Y-60502500D02*
X131670000Y-75742500D01*
X138020000Y-60502500D02*
X138020000Y-75742500D01*
%TO.C,Q3*%
X147275000Y-66392500D02*
X148745000Y-66392500D01*
X147275000Y-66417500D02*
X147275000Y-66392500D01*
X147275000Y-68612500D02*
X147275000Y-68587500D01*
X148745000Y-66392500D02*
X148745000Y-66417500D01*
X148745000Y-68587500D02*
X148745000Y-68612500D01*
X148745000Y-68612500D02*
X147275000Y-68612500D01*
X146830000Y-66412500D02*
X146690000Y-66222500D01*
X146970000Y-66222500D01*
X146830000Y-66412500D01*
G36*
X146830000Y-66412500D02*
G01*
X146690000Y-66222500D01*
X146970000Y-66222500D01*
X146830000Y-66412500D01*
G37*
%TO.C,R15*%
X143317500Y-63790242D02*
X143317500Y-64264758D01*
X144362500Y-63790242D02*
X144362500Y-64264758D01*
%TO.C,U2*%
X140160000Y-51882500D02*
X153560000Y-51882500D01*
X142860000Y-29682500D02*
X150860000Y-29682500D01*
X142860000Y-30882500D02*
X140260000Y-30882500D01*
X142860000Y-30882500D02*
X142860000Y-29682500D01*
X150860000Y-29682500D02*
X150860000Y-30882500D01*
X153460000Y-30882500D02*
X150860000Y-30882500D01*
X138047108Y-32377820D02*
G75*
G02*
X140259532Y-30882501I2135279J-774913D01*
G01*
X140160000Y-51882500D02*
G75*
G02*
X138060000Y-50382500I74105J2323747D01*
G01*
X153460000Y-30882501D02*
G75*
G02*
X155664030Y-32381038I64720J-2274909D01*
G01*
X155660000Y-50382500D02*
G75*
G02*
X153560000Y-51882503I-2174110J823750D01*
G01*
%TO.C,R18*%
X149737500Y-63820242D02*
X149737500Y-64294758D01*
X150782500Y-63820242D02*
X150782500Y-64294758D01*
%TO.C,J5*%
X159320000Y-32322500D02*
X160700000Y-32322500D01*
X159320000Y-33702500D02*
X159320000Y-32322500D01*
X159320000Y-34972500D02*
X159320000Y-50322500D01*
X159320000Y-34972500D02*
X162080000Y-34972500D01*
X159320000Y-50322500D02*
X162080000Y-50322500D01*
X162080000Y-34972500D02*
X162080000Y-50322500D01*
%TO.C,D4*%
X152140000Y-55214897D02*
X153660000Y-55214897D01*
X152140000Y-55264897D02*
X152140000Y-55214897D01*
X152140000Y-57164897D02*
X152140000Y-56384897D01*
X152140000Y-58334897D02*
X152140000Y-58284897D01*
X153660000Y-55214897D02*
X153660000Y-56214897D01*
X153660000Y-57334897D02*
X153660000Y-58334897D01*
X153660000Y-58334897D02*
X152140000Y-58334897D01*
X151600000Y-56394897D02*
X151840000Y-56724897D01*
X151360000Y-56724897D01*
X151600000Y-56394897D01*
G36*
X151840000Y-56724897D02*
G01*
X151360000Y-56724897D01*
X151600000Y-56394897D01*
X151840000Y-56724897D01*
G37*
%TO.C,D7*%
D12*
X140740000Y-68092500D02*
G75*
G02*
X140580000Y-68092500I-80000J0D01*
G01*
X140580000Y-68092500D02*
G75*
G02*
X140740000Y-68092500I80000J0D01*
G01*
%TO.C,SW2*%
D13*
X139153600Y-77812400D02*
X140653600Y-77812400D01*
X139153600Y-79112500D02*
X139153600Y-77812400D01*
X140653600Y-79112500D02*
X139153600Y-79112500D01*
X140653600Y-81012400D02*
X140653600Y-74612500D01*
X141541700Y-74512400D02*
X142465500Y-74512400D01*
X141541700Y-81112500D02*
X142465500Y-81112500D01*
X143353600Y-77904300D02*
X143353600Y-76220600D01*
X143353600Y-79404300D02*
X143353600Y-79220500D01*
%TO.C,R9*%
D11*
X139202258Y-57250000D02*
X138727742Y-57250000D01*
X139202258Y-58295000D02*
X138727742Y-58295000D01*
%TO.C,C10*%
X143590000Y-70586920D02*
X143590000Y-70868080D01*
X144610000Y-70586920D02*
X144610000Y-70868080D01*
%TO.C,C11*%
X141630000Y-63886920D02*
X141630000Y-64168080D01*
X142650000Y-63886920D02*
X142650000Y-64168080D01*
%TD*%
%LPC*%
D14*
%TO.C,REF\u002A\u002A*%
X133370000Y-55965103D03*
%TD*%
D15*
%TO.C,C9*%
X146490000Y-70012500D03*
X146490000Y-71562500D03*
%TD*%
D16*
%TO.C,D5*%
X139070000Y-56292500D03*
X139770000Y-56292500D03*
%TD*%
D17*
%TO.C,D3*%
X141860000Y-69962500D03*
X139760000Y-69962500D03*
%TD*%
D18*
%TO.C,J4*%
X132590000Y-48942500D03*
D19*
X132590000Y-46402500D03*
X132590000Y-43862500D03*
X132590000Y-41322500D03*
X132590000Y-38782500D03*
X132590000Y-36242500D03*
X132590000Y-33702500D03*
%TD*%
D20*
%TO.C,R16*%
X150780000Y-66772500D03*
X150780000Y-68422500D03*
%TD*%
D21*
%TO.C,C12*%
X148500000Y-64832500D03*
X148500000Y-63282500D03*
%TD*%
D22*
%TO.C,R14*%
X140430000Y-64852500D03*
X140430000Y-63202500D03*
%TD*%
D23*
%TO.C,Q2*%
X142450000Y-56692500D03*
X142450000Y-58592500D03*
X144325000Y-57642500D03*
%TD*%
D24*
%TO.C,Q1*%
X147200000Y-58580000D03*
X149100000Y-58580000D03*
X148150000Y-56705000D03*
%TD*%
D22*
%TO.C,R17*%
X146730000Y-64882500D03*
X146730000Y-63232500D03*
%TD*%
D25*
%TO.C,SW1*%
X149920600Y-76222600D03*
X149921100Y-79222600D03*
D26*
X151767400Y-75472500D03*
X151767400Y-78472500D03*
X151767400Y-79972400D03*
D27*
X151056000Y-81522600D03*
X148786000Y-81522600D03*
X148786000Y-73922600D03*
D28*
X151056000Y-73922600D03*
%TD*%
D29*
%TO.C,J2*%
X159650000Y-63042500D03*
D30*
X159650000Y-68122500D03*
X159650000Y-73202500D03*
%TD*%
D29*
%TO.C,J1*%
X134210000Y-63042500D03*
D30*
X134210000Y-68122500D03*
X134210000Y-73202500D03*
%TD*%
D31*
%TO.C,Q3*%
X147172500Y-66852500D03*
X147172500Y-67502500D03*
X147172500Y-68152500D03*
X148847500Y-68152500D03*
X148847500Y-67502500D03*
X148847500Y-66852500D03*
%TD*%
D20*
%TO.C,R15*%
X143840000Y-63202500D03*
X143840000Y-64852500D03*
%TD*%
D32*
%TO.C,U2*%
X138360000Y-33762500D03*
X138360000Y-36302500D03*
X138360000Y-38842500D03*
X138360000Y-41382500D03*
X138360000Y-43922500D03*
X138360000Y-46462500D03*
X138360000Y-49002500D03*
X155360000Y-49002500D03*
X155360000Y-46462500D03*
X155360000Y-43922500D03*
X155360000Y-41382500D03*
X155360000Y-38842500D03*
X155360000Y-36302500D03*
X155360000Y-33762500D03*
D33*
X148960000Y-41982500D03*
D34*
X142360000Y-40982500D03*
X142360000Y-39082500D03*
D35*
X145590000Y-32762500D03*
X145590000Y-35342500D03*
X145590000Y-37882500D03*
X148130000Y-37882500D03*
X148130000Y-35342500D03*
X148130000Y-32762500D03*
%TD*%
D20*
%TO.C,R18*%
X150260000Y-63232500D03*
X150260000Y-64882500D03*
%TD*%
D18*
%TO.C,J5*%
X160700000Y-33702500D03*
D19*
X160700000Y-36242500D03*
X160700000Y-38782500D03*
X160700000Y-41322500D03*
X160700000Y-43862500D03*
X160700000Y-46402500D03*
X160700000Y-48942500D03*
%TD*%
D23*
%TO.C,D4*%
X151962500Y-55824897D03*
X151962500Y-57724897D03*
X153837500Y-56774897D03*
%TD*%
D36*
%TO.C,D7*%
X140210000Y-68092500D03*
X139510000Y-68092500D03*
%TD*%
D14*
%TO.C,REF\u002A\u002A*%
X133370000Y-80915103D03*
%TD*%
%TO.C,REF\u002A\u002A*%
X160240000Y-55965103D03*
%TD*%
D25*
%TO.C,SW2*%
X142003200Y-76312600D03*
X142003700Y-79312600D03*
D26*
X143850000Y-75562500D03*
X143850000Y-78562500D03*
X143850000Y-80062400D03*
D27*
X143138600Y-81612600D03*
X140868600Y-81612600D03*
X140868600Y-74012600D03*
D28*
X143138600Y-74012600D03*
%TD*%
D37*
%TO.C,R9*%
X139790000Y-57772500D03*
X138140000Y-57772500D03*
%TD*%
D15*
%TO.C,C10*%
X144100000Y-69952500D03*
X144100000Y-71502500D03*
%TD*%
D14*
%TO.C,REF\u002A\u002A*%
X160240000Y-80915103D03*
%TD*%
D15*
%TO.C,C11*%
X142140000Y-63252500D03*
X142140000Y-64802500D03*
%TD*%
%LPD*%
M02*
